<mxfile host="Electron" agent="Mozilla/5.0 (Windows NT 10.0; Win64; x64) AppleWebKit/537.36 (KHTML, like Gecko) draw.io/26.2.15 Chrome/134.0.6998.205 Electron/35.2.1 Safari/537.36" version="26.2.15">
  <diagram name="Page-1" id="bxZf2NqjNiaoDPLJOjYL">
    <mxGraphModel dx="8100" dy="2963" grid="1" gridSize="10" guides="1" tooltips="1" connect="1" arrows="1" fold="1" page="1" pageScale="1" pageWidth="850" pageHeight="1100" math="0" shadow="0">
      <root>
        <mxCell id="0" />
        <mxCell id="1" parent="0" />
        <mxCell id="cTqye1R8xtgrSsg4DlFA-1" value="" style="shape=image;verticalLabelPosition=bottom;labelBackgroundColor=default;verticalAlign=top;aspect=fixed;imageAspect=0;image=https://files.seeedstudio.com/wiki/reComputer-Jetson-Nano/59.png;" vertex="1" parent="1">
          <mxGeometry x="90" y="20" width="980" height="1200" as="geometry" />
        </mxCell>
        <mxCell id="cTqye1R8xtgrSsg4DlFA-2" value="" style="shape=image;verticalLabelPosition=bottom;labelBackgroundColor=default;verticalAlign=top;aspect=fixed;imageAspect=0;image=data:image/png,iVBORw0KGgoAAAANSUhEUgAAAPgAAAFiCAYAAADbWxWaAAAAAXNSR0IArs4c6QAAAARnQU1BAACxjwv8YQUAAAAJcEhZcwAADsMAAA7DAcdvqGQAAP+lSURBVHhe7P1Zky05kqCJfQBsPbvv7tfvFktmVmZ1ddV0t1SPyAylKRSZ6RH+Ac6vYfdv4RufKMIHCvnCZg+nl+phbbnFlhFx466+u5/dNgB8AMyOnePud4nIyK7pSfWLa3bMYGaAQhWqUCgU4r//l/9HSwustSwWC4QQ7cu3YPWQO7s3t4UwCgnD0F/YyGnbn7/3LQ3MZ/N3lu1DIAgUURxvXn43rGHNwXK5xK7V54eBUpI4STYvfy/Iswytzebl7w1CCNJOunn5e0FZFBRF+ftpV/+KTqezeed7QVVV5Fl+f9nWLvu2F7duNGCBJEmQUiL8b0czdu0bdz/dBoHWmixbtp67/ZQw9n6SrK+377evuXMNaIStUMKiEP5DFrSmqiqkVEgpQUVA4F6gLZQGKuuSFWAloNYLWn9o9cHbx7fBZp3r3+/z7F1wFzJ+X3B/O/0R2rBJC9LjrD5u4m+TfrgjD+/ZtvV14Um1SRakAWEhkiDl2mMaMP6YAxZLjKBCM55fIdAkSUigBIo6SURTQZeEr6TwFRUIxzv+1yb8IAZ3R4NAI6mQGFy1WkwOoA3GWKRSYCUmK8mXOct5Rj5bkE2XmLyECqgstrKuA9AgrUQagbC+gta1pPu9alXrv+m+2Pq2P1pxdwu7930YOKTejdAfDOJHeet/YSDBBmCVO5cZiMwfC8dKomYnBTYEG7kjBjzNIowniRrjnp7uoC3rnzICrJTISCFjQ5CCSiwyFkSdmM6gQ9hLIO2uXuuZuqbKmsEjBAbLUs/AasJAILE4MSeQDYXVjL1icEd97ePd9CjMPfy9ychtqFnFYgHtC2UQGITFIVWEK8SVFpaZ+10ZljdTrq9uuDy94OLkjNNXJywmM8plQb7IyeZLyqygyMtWDyUa5l4794zvyrVRwYapXUkRFlvnekuv91ZYY+wPfPYd0JTo9/va/8KgpenVR5G7JHMQpW9z449yxdw2dEwvNIjKMXm7LT2duSQboQECawVWgAgVKgro9Dp0Bgn9rS7dYUrST9g92OPRR4/Z2t0mGA4hFhABBRQVqBSEhAwwFkJRUy5YKoyTcA0lewpH4Dqy28zt1Py30eG9DF6DrR+3q9cYAQaL8ep53c9JLEIr0GGdCSzYV2PO35ywnM2ZTeaMr28YX4+ZjmfMbiZMbyYUi5wqLymznCIrqPKSvCqx9WtELW19ssJVuGFwV7pVZWyLwf3Y0zM4HkXrzHo33Lrregr/49bdHwQC/ijB3woeM3Wb10dRtpJeowKs9IwdOqlPBaJa5a/pqX5/i8baDA4CpEUoiQwEYRwSpTFxGhOlMUEcMtwecfjgiNHOFr3hgOHOFqOdLdJuh2CQIroSEig9V6935AZL5fUER7erL9fSW7RovV3u+0HcpaFvXhD1xTop0Gg0FRbtP21RRiB0BIWCAlg4feT0l1/y5W9+y/nLN5yenHJzfcNitgBtkUgCoZy2pM1aKtFU0qKlxdR1aVTqWk2vG3oDRM3YflxEzdy1nPf/36Oi333Vw/eV/u8Df2Twt8Cq7V0b1MReS+U2c/u8Vnl1PnT2H1FiReGlfs3g7XcLlxpGd9eEkCAtCI0VBmM1xkKlQRvQ1hJGEZ1+j96gT2/Y49HThzz9+DEfffqUnU8fQzeELpC4opsKtLFYNEJZZMBat7KC+spmejfcyeC3oM3cnsGNKKkosBgUEol0HWMeUp4VzF7NuX52w/nzV1y+fMPVqzdML66YTqZgLNZYz3turOF40WKN8UmTC02lDIVyTL5eJtfAKyZvV9j6MVg9FqvVNSfVhc9Co+psQEtbuRuc9H9Xrg8F16P/UUW/BWu43iByp9r5TPUsQbsDqBncHa10zG2b8frmu9vf8OcWhJAI6VR7qLAYjA7QWqJ1gDECFYaknQ5hFKFCGG51Ge302d0f0Xu4x84nx2x99IDRgz3SYXDrMyhatEqL4doZ68yb1+6G78fgEpDGjxkMEgVaQqZhajj73Snf/eo7vvj/fcVv/+ZvIC+gKNDLBcYahv0+SRqDtVij0brCGg3WYK0/Gk0hNJU0VLUE941mrUA0PXOAsMHKMNIYSAyiYe42g7cZWHibwW24H3Urq+Xbcjm45+V3gvD/3vXO/61CG+c+NUy8iec28a8P46zIQWaOwaUzdzmCWNFHrSK3NT8hAFHTlHZfNDFGR1gdYW2AUjFx3MUYQVHmGFtibIUKBWKU8Iv/+p/ws7/8cz7+s5+x93AXUj+p1KrSOthWp7V5884HbsH7M3jNIzVODWArkAJyi54sOXn+hm9//Q3n35xx/fKamxc3XJy8gjKHKsdWOaCJ4oAoColiRRgpwkiiFEhpUQEEgUBK1+kWpqIwFZUx6IommUpS5oJ8abDaMbrVEqMF1khAE8chKhBUVYGuKow1rvjSDSpc+91G0u0rm9AmsM1b70bn20AgNgdnHwA/5Nvf95t/QFjrWNua2+q6xaHBMaXwyWUx1mJZYuUCK5bIsERKi5CgAojigDhWRHGAVJ7ohZ/gEm6op5RECkFZaao8JF9KiiygKhRGBwgboXWArvxwwT+juwHdo21GD/d5/Cef8PFPPuKjTz8i3es3KnvDs9JA0B52tqV6nen92uvDGNx4NUICJVAZsAI7zbh4ccrnf/9b/pd/+1dcvbhEjytkJkDnWJOByQikRiiDVJYoVnQHKd1eRNoLCWNBEEIUS6JYEYQCFSjysiAvC8pKU+ZQFtb1F4Ukm1vm04oqV5hK+fugK8fg3U5CGCqKIqMsS4zWCAGBDLyRzc2/vx+q2vAuJL8bpXeDHzLc99p3wvf/7j9s2ChfI7lX0tkNvKRrUutMwEKAVAIhLUIYjK3Qdg5qiVAZYVIRRtLTnaLbi+j0IjrdiCCwICqsqI1yGoAgCJFSUeQV+SJgMRVkc0WxVORLSb4U6DxEV04aCgRKKorIMrE5VSI4+Oghn/7sE/7JX/5Tnn7yhGh74KS5xI3zpYGOalX4D8HgbLyzdEa07GrC669f8Pf/8W/47vOvOX9+SjnNkTmEWiHJ0WYOLBkMI3rDDoNRl+Gox3C7S9JVyMgglAZVIZVBKIuQBiFBa6fCG20xVYCpFKYKsDpElyGmiJjc5FxdzLi5XHBzvcBUCms01lqEdRJbCYmQnpkNWD/e/3AG35xO2YQaWe9G6y3wouZDS+TAf+/7aBDvPeT4hwIttdsqP3PsmNwYsLbCWI0QxtGR0iArLCVGzEm7hrQH/aGiN0jo9RO6/Zi0GxLHAhUYhHKMbUXZHB2nuCGi0QJbdjBliik72DJhMbFcX+TMbjSLWU62KMiWBYEMKUPB3JbkyhINuwx2BhwcH/LRTz7iT/7s5xw8OiTY67lpNQnE/gh/AAbfBANMobyoePnld3z597/mr/+//5Hz568RZYUwGmkNsZJEUUkQZURxyc5uyvbuFjt724x2RvRHPYJEYYTGCI1FYzBYYbDe98daZ6l3XbMC4w0mJkQSo0TM9eWMN68vOD+74uLsmjK3lEvJYqqploo46BKFIUHgvOh0pTFaY3Tt6MAGwt6GvLaB7a5835/BncvhD2Bw4Y8fDD+O0fDHAz9+Q7UY3M1VG2swlFifkAVSVciwQoUVKsoYbgeMdkKG2yHDUZ/R1oBev0OUBCglsH52yNGhU88NGmMN2mi0MSAk0qYEooMkRdmUxaTi4nTK+HLJ9GbJ5HrG5HqGLgW5kWRakFuFlgEEApkEHD99yH/1l/8Vn/7pT3ny06cwSJzKHtRGN+sYTjrNznoKed+2us3g7Y6idUl75zIpIczg+uuMV7/9jl//+7/lu8+/YnFxhZ4usdWSUs+p9JxuP2S4LXj4qM/RcYdu35J0OiTdlCCKsFJgpMBIN21uRWPecMZRb7F00xnG+fZY13sLN8GGFAF5XrGc58xmC2bTOeObGZNzwdXrktmlRJkeSkmUCsDiNQKz7pvdkmLuzP++k19WeW+Df+B7SNK64b4Xgzff+/Dv/q+PwVuWcYKWF6NwwkCUCFViRE5lZoRxRdKF4VbIcEexsx+zsx+R9DRJmpIkCVEcOi8U6rG6I4n6aKx1U8OmQtsKBAgClAxRIkQRYQpJuTAUC02+0NxczLg6n3D25pLTkwVllaB1Bxn0IBRoZUn6KaP9LT7505/wZ//sz3nw0UN6D3cg3GDwQIJ0/PEhrbRi8DZd1G/wbzPeGa20ziNHXsDv/sNXfP0fP+erv/o1V69e05OKRFuMnaPVDB3M2T5MOHwY8+hpj+PHKWG8RIUxIgixQpJrQ4XEyqBJQgYgA4QIkKrEkmNtDhTOKd8YN8VmXQGFcM76xliqqqQsS26uJ0zexJw/g+tXIcU0piydimWtc5u1xmBs21XRJ8/ozf/38st9aP5hkvRDeuc1+KEMTruT+4cOtftp7bxSF104C7fKESpHBDkyzOkOLKOdkO29mN2DkMGOYLAFQZIThBFBEKNU6DuKACHdnLlFYoTz09RIDBVGVGjvdVbP+GA1GFBGIU2ALSw6h/lNzvQ6482LC948z1hOEvJ5CqZHKQwFJZU0mFBw9NExf/LnP+dnf/ELfv7nv0D0YifJawYPlWf4DwNh7S0Z7pgGV/aG7q1L56c511+d85/+H/+eL/7dbyjPZ5DN6CpLbDVWzEm2LIP9kAcfb/Hkk22iTk7YyZBRjlQRIogQKsSIwC1AUTEiSJBBTBAmBGGKCmKCQFPpBZWeo3VGVRZUZYYuC7QuMaZ0Krxx0xFSOA0jz3KKmwHXLyRXLyRnz5dcXU5YLgt0BVL47tGIuptsGH1F4v78ro7vrfDDGK1W0z8cfth314//sMH66VHwsyf1dJawbqwsZ1RMSfuW3YMO+0ddDh/0GWwFdIYSGyywaoGMK8IwJgwTwjBBqpAw7JAkPaSKsSgMyh8lRmhkKCCw5OWSspiTZTOKfE6VZ4jKEFiBLSqqpUHoAKlD8rlmOY54813G+auCybVhuswotKESAhtIwn5KZ9TnL/7rf8Z/+3/4b9k52kXu+ZWEwvu1+nVaHwIrBvdCUfhZGgMYz+CBdf60LOGLv/+KL//6M3717/6OF799RlgaQpnRCQt6qaXTh62DDrvHfXaOeuwcjShlSSVLCC0yiIniDnHSJen0UGEKMkKoGKliAs/kKohRgcXojMpkaJ1jqpyqyjBVjtE5ZbGgyGdU5YKqXALa+RdbjVh2mJ5pJqcVl6+XnL2Zcvp6QjYXKNHF6hBThWAiT9atufK3kPpt9tm80v7dOq9f2Fy6/YXG0eWOeyu49aL1382jm/e585tQZ73nXgPvuv/jwnptJLYZpAZYUWEoMaJCBCUymhOmS4a7kuNH2+we9Nne7ZL2AsJORG5LcipUGhHHKUnaIYk7RHFKHHdIkg5KRd752i2hsn5hiAidqpxXOVUxp8imlPkMnS8xeYbJl1TLBeUiRxlBIAJEBVUWc36y4OJkyfnJnKurJfOZpigUlVVoITEq4Kd/+qf8xV/+BT/7s5+w/4unoIxT12Ppjh/YDA2DN1K8xeDaM3hkgGswl0v+7f/9/8W/+//8z0wvJmSTBdIUBMGUpJOxtx/w6MkO+8db7B4OsEFBhqAKYqowxviesj/YYjTaYXfvkCDpg5HejTDE+euFIEO3BM/7u7tUgi1cooDFDbPxGYvZFcvFDUU+o8znhIEl1CHZOKecFuhMcfGm5LNfvub63KLMgCqPKRYhlB2v3vrOwU+HtJm9hrtYxiF88867ft/dSoJ3ObtsXt9879t+bz7bhrfd4z3u/7jQroU7l1jhjWxCYVVBaZYYMoKkojMs2D2S7B+HHD7cotOLkQrCWELSp5QpZZAS9bbp9fr0+wN6vT6dThcZp25SXChf71qd9d8XbomKNhphctAZwmQoU1DMb5henZJNrshnU3SeYYocWxZUpZsnz5eW0zdjzl9nXJ7kTK8E2VJQWYUVMf3hLoP9Af/iv/tv+Mv/7r+BxEIaQCd0lvUPVNPvVNHrKW8rHJOnGVz99pzTX37J5//z/8KvfvVLsjynLAuMWBL3Z+weweHDgAdPttjeHTAYpWgKpjrBJHuYdA/VO6Db6dPrDel2B3TSPmGQYgkQeJVLBF6NaNFVczSOsUXunNyLMcwvKZfX5Msx2eKa5eIGXc4w2YxyMUZnM2SlmF2lvPqm4PKNZHoZshgHLMcRNh/4FTzOmOcMe3WLOsRYX4ZN9nFQX73rrr/WNri9bUrqrczNBkLe8t07x+P+2e81zn5Lmf+AUBfdIpxBTLo1jFosyc0EgoKdg5i9Y8HBI8XOkWG4nRKEIQYIwgib7CO7x6jeQ0R6QJKmpElCnCSEoQtMooLQr+eu6+vUW4tEWzcet4AyOcrmSFsAGWRj9PSccn5JsbhhPr5gdnOBKeaUVYVFUGnNdJwzPQ24eKG5em25PispigAhOgjRxUaaf/a/+wv++b/4pxx/coh4fOCYO/IMflcz3EEGAOpf/et//a9rZqqHf9oLscA7xIs5fPGffs1/+H/+GyYvzyiKJdrmGDKsmtMdGR5/us2Dj4Zs7fdJeykiCpBBiEiGJMNDetvH7B1/woOHTxjuHpJ0R2AFlREIESJlLbXFypkGX5k61TWrC6oUJB1Up0fUG9CJO0RhSllalouMqqywusJoUKrLaOuQOOoyn2fkmaYqAB1irXZLXWs/9eY7G3i7C7HvC6LVUzQX1sFVcWVmu53W7ez3J+e9deuan/P/8FT/bV7/w6R1/Pj/pEBINy1W2TmFniCjnEcfbfP4022OngzY2o+JOgoVxcggIUr6hOkuW4cfs//wZ3RHh3R7Q6Kkg1QhlbZoIwiCCKEC14msJeWmq3w8B6UCpFTuh1QQRshOl6DTI+4OCLUgWxYIEWCFciswhSbtpHTiAUpE2BLmswVGQ6hSTBmwyOYgLHmZcXh0SPLRtuOHTYS8BzgG91A/byr3PqVgfgMXz8746m9+zZd/+xuqaUZRLSjKGaglo92Iw0d9Hn20w9Z+h7gbEUQpMuwQpSOSwQGjvcdsHzyhO9xDRb2mK5JCIIVCqsAhSMj1StxZoZVkdTe9u6KRICLCoEscD+gkPYwWlIVBiAglu8RRx2kllUWXkC81RiuMqZq17A1zuAGx70tc79f++2BoHmlXbh0c7b7t7fc/ewtuZbkTme8JP+TZ3y84HDkKMFi3qksuSXuwvZ/y9Cd7HD4aEHcNIiqxShLEfTr9PQbDI/rbj+iOjkh6O4iwSxgGBEGAUgFKqebcG0RaX13hoD7zs++rQkkFQeKOWhKIiE7UR6kOFkllLNpqwigiClJCESKsoSwqtBaUuUAXIdoaUFBWBVs72xyMDkCFKyeYNtzXLL6Q6v/sGbzdhLbymoCEmzdznv3qS7755ec8/+03iExTmQVZNUZGOQ+fjnj0yR5Hj7fobYcQKGSYIqMe3d4e/Z1j+ocfEQyfIFV/3bteKtdTyrqH3HDTbON1rSL+gq3n8ARUAlQH0iFquE883MHOcxbzDCUilIoJwhApDVIpqtwyHefoQqCrEoGLHuNWp61/c+XTXFu5vwc0j9Unt98j4I8M/j7g4xFoo9FWI4IlW3sJR4/6PP10n53DLlouKFlihCTp7LC185DRzhOSvccEnW0IOkgVI5WjQakCVBA6YbM2k+GOTqS48/ruitc8LcoQ8FEdcgtRHzU6ILUxpTYUVUFR5URxQBImJFFIICy61BQZTMclukwQUlBUBbP5jP5wSLffp9frIgeB+2hbvrWKcNe5rOVho4pa3zNZZ9can13w5W8+4/zNGRjnogeW4TDl8MGQ/aM+w+0ELQpynWOVIEi7dAf7dEcP6AwOIex5dJgNo1nLuifq1Tse7qIngX+Pcgv4iUF0IRxCvAPhNsgt0AMwfYbbH3Hw4OeEyQ6lkeQmx4ZLuiNBfzugN5LEHYsMKoT0VvTGu8F/sGnszfSfC/7Q3/5Df+823Mb8imqTJGQ46vL4yQGf/vSY0U6EijQyEgRJRNzr0x3uMNg+RvQOQPVBJiCUF9L31W9Fi+5LdTgwB6tyCB9UQkElXaiWMgI1AjEE3YfOMTt7HzPaeUhvuIuKIoyoIMhJB5rDhz129jpI5YKnhEGIsE4Ivfj2Nb/6u99wczFuGcc2Uhs2qiPZzOMZHO2mxcanF3zz2Rdcnp463d1WSKUZbqUcPhixdzigP0zRwpAbi1ExYTqkO9onGR7AYA/C7qq/0xZbmVXcNVuXwLrSCx8ra2PaqoGmUaQzyMkQwhiSDkQdUAmICIgRW0eMjj4i6u2iVUxuwShB0o/pbcUMtgPSQYmKMqTKnPHOegeGOzG5SrfJ4vaV1bX7jpvQvn9fat+/Ly/eIrWZ7sv/tvS+sPncu9IPAYsQFVLmJKlhtBVx/GiHxx8d0BtGiECgwpgwGZL2dukODxFbD6C3C0EHZOTG05sa41ug9pOr0zpd+jppC3nlSCdIQMVOY+2OEHvHDHeO6Y8OUeEAIxQEkPQE+0c9tvdi4qQkjJaEQYmixJQlb56/5otff8712aVb/1HHtNhMdTE8eG66pdE3UE3g8tsrTp+9ZHJ2ST6dYcsCKQ1Jotjd63PwYETSkxAYZKgIkw5pb0R3tEdn9wF0d0DE3n/cj5ObmJG11aCW4l66W+3GCI2UbzP7PbBWUekQG3Yh6kNvl73jj9l/+JSo20Ur0KKkMwx58sk+hw+79IaCICzRegm29LG6NvvsFgj3n+C2+r6eWveR/rx9XE/UQ4B3JerzelhzT9pkqs37H5S441orbX7rnekdZX9LEsKgpCYINd2uYDiKCOMKbWfk1YzKloRJh/5on+39x/S3H0C6BUEtvUM31Wat8460NY3dprU6CtA6J7karJ/VRrjQCRgReDrsQJBC0CEa7rO1+4i0u4MMI6zQWJmjopzhdsjTj3fZ2Y3AzhE2R1mLzjWL8ZyTl2+YfncFMxco5Y6igv/Z1pEbFX0th4XFZMbLr59x8fw12WSKznKkNUShoteP2dnts7vfI+mACAwqDog6XTrDHTrDXRjsQjoCkTiXQi3BuMUBbjrM2/tt/VHjEV0XrQ5AdweTb9JK/Yr6nsQhNexBOiLaO2br4AFRtw+hQsuKpCfZP+6zexgz3FaEicaYDKi8Nf1+CS6oaW3d8Lb+x60r7/P3Xk+99bsbfx+S951/t1Hf3LvVub0rtWu6+c53JGGRShMEFf2+Yme3Q5xaDEsKPaeyJVHaoTfcY7j1APr7IAYgO2AjrHdDtXg3Z2sxxmB8NKG6nRsHkXa6s+OvOx9vXpf+t5QQBG5eXXWgu008OiLt7hDGKVYajHQenoOR4tHjLXZ2IoRYIGyJshYKQz5bcv76hDfPX1LNFuuyr0WanotqUUl1p4qOyzG/mfDsy6+5Ob2gG0T0kohOErK93efgcJvBVoekq1CxRcWKtNujP9pla++IsL/tx8ghyNj3mLXnkZ8DayKvCP9RH2ZJtIvpa/CuhRu1vU24YVAlfc2Ej+4aJKikS9IfEnsmN7LCyAWdgebgQY9eXyGkCwCgvEH/Dsy8A+q6/BC47x319fvut2Ez7+bx9w3f573f55kafFRUkbO9m/Dk6R7DrRgRVFQmo7KGpDeg29+DeAQyBRSmgkVhKDVYv7BkExzTtxy/7gWfoU3CbZKuU0OLgdNmVZduf4/+cAcRBBhRIoKKTk+wd5AwGFkCtUSKHGkrlJUIbbk+v+Lk5Wuy2cJxbq2u199omY7a3HO7ltY9OBtPef3sOZPzK0IgCgRRDIOtmL2DEb1BQhgrZKBQYUTSHdId7BIO9iDtr6a8agv5GpG10x1w5+W6+B7849avRNN1qmW/MCBL7+onUXGHtL9N3NlFBF2sFFhZkvQ0u/spvUFAEBlUYJHKItyc2R/hHxw4QRBGlu5AMRxJhjsJSTfwfuIKGSak3W2i7i5EQ6eWIykslNZQWeNXjL2Ti1vQptc7aLcm8ZqhpXWemArn6620mz5THcLuPr3+PkHYAREiBMQJDLcUw62K3kCTxCVSlghbURU5l2dnnLx6w3wyd8x9h3pO61J93Axl6O4UsJzOuD67YHF9gy1yhCmRsqI7CNna7ZN2Q4SyWAFChSTdAWlnG+K+k9pIKs90RuAU2+ZjG0z+voxUW9pbeLZYH8LZoDE+1muFpkDjI3EEEpKUtL9D0ttDBl03ya8qkk7FcCukNwxIu4owFkjZitH1R/gHBHV7aPqDiONH26R9S6knGHJkKEi6XXrDLdLeNiTboHogYueBJkGEzkvN2NrA+z7QJtBNYvWLXDBuTC0qjCwxqsSoAqNyjMpdlBYZQNCDdIewu00UD1AqdiygKuK0ZLRteHDcYTQKCJXGVAXL2ZSzkxNev3zFdDxxOwL5ka4vwu1iebiliNoSxtczri+vWIyn6EWOMgYlDSrQJB1Btx8hAktlS6ywyDAkTvsEcd87sQQgI4yQq0jPLRXCJR8gVtzRG74VrOu+fFAItzi/xAVZzqmaVFBR+sCQFsKIpLdN2tsnTEfIKMQqZ0GPu4b+MGJ7p0eShghVR2N9bwr4I/wIUBvBXCusjghNkip2dlM6XQ0yR4scIzVpv0d/tEOYjkAN3DQqMVpIrAIVK0Sw6cjyNrhLaq/Om7IJixHGBy+p0KJEi4JK5FQix0rtx+KJK1c8pNPdIkn7jsFlQRhlDEYlB4cxvb5AkKOEQVhDNl8wvrphcjNBT+dQuJ1/ML5I6xhqQLJR9GJuefP8JeevT9BZQWAFoZSEgSWINEFaEsSGyuZkZY4REhUkRHEfobqQe72ZFEmIMRZzL5/4wXNTgnby929B/bK6q1jB+tPOFKLrjkRGiO6I7mCPTm+bMO74zNpP+3U4Ot6h2w9Buqm6D1Ph/tDwNhy1YK0KP1Z97nrvXddqaLfd3fmsN3LVSx1r0nVHQxhBpxcQdyFIBAZDZQSd3haD0b6zXhOCkRjvohsAkYBQuo0dhRStsryrTLevtXPf9eT6uTfCCZxtKEjoDXfp9HfRMqLCycZkoNg+GBCnAZUuCFRIN+kQINCLnOnlNdcXl+jpDIrSzbtvFK3NB7L54Uups4Lp5TXzmwlogzBgdEEUw3ArIu4ZZFwhAotQijBKiZIeYdQD5aO629qnzr/9PqNFzdxWtK0RLtWS/V76baoASCQKSeD/QhQhkggIMXVwAJkSRH06PddzuqASiiBQdLoxw60OYWKw5D7Q3mbjt1Mb7rpel+9DoM7fbqL2e+57313fuu+ZzXq8T3of2HzmfdMm+OvWYoxG+9h69TUAhCWMFd1BQhiDEdrtryMTku4OUX8bQu9R5iW1XDfxrjC2ieZNdK2V0Z2vSr7CsetCpN9myC2cEoQ+1Ztu+r2KlIUwRvW3iLq7lKQsjGCuNSYSdIY9kn6XMEmQMsBqi6xA5JrF5ZjZzQSDhdCFfkKtl9KVZJVcMa23yuUV2WROOc9QBoS2lHlGHAt2DnqkA4uMKoJEEKUxabdPmg5QYc/NM4Y972jixsbNFmp3tSW0sNpGu//dtMAdUPuNe6QKFIoARUjoj9Ij19oQa0MwAUJ16PS2SdIBUoUEKiSMQtJOSKcfoqIKbTMXz6ut/3xvuKf898KKaG6nTdi8vpln8/f3hXsb7w4GuC/ddX8TVtcs9dSVj8fXBmGJkoD+MEVFhlIXWCGRYYck3YbutvcJd6q4qPmqfhw/Derlx2a6DfeVl7X2cr4dCkHQ0N4qtRxrFBDF0N0i6OxQipR5CZMso5CGqJ/S6ffo9gaApFwWiMqiCsfg8/GUIAyhJ5o14nUJ2/WQbQneTJ6VmmqRo/MCqf1uLWiC0BB3LCrOsSrHSuP3aYqdNVB1QHScBDchxrhFINIz+P1DHl+CNSm+1seujms4dvnrmVQXpU34hacShVpDsvUb0FmZEEQ9wqiDlE7TsNaFcw4ig5UZ2maYNVPlZmoXpn1sF/CO8r83/D7zt8tBy1D5Huleot6ETbxspruu19fuAP9ti/FjcJdPCIFSiigOXSz90CLCyjk0RhFB1EM2zix+baWQDUO7hZ71poO+HDV6NtB0F7SHbOs1ab3A1smtaxBWudR0Lzi6kgqiLirZIuzuIJMehZSUymACF+VFKD+1rAWBEYQVmEVOkWVo3+nZOwzqjjM2Jbj/rq4qijynLEoXdhjnmCCVJIgChHKRLayw4BGuwsBN6EvV+HLXi8xrp4bmyxtwC0F3pvXTTdjIuXHPjX2EkO5jQqKiyC08UQ7p2q+PlUpisVSmcuW/64X/q4Z7GOo++FHrf19ZWkxU01GtogtBECiSOCYMA+dXoiQqCIiimDBOkEFLUq6Vf8WOjlHv+/7dUOf+sKdasPag/6ECVJLS7w9JO12E9M43dblbR4kTmFVRUeRFQ7Ptarb5QKxJ8Lq+FqqqYrlckue5Y/CaucOQKI4QgWqGzkIKgigkDCOH1LoxfMfQgM/f+sxaRbxv2D3pLdDqgN8Gjsn9uRQQRW5hv5RgLVXlomSqwO0X5QyDtQV3868mkD/CjwsCKSVSuk4XH9E3ikI63Q5R7GhOSokKFGHk6VN5D0kPP7SlGjp9H0L7YPCdVhgQBPXil+ZOq+yiYf4sz1kuXawDWtJ7k2vqtD4GN1CVFctlRp7nGGMcg0tJEAZEsVte5z7uPuqiYPhphw0XoJqx1gvb3ITW9XrarJ0+BKtvzS3cfxZ83OfQLx11/shV5ZAVBAFWuCACzoK71me1JMod9fkj/F5BCFA1g/uOVghBGIZ0OilRFDnt0EvwMIoIo8g7Vq1rXz+ore4gqB/0vgZqXnFasNMmb3+sFoJOAxXkWeEYvKpcQNdW3k3GFrUEb8A6dTUvch9m2D3upLgiCEOEEq5HbanoKD/j7gtcf+wWvJUL2chwb6Z1uEOK3/UWV+ZakntZLAQY69UdV0eEWHk5vWcRPhx+tBe/A/5zffdtsOrib4Ef3q2my0ApRRzHRLFb3x9F7rxRzX8otF7RLtGdQuqHQO237svczBT4jkw0tFp/10nKsqwoixJjNri7pvGNVpb+TgPGWsqidCqApcleS3LqxXKe/qXbNXD1Apd74/cfHtrMXWsVDmmrsrWZX0pJEARIIRpi2kTgJrRV9lXz3PdQXaL6q+3fa6X9nvCu9/pjYwRqp7fVtb6xquE7Hvge0PqGWP1eNdVqTrw2tAU++koQKCcBhVzlb2mRb4PN2jSptvl+jyZ56yNNsfzL/TRebWdo6A5X+WaYax3tWgRVVVGWlVsYs9YS679qcIo9/puBizMFvkfxO41obSmKksVy2aiz+FcZbVx85fX3/oOCpmiyDqsToqTCWksQBHQ7XdJOSpzEqEC5jsD6J9f1c9cQm9ebr6xQvYJ2k28w2y34nlTVwH3Pvs93vw/cJqgPg/az68yNZ3CXBGCx1lCUBfP5nLwoEALyPGc2m6G19gKo/QqHT8coq1T/vvtvPUf7Gff7HdCUeT2tHrX+h7dxSy+tm2/dD6Jm+rpPbg0V2yKmDeuiV+LHPDXdujcZYyjLkjzL0C0GxzsjoO+Yq/wHCW0Euh5TSkkURYRBgJLrkqBG4Gaqmbz5a43XN/Drod147eNmuu/5D4HNd77nd6k7tbtgEwP3VvT9of5s/S5Rn7ujEO68zRy1drlYLCiLAmudzSjP/JjUurZxy44dNJ9Zg7uvOljH19tyfi+w3MJ9Y2Oos9QGXk9Xa0hYqSn+yC3mbrfMpm5998etG6eWZek2XvPMbL2ByjH9uxu8XYymODVd3YvJ9fK8JeO90Ixp8I1f5BRFiTZuQzljDEVZkuUZWuu18c+d8LZ7/yDh++NuDf2bqcWQHwybj6zocwVeertOV2CNodIVeZFTlCVa++lMP9VZliWVrtZF2z2wSYd3ff42fA/83QvCz0t7vqo0eDu1McZtjmlcR+Vo15PvnYV1F+q/9s07GPwO8MY3h9TV/BvWzZtXVeV8YrmfMdrlsawP/2iGgZsoblHT2sDono+0oF1N0UKSrSrIMvIix2jH3MYYyqIgWy4xWiNF7Z6z8bXmR32lneP9yvVHWIHDmEA24ZyFn7JtfjmJJd1iJQ0UVcUyzymKAl1WWGMQCHRVURZ+ftjc4oA1qO9s5mi33vp5u21/YBs3j/sAJ1VFURRUumqEkK40lU9YXAeHaLTERrO0K55Z/d9i8Tr82n2wknyewfMCs8bglqqsqIqyker3gq9Y3X51IRomb8D9cu+vM7T8ctq9wlvA+jlC43Qcd9FYytKpeFnmpHUdxaPICxaLpRvLbUQfocHD77Gh/wiOdepZEOuZux7pNkSxwruxllJXZLmbxi3L0jG4cManvMidJPxACb4J7RZeH3f/wDYX9X+eOquSqijIMjevLYRj4tJvolmVJVhQ0k2hWd8nWGvd/vatoeLdNXkHg7dBa0NZFl5FxxXU2pYEb/tt1x/1ktPjpeHX+rh2viqgoG6gFkLXyv92RDdZ/YnL7RBbVZosy1xn5XcqNcZSbEjwtkml+VpNaxskcHf6I7wNBKvp6jXmbtq95Q8hnATHb+NbVZqypTkK3J7vZeE1zHcIm/bdTda4v+Xuv/NecOvxlXq+KcGrSqN9wlo3B74pwa1n9NroC63arGr0XgwucHGQTKaQRUxgQpQRCKuxOsNoF8vM7evlfGusWX22ibhS7wPe7AfutbFNqFvTtnoE7miZt0BNQKuIFgZMjtBTqtxtb2RtgbEVxmiqUpNnGlPVq4Cc222r32lgTQNppya4BRghWsldN02kNz/VeEdCbPbKb0/ujS5ZYfya5M3kN7NvjpvJro53fGOlE65SGy91vddTXe82HlapYV6P40Y9v80J3hTt5o2tc13AaNClAB2grISqxBQLhF76/evadiHhJ4zcLqGratRnm7AuhYQVSE9Ld6aVfrmW6q7+do18eOWqxJRLTJFBaQlMjCw7UETYUrogxl5Fx9Y04w1vvtzOBnFXHRy8H4MbhV5KshuLWHSITAdlJLbKKYsJRT6FKnNIlbgxE/idGR35aWGohEYLF3mljsNSo9ptq+OQ6RC8gZq6Du36tI6bl1yTOsJxek0BsiDUY4rpCeXyCiUKggDCMCTPKsZXc5YzQ1UIjL7dTE3ZqInOh8T2qSZoLQVa1KlN5GCwVFZjBX6xjkSqep3wOoPVOHJ4qvUzFwBAWI2wdRRajcFtTF9R+lQ0SdfXrMtTJ2P9PtdoEBYhrd+Sq+bgOhCmN05aNyUqahXRGCqjKbWmNC5V1ro4BEJghfRJ+FT/dvtu10OfWltanTdXVkkIH3lWIURAVcB8WlAufYyussDmU6rFJcyvoViAKVeM0MQpFE3AxdvQ/qZv+1VzvF9ae1vdjdU4bOXRGhYTstkVOptjFiXlVFCOI7IbQbmQ2Mqvn6ifaZ3b5r8a7u6u3o/BraJawOJSIxYpse0itcCUGXk2Js8moD2mA28UaZXHxV3RPlUY9AbxerB4pLaYfLOCa3nfAcLnqzToHGRBYCcsp68olhcEsiKMBHEckWcVl+dTZuOSIsNv8ODR03Zqq8sohIvr5onXSPfbyLbUdue69buyllI7BpeBQgYBMlQIufIQbEIA1fixBtsO7dswes3kFdZWDSOXFJTWpap1bCdtCyrr9lW3QiOkdX4XdXLWLr+iyydvr7DGMbrRhqqqKMqSvCoptKaypmFwI6XDh5QbSWEbLy7ht/uqFxaLJsR0zWwO5U6KCykRQlHkhunNkmIBogSKApNNyKfnZNMLyOdQW9RXmPOpfre7535tdiobdNd+QZu42/nWMuuN5PcBqPscrVlMrplPztHLOdWiJL/RLC8Vi0tLMQNbSez90VIaqFtqdbaatn1PBg8QVYjIE+ZnhosX1+TTDGlLMEuKfMLN9Rl2cgW69JLIayHgY6UZHyut/rVS55vvcB/SWtBG7Aa4y44ooSXWVeA6n+kZy+sXVPMzdH6DruYUxYLlcslsMmd8vaTKA5Rw0WhWWsRmavU9t1RTl2oJvq6aAkoig4DKWrKiIC9y8qJAWz9N0tShbiiDsRprXTjnQAqiUJHEId1OQr/fYTTssb0zZP9wl/0Hey4d73NwvMf+8R4HD/Y4eLDP4YN9Dh8ccPjggIMHBxw+2OfgaJ+9/V22tkcMhwN6/S6dTuKWZIYKpWS93x5KCJSUBFISyJU3mQoDRKBASayUrlPzizLX699W0d2e27Cu7q8w7PHcutqsU7CKbFlxczEnn1uUUSijkdWCbHLK7PoUs5xCmTsm9++pWW1FdSumuJeo1nsGl23zvHmF13TWGLzyybtGS385WzIdX5HNrgjRdFRCVw6x8w7XJznZ1IBWzqJeuunAtuFXCrf5Yq31rONrBepf/at//a8bxrKwOJ3z+d//hvHpJeQVsjRYo1FSooQkDEIqtSTqQtyTaKkxRFRWIENFMuy4iBWmcGqoHwTXgRmUX63dJKtc773p+t3mp80BTeuaHyaxqoLL4HouH4ZZGrATuHjG5dm3jC9PMFmB1BKTQTFLef71lFffTjBFByEChGjvEd0qkv++kzOrcb7k9tisRZKN2iukQAaS0pRkVU5uSkoqTAA6tBSBpggrilBTBJo8qCiCijzQ6BhMR2I7EnoBoh+hBjFqKyHa6ZLuD0j2eiTbPZLtLsl2j3S7S7Ljfsf1cbu7dgyGCfRC6ASYVFJFUEaGIjQUgSEPNHlgKCNLGUMVW8rYUsVQRQIdgFHShb33I5u10UzdKtaxtbQuKX/eYLjVadbn1L9bDSAoCQOLQLM1GjLcGVGJEk1GYTK0CEj7Q8IkdcE1pXJhi9fGx3WgEEePq404NtTyVfM3t1svWf2uz9dmW+qMjhrrA3qJmb7k7OVnLMYviRAk9IgZcnOS8+ybMybjgnwJlZZoUyEDQRQFRN2Y0cNdnv7Zp6T7A7fkvaF8C40uJF0pjLHOgO27tvNfnvJ/+7/8X/nul19gx0uCeYUpckIFYSAZjToMHlQ8+dMB+58E2E6OiTvoqMNg/4gHH/2csL8PwQAtOlSEGBlhiDAtNK4xhT+uQ80U60iuGbhp/FavVR8FEFjrgkfbAuwSpq8YP/81F2dfMb28QBaWxIYsr+dMzhRf/N0FX/9mTGj2EDJ0G8vfweCbZw78l9u0IZzK7Togr1MI24zDSx+OSAYKFYVEaUSQBIhYIBO/ei+KiGO3tDUMgsapIwgCwjAgDEOiyElQGbr3UC8GarBUU6kr86a0BEFVlCyXGbry04baRVJxDheWPMsp8tL5QRdlEy+gKjT5oiSb51gtEAaUUCjhhEGAXO/wLG7Oe60jtEhba0Sr4JxGsNLFNu4JsSBJCzppyc9//oAnP98m3soRvTkLO0N29zh48qcMDj4mHh5DtANyiF5VvYGaHhu4j7DsJiO3nnkn2JWabnLysxdMzr7g+s1vKWfPCYsA5iPsZMCz34z59S+/ZTkX5HlAVYYYjNuwsJOQ7nZ5/M9/xr/4H/8lWz8/woT1GL/WmfzOQVY59nk/Bi9RwqKEIIoUyc6Cn/6TPR79SZdwpDGJZGZykp0BR09+wnD3KdHgGESfyiQY0cWKBO0ZWXhCExudYQN+/OfGo6uGrjHr8H6focTlCq11m6vpGSwv4eo5z5/9isn1cxdMsoyJdMrFyxtef7Pg+ZdjXn2zIJH7bqN4Pxi1rCzpdRlv/aYeDtQMXROpZ+j6KC2VcLFgtQSUIExiojQh6iYE/ZCgFxD0Q5JOTK/Xo9/vk6YpaZpSVRWVrvwii4AwCgjC0K0lVhLWJGebOlclrS+trgjvA7DAaOc0IqgNXk7jXCwWLBZLlsuMxXzObDpjPp9TzHOWNxmL6wXkAqGtk4tW+Ah5AmVcaHppnGInjWPyukN3dOC7Ir/2wZ17HNajy/qeEEhyhFggWfKTnx7z5Bc9dp8ouns518UJOuyzc/wpW0dPGe59AskDULtNnOFGI2jTXRtdm9fq85YwdhTpcORgjYJX0LyjAlFAMeb8619xffI5ev4aUZyhsojius/irMOzX8/57DfP0FWIJUFXCoMhjGoG7/HoL3/K//5//Jds/eIIEzgs/UAGr1yvKwRRoAhHcx7/yYAHn6aMjkOCoWIpZ9A1xP1t9o5+ysGjP4VwB8QQa/sY20FvCGT3zg3UiLrVDcZbld2oppZLjQ7QvGmDfBFAaA3oMWQXVKffcHX+jOvL5+TLC2QpEXmKyDq8/OqCrz87Z3xmmV0KlB5ghYu4af3ihbozWjtv1UV4ySqwnpl9GF1p/YYMFiOhkhYRB8g4JOp1SHpdOoMeab9H0IlQPYXsK1QvIO5EdHs9er1ew+BRFBFGoTM0SReIQ/pzUat/7cLhz5tO0SN7g8G1duM8o51lvHaVtH4p7Ww2Zz5fkC0zFosFs9mUxXxBMSuwCwMLSzWpyKYLlrM52WyByUtsURFoUMYSGJBGuL0AjJuRWB87rspYM/et5J2uBBXYHGsy9vcH7Dw2fPrnAw4/kSzEBVWQEA93GOwfs/fgTwi6TyE4ArorNbnBj4c2M7ehfd2TnMGiG1NdXYv6rAX1sxawOSzOyCZvOH31BbOLb7HZOaq8QuUpk9cJJ7+znHwDr15cYmyAEDHGKiwWoQRREpHu9BoJvv3zB+jINHNVP4DBtctsJUoKZG/O7qOYg6cpx5+O6B/GlNGMIpxRItk7+oSnn/xjwu4+RHvA0KV67+02Ato4aTjGzcmuGNxJvfWMtMYabrzRaFAWhJlDdgXj11x89zlXFy8psjHoJSEJ5SRgfmX57otzfvfbN1TLFJOl2CLFWOOttevl3SxqfbS1yVJYtDJoqdHKYBXYQEAgkWGAiAOCTkLUS+luDemNhgy2R/SGA8JORNAJCDoBYUe5xkxTOt0OSZwQx7E77yS3ifMW3EWt73wIwEUyrTRV5fwDdGWYz50hMstylsslC/+7XJSQW2QhWFwvmF6Nubm4YnJ1Qz5fUs4zRFkhSg2lhsq44IEWFAHCSKwRSOvWcteW84YvrJfeOA2pGa0LjdUF2uR00oDO3pw//csDnv6ii+jOsXFEFQakWyP2jn5Ct/8UlT6E4NBFIq0/8H4oWYEnB7fJhm7I1dFdQ7w+s1h5pFQaqjGL8+eML18wu3pFPjlD5DeIfILIYk6/hW9/M2P8OmI8zrB+51zrBtlYgQsOutvj8V/+zEvwB5jQNHvp3cXg72dk07ZhJKOhMDmlLtAYBqMh3X5KmAhE4NapShFgtDOgRCp2AZ/rrVRrWOuaa05vicXWFKAzVNZNbVZzt1RuqogKabVzYxAWYSuoZtjrE+bnLxmfvyGfTVFWEAcxaTBkeqV59tUZZ68XTG80uggxlQ+vjLNSrlbubIDw0kRKUJLKb4ejJZSBoYwMOrXYriQcpnT3Buw+OeThz55y8MlD9p4esfNon9GDXXYe7bPzaJ+9x4fsP9xnZ3+Hnb1ttne2GW2NGPT7JJ2UKA7dWLuWYsIX5BasMLZh4m3lues5ALeKS0pBEDg7QBiFJInrXHr9HoNBn+FwyPb2Fru7Owz6A5I0IU4T0m5Md9ClP+wx2h4y2h6Q9hLCKMAKQ2VLFwFVGoIowFhBUWofvtqFsJbKL9dt475xhllpULV/h5QhBAVhCjLSdPoJabeLtoZC5yzmC8rCEoiIUIWQxM7rsnLMsMaTbTTV1z0t1nlcFjeeXr9V47r1IlFBlcNiQn59ysWbb7k6eYkoF4TaIEuLXhTMLirOX+WcfjdnOQnQWgAKKwQav07chxQLOxHD412e/qNPSff6WGW9S8YPMrIZhHWjKqMtlZpBnNPfCfnpnz/k4U/7DI8sdMYsygUy6hClA0a7R2zvfELafwTdh0B/ZWWspxRsjUg/hVC7m8uVKuRmg9vE6twVRGORBWW95dxaKEtYXDE7ecbs7DsW16fkywzl+1lZpTz/+prf/O1zJheGxdhgqxiqGGliX5yVwlWP2SyurHXEF0eQkkq7VWkEApsaZF8i+5KgF9Ed9ulvDdk52GP36IC43yXqdRBxgIpDkl6XpNeh0+2QxhGBlIRSIOXq+3V8cF1pKu2Iy82Le/3GWrcqrp6vbhEFeOnnaU8IiVLSBUmQbuYZ64IOCHyMMx9QQSqFki7Gdxu0dmUx2pDNlkxvZuSLjGKRUyyWFIuMYp6RT+eML66ZXl4zubxmduNC/pqiIrAh1cJSzDQRqZtuExIppJ9zd8OFlRedO4qaAqxBG6e6yu4Vu48Fhx8FfPKne2w/GJKzoJBLKhHR6R4z2vqIrZ2PifeOfcTVEFS0mvh3rb6qZP2zdQk/VDSUWBeJ3dFgQ5eOMRs6rTJYLlleXjG5fMX12QsW41O6AUTGUs2XTM8vOP1uwsmzkjfPCvR8y3nbSYFRUDmqQ0oXySbd7X+QBH9vBpciRAnnwmlUjlYZQQf2H/Y4+qTDkz8ZkmwtWeoZWoBVkv5oxGD0mN39T4l3PgE5cHPS0nNyvSvDyrsChMBI7wklV+4e1iPSBa53Uyyu+gWi9rYqCmxRkM2mlOML5uevyK9PkUVOVVjKXDMdL7k5X/L6+YQX31yRTQOqXCJMgrQJwkQtVd8h11l0HaMbgfPc0iUyDAkit9eVDCQyVgRDxeh4QHc/JR2l9EYD+qMRvWGfzrDPcHeb4e4OMg6d1TtwWoDBECCIXfxMAKw1bpVUVVFVJfP53EmksqQoc/I8o8hzirKgrNxSSVPjwhNGzeBlVaEr4y3wLhZ8GIQuio1Uzr4SRm4o0OnQ6XSI44QkSUmS7i1Kt9ZitVufXeSF0/KMxRQVOi9Zzhcsx1OuTi+YXl2TzRbMxhNuLq4YX10xu5iTjyvKqSGsEpT3/5eANRZh7S2p3UhvLy81bvGJDi8Y7Bt2jwM+/bMDDp+MUF2NSAtQgTPy0mN79zF7R08JR/vQ23FbWWvr3WD9TrS1hKmh3bl7BrcUWMqGqYQ1CFO5gJ4icMxkK5hOqMZjzk9OuDl7g9IFUueoqsIsNdn1gvPnp3z92WuuTw3ZJIVi6PwnJGhp0aLueL8fg7+Xim60dUsopXSSReHkp5VUxkkPF8QwIAoTBMpHfSwx2jnLR9YgyiXCZG7qSlSrObJ2Tynce900lfuNl7zKexMrtO+RSgQFVHNY3JBNzpnfnLC4OSG/Oaec3mCXS5QWVJlkelVyebLg9fNrLk5nTMe582e2somoLoST80478ATlx0DOgcVtT1wqIAkhiejubjE82qO7v8XwwYj9jw7Zf7LH3sMDDh4ecnh8yNbeNv2tAaPtLQbbI+IkJAoUkXSzsEYbdFFQ5gXL+Zyb6xsuLy45Pz/n6vKKm+sbri6uuL66ZjqZMZvNWMwWLkBmllNkOXlWUOYlVVFSFW6VX1VWVGXlprkKZ0gzlcFUFl0ZqlJTZCXZIiNbFmSLnOXCqbaz6YzJeMpsOmMxX7CYz1kuMzdFVmmsNUgpiZO4SUmakPY6RElElEZEndhpKMMu8SAl7EWIJESogCBMiFRCKGKMMU4z0JXzaBNeLbfOMt9mcoRzqZUBCKkRqkKFLgiolAEWUIF0PCvrdeRLIEfbDGxOJCpslSFs4Xf+bHWIwjbCpu4q211mbbGWnhadR2Hlp2QzyG5gfEZ2+Zqbi5fMr1+Tz278PjsKk0F2bbh6s+T8xYKzFwsWEwE6RtjISW9Pb7Z23/UhxaJOzOjhDk//0U9I9/rYwGkRP0hF14VGCoUSAQKFlatdQwkq4kHFzoOIR59s8ckvjlBJzry6gGiJCBKSzoiks0Xa26LT26LX30L1RtAZQpCCCcAGrke1joWt3yzOqequv5aUSAoEJdIWrtBCw+SSyeUJ0+tzpjcXUOWo3BJWAlVa7BImN4Y3Lya8fjnm9ctLFrOcsrC+p4tbKXLTOMYijUOZ9vXVfu9xHUpsqCAOCdKYx59+zIPHjxCxJO7DcD+hvxPT3+rQHwzoDwYudrx04afdDpeuRzPGUpQFy8xPQU2mjK+vubq6YjKZMJ/NARf7TnoVNgxDojAkTmJnWQ8DR8jNyqIVsdZjdeGZxjmKrJYBg6Aq3Tx4VVVo735aVW5lljYGY1zkm26vx2DgO6nBgG6vy6Dfp9fvubpo3cSap9JURYGpKvJlxnQyYTIeMx1PuLm6Zno6Iz/JKc5yZi9mnJ+esZzNKbKcbpIQqRBTVqDNralVKwwqEqhIYpWFoISwQoQalVb09yyPfzJi60gR9wRhqlCJwipNSUyQbhN1d+hvPWAw2iXtb7kdeYh8cnvbWwI/GHQag28xhM2RosRtrVkLGw3VApYTzPUZ1xcnTK4vmF5foKhQJiGmi9QxyxvNzZuM55+fcf5iyuQyoyyt22rLhk6QyBXdCZwHYRwnjRW9luA6/D1Y0XWhnZogFEZbtJXIMEHICC00Ms5Iepr9h30+/pNdhgeWZJgjkjEEClSIDCLiTo84HZJ2t1zqbSPjIQRdkB2/I0UMInIS0wlyLFBRQrXAFHNsuYBqjqgWCL0gn12xmFywnF2ynF6DzgjKkNimyDxgdllwcVrx+vmck9c5F2djyrJwU00CBDHYCGEjsJGft3VzuBZB5Rm7ltzJ1oDu3jbRoEs87HP4+Jjd4yPifkJnIOiNJN2hpNuLSNIOcZKAD5ph/PLUvMjJ8oLFfM58vvSx6DMfGstZq/PcRZ6ph9NFUVIWpdNnRG0ncOdGa4qycCG0PHP7Wx68JuSDZ7bdHpsOQLoOxGlq9fSbO1dKudDEsetYQu+A0+2m9Ad939mEdHtdOt2OsxFYCKSbx53NpiwWC5aLJdPphPw8o3xTUp7kLJ8vuDw7Z3x5zXQ8hspgy4oyy7Fl1TjJ1ExuRUWQSIJUokWJwYKSCKWQkSEeLdg6tGwdwdZhRG9LkQ4EWs3JqgAbDiEakg4O6fW3SbsjYr/9VhD2CeIhQnSxxBiUZx9vIrLWaaF6idAZVO4o9BKdTcimlyzGZ8zG5+TzG4rFmDiAiC2qLCGfBly+zrl8UXD2bMnsTFAsDcZWbvgudLNIya2+9NqrUsRRTGe3z+O//KlzdKlV9N8Hg+PnLfO8pNSQdvqEUQcrLFou0MzpDBQ7hzFPfrrNp784IOrlyNBSmJzKlsjI7UQqw4Qo7pJ0R3S6W3T628ik73aEDBO3cRzefzwUrmDVAr2cUSwmFMspZTYnn92wmFxBmSEpsWWOqZaYIkdkMYkZYBchJ89uePVqypvXC64uS6bTJVYYwlC5oT+B87e3XpOox5hePV8xuKWUcPD0EU9+9inDw31G+ztE/Q7JoMfW/hajrZikA0lqUbHy7q7O8JfnOXlekOc5V1fXLl1ecnMzZrlcYoGuH/8mSeo2Z1DKSdWy4uLigouLSzcfvXQq9Gw2I8uWzP38dFWWawxeg/bRa5QKnBEtCAiUi0ja6XYZDUf0+n263S7DwZDhaOTK0u3S7XWJ4pg8z1gsl8wWc5bLBVmeoQJFmiZs72yzu7fL/v4eO7u7qEASBgGRSusSUFlnJ1gul5TXJcVZTn6WUZ4XzG4mXJyccnFyxtXZOePLK4rZEpMXa95wzuvN+o4mIi9z8qpChQFBFNMZRMh0Rm7PGOwanvxkj93DHoOdEIKMEkElQ7QMIUiQQUIQug00u70tev1dtztpOoTA71BqlZfqBZjMpXyKXs7I5xPyxYwqm5HPxyyn11TZDFMsEaZE2JIkkCi7zfjccHFS8N2XV1y8XFJMIswiBa2wwi+3FtpL8NVaBsfg8sdg8GzF4L6X15VBW0EYpaggcgxuc0o9R0WGpCc4OB7w8KNdtvdTtnZTglQTxBVW5Y1BQwYBYZQQxilhkqLCGKlCVBCiwhCLwPhVTlZoijKjKnJ0nlOVBaYoqfKcYrn0apxb4WS1RhcldpZSXgcsLyVXb5acXcw4v1owmVUsi9LtfxArkLj90+pu2kAhDKUwlNKilUUlEUm/S280oLs9Yutwj63DfXaOD9k9OiDpd4n7HaI0opMIkkigQuO6/LIkWywYTybc3Nwwm82byDGVdzApyoIsy8mWSxaLBUXhglGUZeUie1TaOZxMZ8xmcwofJCDL6sgmBUVRUOS5C8jRGi3WUAcHkLWU9k4yLuikM6zFiZtvT9OUTup2D4njeBWHPAjc1FkYEoQBKghIkpg0TQgjt5lEFEVEcUSnk7rOYjhkMOiTJqk3j7q6iEJQjkuy6wwzM1TLnFffPefkxSum1zdML68Zn18yvx5TLjJsWSGMJRKKMIgIVEIYxM5ekGdOWwkVnV5EkOYU9oaoW7K1m7C912N7v8doJ6W/1aUSbsWdFhUW6TahDBOSTp8k7REnPYIwRarIWX2sM+sKCoTNwebocokuHQ3qssCUJTov3O+ioCpytyTUGExVUS46vH6+4OTlkqvTksWNwWYRlCnCylY8hapZkKO9JyV+E4g4ju5hcOuZWzf+9e6db2XwLzdUdOf4IYRESG/LFm7XCW1LijLD2BIjSjrdkP6ow5OPj/nkZ3ts7SmGO1Bx4wId4gININx4yli/KMQvxmhcwIVbaGpsiTYVVjuRKozf2M3vImorga6sq5SVVIVBX3c4+ybj+rlmOZbcLJaMF0sWlaa0BhUKwjgA5S3ylYsOa6qSmapYqoplYChDS2/Y5+D4iEdPH/PkJ58QdlNsINl7+IDDhw/obfVIYsgtUBkS5bUOXZHNplxeXnFy8obXr19zM54wnU4ZjkaMhiMGgwFJkpIXOZcXF3z55Ze8evWaq+srrq+uuL6+9k4nnlFds63+r6fzhJtauw9WY+5NWOnxdbfg39hcF0IQhhG7uzscHBxw/PAhh4cH7OzuMuj36XQ7zGYzrq+vGU/GzOdzRqMR29vb7O3tcXB4wPGDY8I49YTW2ohv4R3RDbz64mtefvsMnRUsbya8+fY55y/fMLm4pJgvEdrQCWK68YCADtIkzCcFs8WUQpdYYUi6IVFiEWGBEUtKvWA46nDwYIePPn7Ixz89RMsJhbmhNGM37eg7vDCMEVKhjV9u2bIAO9yUTopTIKhwDrku1dPIkgBdGoqsoio1VaGZTReMLwVff37Jq+8WoPtIEyFNhDChjzPglvyC9sLNrcqzSO+b8C4G9xZ9lJfi8l0S/EvszZJgrtGlRgiJlH4m2Xt4ud7FGXeM1s1+XmEUkSQxo60tdg6gt5XR38robZX0+ilpNyKKpd+D2yVLgbUlxpZYSqwtsFSEoUSFwi1+0AqrFdYEWBMiRYqSHapCkWeG+axgPiuY3GRkZymLk5j8vEu1iJnpjJnOWNqCSlSgLCLAaQmmQurSqVRUzBND3lfY7YT+0TY7e7vsHuxy8OCQB48e0hn2ibod0n6XtNchSEKUCt0S2LIgu5myvBkzvb5hNpsyn88py4Kyco5AWhtuxhMmk7FzAc2WaG1YLpdcX18znU1ZLty4vL7nhgwNx63Gz635+vuZ+P57K3OcG5Ks3WjxuVSKNE3pdrr0+j06nQ5p4qR0/buTpgyGQwaDgR/LuzF8FEbOIDcYMBq5Tq3T7/nhC5RUUFTMrm+YX08oZnPmlzecPnvJ1esTpudXjC+umFxcQlER2h6JGJHKLbIJzJczCp2hbUUQS5SyjoaEW+uephH9foe9/R0Oj0Pi7oy4OyPpLvxingCpBFq7ZZ0qcEtkG+yIOjRS4emycMJIRCgRI2WMFAlWh1SlYj4tubmZMxkvGN8smE1zZuOQ8aVkNo5A950+XO9Aim3W9DvXFumDpTghKrBIJYnj8MdjcKfO+U3Mfcu7GbqWJcc6QnHSRPqVUnPibk6nX3L4sMfh0S7bu0N6/RhEhVQVUmksBdrmaJ1R6QxtcqwxXnWM3fSOlmgtMVpiKoUQCYHqki8ti3nBxcWYi7Mxl+djpqdg5z3EvA9VSlHHOhEaLTRaVBihKSkx2lvk0cgQqp4i2OnSe7jDo599xNHxA7Z2t9je3WZ7b5f+9oj+aEiFpTQV2rpV7kJAtVhy9vIVZy9fc/bmhPlsSlVVJElMt9cjjhOiOObzzz/niy++4LvvvuPs7MzJzWb3GDcH7qSIJy5jV77YPozwykj2btjMZ6HxfrGbDO6/u9a2Pr+x9b7dLvBDkqb0+30ePXzEk6dP+NlPf8rHH3/CYrlwfuvTGVmWYbEMhkMeP3nM3v4+w9GItNclDmIKnMU9VgplBYubCbOLay5evuH65Izp5TVnL1/z4ptnLG4m6IWkq7boh7tUM0GWLSiqnEoXII0LL6ILhDQEgUApgVSWTprQHRhG25LRjmRrN2I47NPpJKhAsFzOAEPaiVCBcAwhvEOR1U0y1rW1IER6Blcipiol2dJwdTnj/Oya09MrTk+vWMwLsnmAYohkCCa9xeDWVj7M1IrBrXDHFYNHdHZ7nsH/B7fY5MdkcHycqAY8PTQrf6zFiAVRaohTTacn6fQiuv2Ybi+m2wvp9iMGw5gwMo7hZYVQ2p0LRRR1CIOYItfkuSHPKvLMUOSGPLNkS8NsWjCdLJlNM2bTDF0JyFPIY8gTqEI0Gm01pmZwKioqCltS2gIVS4JEkQ5Skr0BB58cs/X4gN7OkJ39XQ6PDhmMhiS9DkEUIqPAzVVaw2Q+ZTKdcHNzxez6hsVkii1K4jCkKkvmsxmnpye8fPXKxWPXmuubMePxDZOpk9bOmO07zJqp7Sr+lmP2muFWzN1mXFu7q90BH8Tg9cXaUu+1hJq5tdYYP4UWRRGdTofBYMBwOHRpMHSurd0eo60R/X6fJE0J/CaVQRgSxBGjnW12D/aJkpgkdF58ygqqLKeaLVneTJldXXNzdsHN+SU3F5dcvDnl4sU1MosIyw4iC6mqgqLIKcoMrQus1SiFW/mYhEiBs1JbgxUZcWJJUuj0FGknptuNSdKQMJR0ezFb233iRDmmEK7jd+6pEikUQijyrCTLKpaLkizTFJkhW2oW85L5rGQ+y5jOHD1WJegqQJIiSNyMzSaDU7nwW15Fd14ffjWjAKlc5KH1xSZH6NDJ+trI9v0ZXEikClpePu5YM7I1XnIrJ4EMlrKqKKucKJYEkcRSgqwII0vSCRhtddja6bC71yNJQQaaILQEoUUpjZQJgeogickyTbasWC5LsmVJtqiYTnPGNwumk5zZdElRGMrCksRd0qCHrRToAKGFd+3UYA1G+uBGtqSkJKcgHqYkoy6DgxE7Dw/45B/9lL3Hh4g4YLg15PDBEXE3deutjaGoKgpdUVYFV1eXXFxecHZ2yuT6miovSMKQ3e1tdFVxdXXJF599xt/93d8xnk5ZLjM/DVXvWd4WlDWD1wxbM+EK7xbfGbTUc37fDF63cD2ttsHgdcjpIHDr1mvXV+ONBQf7+xweHfH0yROOHjxgOByCkszmc0qjQQpGu9vsHR7SHw0Z9vvEYUSkAmct1xZRVBTTOTcXVyzGE/L5klffveD55y/ILgqqsSXII7SuKPKMosjIlwuMqUjjkDSN6KQJYNG6JM8zsmzusCktQSAJI0GSBnS7MYNhytZWj929AXHaGkLiBA42JFAJUsTMZzmzacbNzYzpZMF8VrCYFyzmJUVh0ZWgqqCqcAFEcB2DEM65o83grgWcga2W4M4g6T0+hUVJ6YyXuz0e//Of8i/+T/8DW784xAR4A9sPZPB6DF5LcEdajmi0rsiyHCEEUez290IIyqokL0unlkax8yi3ThUXqiJOJGlX0u0pglC74FqyRIjKndsIKRIEsVsXawTWSHQFVWkpckuWad9DgjUSaxVSBEixiooqwAcqNEhrMVJTCaeyV1JTBIb+4RaDBzvsPz3i8PEDjp4cs/Ngj96wR7fXI+qmjZtxVZRkRc7p+RmnpyfM5jOybEEcRQhrmY7HjG9uuLq44OL8jLPTU2eAurkhL0rKqnLuodI17oqZWxLTM+Qa0/o569WyyXX4fTM4uJvu0fp5n89nXmke7liXwTnA9EnimE63y2A4ZHd/j+PHjxhubRF3UjSGXFcEkbPWHx7ss7uzSxLFJCogMAJZaXReks3mzMYTzt+ccvHdBRffXnLx7AI7FRR5Rlm4GZX5bIauCtIoIo4CoiBwtgBr0bqiqgzWuYg5m5J0mqMKLJ1OSJxKwsgi1co+5CzcJdaECGKsCSkLKAtDkWuKQlOWlrJwyWjpaBFHj0L4MrityFyH3mLymsEtlZ/Kcca1ZnEGoJT4AzG4l+COYFyqqoosc1MVcZygArcIo6zcNE8Ux4Rh5PzKbUlZZmjrxkgqsIShczl0FvMKa0ssFdb5qjoPZeGt5nW0FS0wxo3HIUD6MEtSBK4jsO0dIaxjbiwCz+BSUymN6oTIfsT240N2nhxy9MlDHjw+Zmtvm+HOiP7W0E2B4to5y5bM53Nm8zknJyecnp6QLReUZeGlBVxdXPDmzWueffMNb9684fLiHKM1Kgiw1klC52zSZnCDxa25d7iu8VszYW1Q2xgWtaDNtJuwyeC0OoT6/80n3e16vYBriUZz8Mn6hS7Wunz1W+LIdfRFXoCAXr/P8aOH/Pwf/SlHxw8YjEZoLMuqQFsn9Y8OjzjY32fQ79NPu3SimESFSCExecliOuPm8prJyZiTr17z6otXLC8WTG8mZIsFy/mCbL5AFyWRUkRSuThyQqKEW+BkmpiVtbFYU1U5Fk0UOYbXOsNQgtBujlk4Fd3aevMBgbHCdxQSaz1Dt454xhayPvq29YuIHAM6+lwxuFPR29J7NQb3KvqdDF7PgbemyXALKN7ui55VyNKp365B62kDGubGE4+UzrFBSb9Psxedbt51NSa3FjctIRVSREgRgo3B+KRThOmA6SFw0ruOkSYI3BSLUQ6JfumJEM731lHlijClcl1mVZVUpsRKtz6tFBU6MJhYMDra5ujTRxz99DFHP3nCwScP2X90xHBnRGfYQ4S+vgam0ynn5+e8fvWaF989p8gL0jgGaymyjGfffstvf/1rvvj8c559+y2XFxcsFwuMqdeX1x2Ww0EtGdsM40IDexRTS0+Xr2bw+0D4trgr3QXNvUYjqP8cHpvSCv9b+vv165rOpP6OI+J6Sasxhqosqfx4Pc9zrm9uuLy64mY8JggDDh8cEUZuTFoUBePphLJyQQbr1XoWC1ISJTEyDFEyIJAhSZRgtWVZLFlmS7J86faxD9yab2stGDe0NRpMadGlQVf+t7+HccLDGoWt6lmaCBcELwGdgu6AiRE2BILWtFiIEKFbjCVdCpQro1LKbWjpecAlj2freKmer0Y44eMWjjjmbo4CpBSowMdkO97l6Z/9hHS/5zR436m6o3uubrcPY/A7mLtu3NppYkUv7r70hLySFcIXwG0wgPcBx9RI7DrmNn0EkduEoGYGF0GhUV2cOrLZ8TiwrfDDRhiQ1i1ICARaGaJBwuBgxP6TIw4+ecjhp484+PQhvYMteqM+cS8l8PaEoqy4ur7i7Pyc09NTxuMblvMFRZazXMy5OL/g9LWT2N9994zz01PGNzfNVk81U6zQ4vHXSEUaydiuhstaY/3dDP594Xaruq+s/a47i9Zz7pavm1jvXKxncK2dn4OxlsKviJstZszmc7Rxi1XysnCdv9dmytJ5+xlcCCwjBDIMiYIIEblFTWEQ0klSqJcStxaBVX6XE1MZBLKZq0YLrHaS17oli1grVx6MJsSaEEzkGNukCJN6muy46wQrBrJ+gZKXmpIAKd3w0DF1e7bDYbXmI4Efg7dxLepdVVvM7TgYIQVBoNx68Ic7fj14D+vlgRehvmwrfvgABsepNGsqOi3yaIErbUMc7qSdX7QqoDzSlHMXxbvaoRrnF4R3hEF5pPhK1GF/2sv76u9Zg9YuKkkYSqIkIEgCZCQxsWDrwS5PfvEpBx89YPRwn8OPH3Hw0TGiE4LELeVEsCwyLi4vePbsGa9eveL87AwlJDtbW5yfnfH5Z7/li88/58svvuDi/JzlYkFVlneOh2297BSHHzwm7kIhNcbaeHaNsJ7px4QWw97J3Pjybdyw1Npao065JrFu1qEoSqazKWdn53z9zTcsl0uSJGFrNGJ3Z4fJeMzlxQVF7jYTjMKIJEmIVYiUkiCISMOYXqdDEkV0us6lNooj5vM5k/GEbJGhC00oQ5dU7JjcePXZtujMG8BcL9HSDHHnLo/0lOskLbD2DmHrYeTqj3bzNW3t6LVm60bzxNN6na/N+n8YBvcqpk/NxzehJkJB6/4dv9fOPNKEn3cU2h9Lb+hYFd4hx/egrAdEbJdG4Pa3kcISRSEyklTKEvRihofbHHx8zNGnj9h5fMj2wwOGBzt0Rn1EKBFKYqxhtpjx6vVr3rx+zdXlFQs/vlvM51xeXPDtN9/y7NtvOD054erykqosXBxz41YNu5qtCtew/AYu2kSwCWsd6Xsz+O3O5X4Qt/I3X3xbwWq4g8HXYK2TcL2cNW6de7bMmE6n4H3MjTbYqsJqTRyEhEqBsVRFidWGMIlQQUiohFPTVUgUBCRx7C39ziMOA7qoQEMgQxQBCoVwkS/9uNmtXHQ6bq0m+7o0QsUghEF4H3FHi25eXOB7bM/81Mza0iZXeHR3mx8t5m2uNwxu/ZOt9IdhcL9Pc120zd696eVXhfI1Wh2bazV4laRWTRrmbiVZS2/3bsEqYF/7datzX1HhgkOEUhDHITaAhclIdgY8/Uc/4fAnjxk93Gfr8QH7jx8Q9hKMEgQqJJCKZbnk7Pyczz7/nNevXqOrCiUkcRTx8sUL/tN//CtePPuOq8tLFvMZZVm4qSLlI5K0JXiLuWspXpf4bUzkbq3w5/Len381ZfCB6Q54W7nW4A4Gdz89YdZB+hvB4MfpfuoNazFVxXQ84frykvH1DYd7Bzx++IhQKco85/L8nGy5JI7cCrYkih1PWYEKQ9IkQVcaawy9bo9O3KFclujCuGlsv5BfaCe9rXV2HIHT0uqyNgzW0J9jbiGcpd29bMXcgtpQtmKqhjI9Tlao8R30P2QGF27jKlfcO8a9DYj6v/p+69g84ojRSW7rkVhL7hWCV6+Rfh9p6Rm8flWNFFzX7UW6C+VkCLAEoSLoxwyPdtn/+Jj9j4/ZfnzI1qMD0v0h8aADocRKS2krZtmcV69e8/rkjZ92qdBlxfj6mpcvXvDsm2958fw58+mUPM/QlXOiUN4XvK2aUqvlvsArtveIuE/1pUZXjbP3YfD6pNW5vBPe8r73gTsY3F13ZRc4WpHKByzwC1LiOCaOQuIwIlABGIv1U2JWa4osw/owznWcdmew1HTilEgGEEr3falc5FalCFWAEgGBCAgIqHJNlWvKrEJo6Y26zpDmVizWjOfsNk5CbwqZ2rrtNU2/IWFtC3JqvWdE3zGuM7nv0lsC8A/F4PUA4PcLd9CX+9zKXQMaXly7trpSOwL4sXmdTIC0Lrl7bvxjrQ//bi2VMJTKsAwM89AwDSoYxjz6+cd89ItP2TrcZXtvmwcPDtkaDAiFj+diIZ/NuT4547vffc3rZ8+JVcCw20WXJa9evuQ//dVf8flnnzG+uWGxWJDnOdo7bph6ysgz9NqYu31sM32L+e9AxPtDjcy7kN+CDdJpwduf+1AQrf+EcOuZoygi7XTo9XoM+n2GgyFbwxHdtEOoAnRVMb654e/+5m/5n/7t/8R3z55RZBlJHFOVJV9//TXffPMN5xfnbgWZqmM0CNKdAVvHe3T3hwwfbPH4Fx9x/POHxHsJRVJwY64ZixvycEkZ5BhV+CFgiRUrv3VLvdtqzXBNRaChYDcS34QVs7rj+u9NjPu7a2i/nX/VFXw/+CAJ3rYK3i7wCppOvTX2qh9pqlBfbx7y/9W9IaIxdNRGDLfVkWN66TnICUoXS7uOSV4JQyENOpYEow77nz7i+Kcfsf/RA3YfHrL/8JDt/R16g65bWABkiwWTmxsuz864PLugXCzRRcnsZszrly/55ndf8eK777g4P6fIMmi23HEr4BA0ziIrae1H4n6vNl/xBhE1jtrgbjuENQTicXOvBG8I8S6w7tl7srm3rbfTnan911K5uV2FBqRfhVZ7ugkhwFq094YTQBCGbjqtqpy/vXVRXYUQ5MuM5XJBGDip3+12CILAWeC1JgrdFKVSCqEEBAoZKoI4QMUKLSqW1YKlXjDOxpig9OtbjKMui5PO9bbK1Fqju38b/Di/aQeXWqhon7jk227Vfl6V99poY7xrpslc/tVOtu59QoL6MSW4q1O7cu8Ar3q2czviqAnG/67/vNrj/lrjGqsQJkDY0B1NgPRHYRXCKERtOMEtsSsxLKWmSBVir8fuL57y6M9/yvaTI7aP93nw5JjB3ggihwplLPl0xvXpmVvg8OYUpQ0xgovXb/jdZ5/z67//Jd9+/Q3TyYSydFtECj/Pj2dmYy3aj799v7PO3DUeNhhk4+Y6mu/I0sCalGFTHLR1ho3r69B8pv1Nn5p2WmP2jef80H8ThHDulUmaEAYukEZZVeR5znKxoKij0xjbbHhvtEZJhS4rvvn6a37z69/w+vUryqJge3sbKSXfPX/Osxff8ersDdeLCbmoqCKB7Id0D4aMHu0wfLTF1pNt9n6yx+BJH7kDeS9nEc4owgUmyEG5HWetKDGUGOHCcVvqKdZa7vk4gWuS2yFjrZ0aJLR+rDGqu7b63/HIWj5Lw9wrDnpnE94LHyTBV+PuulhN8dZBcIt4156657EmVzO+aU1j+DG4tPVYvB7Q+u2CpA/rFgpsJKAXMXp8wO5PHrH/6SP2Hh2yd3zAaHdElMbengDFbMbN5SUnr19z9uaN6/us5dnvvuazX/+Gb77+mpPXr5lOJlS6QgqBEq77Efhxmwencq+2L3Js37onWnW8AxzaWo2+BndI8Ob0rtZfMfcKVyuSaacG7vjwqjT3lWsFm+0qpCSJY1QQuDhvZeWGM0DgJbrRlQsaWbgpMe1DUJdlSZZl6NIFt1gsl2R5hlSKnd1dhJJc3dxQ6AqNIUpjkiikEpaKCgKLkSWFyahkCZEls0vGN9cIDaGVBMZF7kXU8Qlqe1C7Pg5LNeaaY51nVd1bUKvzdS8gWuc0tqRaxq4PCda+5+MkqED+eBJ8rSpvq9X7gO/x70xr95r+0/vo2iY8jVvOojG+cYw0zgcmlASdiM6gy+HxIU+ePubwcN8FK9jfoz/qOw83rbFFyWQy4eTklPPzC66vb5ooKd98+y2//NUv+d1Xv+Pk5MSFVDKmGaY0PaKv0DpDu3u32M5fuFXnDZTeeg6X4c7rd8KqXM3Rl+8PDXWcN2tss6GhtW7aVWvNYuEYtyiLJi19ZJs8z5lMpjz79hmf/fYzfvub33J+dkYnSbDacHlxwfnZGeenp+TZ0n0Pp+J3OimjrS32Dg54+OQxn/7sp+wdHmCVdLH1hKWSbr840zRATWu1MW1Vj5aAXSXfka9dayVfoLXWWG+B1sNrVHAXVXw/+AAGx/cnvm9pVMnVmKxRPd9SsObOJjaaiq5fqJnbKUf1srh6vtztcmKEAQUidLHJO6Meu4d7HB4/4NHjhzx89JC9/V2iOAILpqqYL+ZcXFxwcnLCq9evEUKwt7fHyxev+Pf/7t/z4sULsmUG4KZm4pgodEsPa6voqiLuWLdT3eibOfzt94JNtDTveOcLVuW5/7iZ3ue93w/qteNCCu+66UiurEqKoqQoS7T24WoArHVx3/Oiie66zDIuLs756osv+eXf/5K//uu/ZjIe8/jhQ6JAcXN9zc31NfPlgjx39hEVKNJuh929XR4cH/P46VMef/SUhx89YbizBVHgGB23Bx4t4SqoY7I7+lvD1tsY/a60qtnGuGuTmeum+P02xAcx+O1v37oAdT3eAu+47aHVmwrbSO2awYUP+2TQzsdcWQgFMgno7ww5eHjEg0cPePDwAXt7u3QGqbO4WhfRdDKZcHZ2xtXVNfPZnGyZsVxmfPf8O3772884P7+g8AEM3Ub3jjhXZV+pVI2aLloMs0EQbNT7rqb+4VB/+13HTbjv+jqsO+e9R6mt27xQGxdPIAhd3DYh3AKlerMGS+13rhB+yanWVfMFXVXMZ3POzk4bf/+TN28QgNWaMs+5vrzk9OQNs+mEsvLtFseMtrfZPzzg6OEDHn/0lE9+9hP2HhwS97uIOPThv92YuzF0ucK3KnKHpPYNt97it6H9zG24iyJ+v/BBDN74C4M/enfEe4r/NtgkcJfqUcsKyW2p7ebKHWPXVk+NC+BgWgw+Otzl8SdPefjkIfsH+yRx5D7ghybz+YzLy0vevH5DUZTs7O7w6tUr/s3/+9/wzdffsFgu3Nw2q87K+ggmrkxtcHVvK+cNvK291qhlNTT54XBfW7TV9LeT3S2wrLjbAs0Y9O0ltl4aV2VJoJzHWRLHBEo53wKtsdai/D03Nx65bYxUQJIkpKnb1igMAtIkpchzXj5/yWe//g3/6T/8R8bXN4wGA64uL/jy8885OzllMZuRF7kLpdzr0N8aMdga8fDpE/7xP/0nfPwnP2Pv+Ihk1IdQNYE7LG78Lfx2WI2m1nTkb2H0e9LdKGpfbGnF/ldzv/58K/eHwgcweIsYNujjltv1B9DO/dBi8qYT8WNvobFCY5TGBAbtU7rV4+DpEQdPjjh4dMj2/jbJIEVGq2ou53MuLy+5ublmmS2ZL2aMb2549t0zfv2bX3F2dkZZlk3gAlcEF8vcObBw1+i6gbWmq4X8/dn/gPAOMqk7mY3U3LSrhhZ+1ZiSgkD5rZDCkCAICZRbUShlbURzO5VaYxDCqeluf3O3dVIUOu+0MAgJVUCgVuGc3YrDeiWWRElJVZSMb254+fwFv/3Vrzl99Zp8vmA5nTEdT7i6vOT6+pqicMtUAUgTeltDdo8OePjxU46ePmL34RHxqI8OpdsiyC9ZrdlL+mm0+hW1Vd2d+2P9+13plrpeC7JWq7ReVtOMaF//nvABDP52qBcX1FIevDeXZ4p2hd6e/PjHgptrrpNX0f2cpZFOaosQbGCplGbv0T5/8V//M5787GOG+9tEHe/SqNyj+WTB6dkpL1++YDqd0O12uL6+5q/+6q/46quvuLy8JMszb0dw36fBcatuH4j0phHfB+6R5LcI4b2gjdn7n73rew3US3zrzQk9s7lFH4GLE+Zjuac+7HIURYQ+7rpAoCvtNnHIc6yxRGFE3zu79Hs9kjhubDoIUNINh3RVuRDS2mlPVVk5zUobJtc3PP/2Gd98+Tu++fIrTFkx7PWZjSecnpw6Bm9pl0GnS29rRGfYZ3Swy+6jB0TDHloJt1dta037eifXogG/nTWs0HpLot+TPDLvb4QNqNvkrW3zHvD+DL5W2rqQ9xR2o3bijmtvTf6kZu7GsObH3Va42GpWaowypMOUg8eH7D86ZOd4j+HhDv3dIUEaundVmuV8wuvXrzg/O6XyhHNzc82b16/55puvubg4pyhyjNEI35BNUWhpKfXxbdDq0D4U2g27wZ7f633vC5vfa7eZYN2o6qYKV8shVy9Z7U4aeikdKLexofEx4LVf612r3YHf6shJeo0uXeRZW0fqNdp3Mm63UWuc0KiKgmw25+TlK373xZdcX1yii9JtlZRlnJ6dcX525q3rrtGCNCYZ9untbLN1uM/2gwO2D/eIex2QLqyXNbpR0ZvtyljNi3MXQ9+hmt9Ka6TTftp3JBtt7T/VZP++bf/eDO6K4/9aAQHr8x8H3FdrY5vzE16Nw40waKkZ7W3x83/8Cw4eHyESRTzo0N8aEEQh1lTk2ZLLyyu+/fYbzs7P6fa6WGv55ptvXFRTv8xzJbnrz6/qW9f+feCuxlipu3fffye836d/FFjNkNRbG/mth4Xbjsnt2JJTlqWfSnSqeFSr7t6wprWmKArKwq2Trz3aqtJ1uEX9nqJA+xDTdb3XOh/r/L+UkFyenfPl51/w6sVLJuMxYeD2UH/27Bm/++ZrHwOu8ruCCtJ+Qm97yHB/l6Onj3ny6ScMt0fIQGJMRVVVYN221MIz+fpw5QfAnQ3fenGrrm3Y/P0h8N4M3sBaRX8ftb4LPEM3qZbgjsmtZ/I4jdg92OXw0SEPnhyze7RPf3tI1EsgEBhhKYqCy8srLi8vHHGVBeObMScnb3j27Bln52fkeYbxLo/4qR2njq8kd0vb+0Eg8NXYJNqNTuAucLfrTK1xcbugv0doT4NK6cbAbm9xJ6WVcqGB3HSWk851MMa6068XmKggWDF5vY2T9zkoCtc5VFXl9lqvwzK3hn2buFd+iFCWbkz+zddf89lvf8v19Q3GGMqiZDqbcXJ6yuXVFYUtMbhQ7Omgz/bhHkdPHvHo4yfsHe4zGPQJgsDH7vMSfGOs3Ga0TQq9K90Cb79p6uOTu1b/bNl66qO/3s67/oVa9K5eW8OHM/iPDm3qd8UVtKR3S4J3+ikPnxxz/OSY3aM9dg522DrYIezGVMKgrSYrcs7Pz7i4uHCrlsAz93c8e/aMq8srjF4ZgMD5Sq+0kh+mobQJo83cb4X7PremNfljq3nfxhDfD1wMsTpaj2Nq5Qxpfp9xIQW6ZnDvibbySHOdZj0ml9I5txS5c2ZZZhlZlvmO14V2smu4X0FN4LU6q6QkCkOEhTzL+N1Xv+Nv/vpvOD1xQ7AgUFRlyavXrzg9P6OoqmaiNe3D9mGHg8fHHD99wsGDQ0bbI6I4dJ2aN+w6NX1lE/Lk6GCT8zfTnc24apd2m7lrdtVZ1/Wt8zWMvsrr2t/9XBVr9at+5T9ABq/BFXnF3P7ol5NaoUm7CQ8ePeDo0QO293dIh11ELDEBVGjyqmCZea+oLMdimc3mfPXV73j27BmTycQZY6jHlm4e7ffPKBtM/vuEe8p3z+V7oZYAbViNuVf7mDXMLt0SUOWZXfpYfMY4N9NaQpuW9dxZxt16+bKqqEq/RbGfLnubFtLuKAHKomQxm4OxxFGMAOazGV988Tmff/Y5xljiJGGZZdxMxlzeXDOtFlQ4l2aVQtxXDHdGPHz8iKcfPWVne4skiZ19AWdgc0MBl5oy3DUO30jv1dB3VveulngXrOdv//oHzOC4ynrjhhEWLaFQkAWQhwI16rL39CE7jx8wONgh7XccAeLmrYsiZ7lYOilR5hhjmE7GfPnVl3z33TNms5lzivCEXO/Z7Zjb+EinHl1edLSR1z4Xzc26+97s0r215QdD/dXW0dbfo/lW+1d91p5tXSX/poYy2+DnaKVAKYlQLiaAk+puz+ogcJI08Nv9GKN9TDUnnStdgQ8a6DY8FIB1gTBrld66uG1Oct+XWPtdlAXT2RRjjdvOOAwpyoLPP/uMX/3ql2hd0klTdFkyn0y4Ob8gn8wQuGZWkdsSPN3psvfJAw7+5Cnpg11kP8VEEi28+7HARWVtLYFqS/T7Ei1Nzb2mhdxbuL514Y7rd91/N3wQgzuV0JG8Ux38OKFRI+5O7264u6HOYYRLlWfwYNTl6KcfcfSTj0j3t3yjKITf+dKUFbPxhJfPX/D8+XfNmPHzzz/jN7/9DfPZDPweVKK9jtsTWr2me50P/EnrmpvWWTGOi+5a/7VUurVq1s3+AWDr/1a+ATRTiK0i1XHg6+/VQvFWGdrgOibXVD5IYj0Gxi1yCKOQMIowxpBlSxaLOctsSaUrlHTbB0ehdwOul376TjJbLplN3f5s2XLpjFh+bB4ECqlcZ1HHDV+vUBtd6xVQShHFbnfboizQxmkBla64ubnm17/+Nd98/TVpHBNLxeXJKeOzc7LFgtJFc8JGQFcghzHB/oDe4wO6hztUoaC0ejUrIGVLqjd9/fslW/txrJ5bwWbDtBtr8/r3g/dn8Fpdta1z/2FX/prxbyfaY4Zb6W2F90H+/YbopbRUoSDY6nH406ccfPqYdG+E7CeYSLqFJoFCFwXT8ZiTN284efMa4wMwfvnlF3z11ZfMF3MsIJV0cSTx0zI+rf42W4tab62520n+2sp8h5RsfjcS/fvBCk8tx587Uee/0TSAw/3q3mZaQd0ebhNJ97wQjhnDMPCrvAqy3BnHqrJECLyffoAQrpMwntmsteR5xnw+94tHvETHEnhj3SqccI3D2yX0qF7rMaWShHGIxVKWBdq6YA1GV0zGY7747DOeffsNoVIEQjK5vGJ6ccVyOiHPnapuQs/gWwnRwZD+40N6D/awcYAW1sUy95pKI7lbRXl3Wnk9rqZ8607Z32vXa7051jjo+8L7M/h/DhBuV0sRBpRGU1hN2O/S399hdHzA4HCXaNhDdGJsqMAvZFhMplxdXBAoSZqmnLx5w5dffsnZ2Rnz+bzZRbINTiNpXat5+C2w7p30YbBJxB8KK8K5K91mlLeB22jBdY5h6EISB0HgY5L7BSPWBa9M0pQ4jhECltmSpd/0ASCK/P7gUYhUwhMuK4qHW3hfh7fd2wD/vnqeuQ1FUXB+cc7JmzdcXVxQZhndKMaWFRenJ0yn15Q6xwYVqquIt7v0Huyy+/Ej9p4+pL+3TdxLEaHCCld/YdaNbZv4vSvRnLtn4V1VrBl6g7Hf1YBvgQ9j8Ld+6K03vxcYXBBM45f3mUDSHQ3YOdhn9+CA0c4OnV6XMI6RSmFxKtpsNuPm5gYhBGEQ8Pr1a77++huurq9diKXaqPMHgnZjN8eNtmx4wee5E5oiN5aBzdfcRR7vBCFA+ZhpYe06GroQxVjQxi0YUcp5rkVRhJCSsnDxy4vChYkOA/dcGLoILj8m3FdHC1RVyeRmzNnpGa9evmIyHhNFEVprLi8vmc/mGG0IpCINBb1uxGg0ZP9wj/0HB2wd7pKM+phIoYWl8stcnUS+PXX2ttRu2/VS1qf1OOqeCuGur1q8zlf/Xn9o8xXvz+C1+tSaG3Xp3ZLu+4IVlrwsmeUZWgnSfo+D4wccPXrI9u4uvcGAOE2dI4WU5HnBeDxmsVg0Lo55UfDy1StevHhOVZYopRoHi/9sTH7PZ9+Nxtq67wjDcmu800qbz94PQnjvszAkSdyijygKUd7iXZUVZeFCQteSPlD1tJchy7LGWOncV2MCFfhdWt5dqw+FdtXsRmquWcvN9RW/+uUvefbtM9fhWJhNpxR5jgAihAvpFrmdSOM0ob814ODRMaOjPYgDSgxF5az9zs50dwe9mdqSfq2wrIZCNdPW5XVapLtQD3EcjbrvNtd8vrqZ67e497XzfwiD47n7Fhnede33AxYoraa0BhEFpIM+O4cH7B8dMdjeIu12CaIIqdwUTZZlXF9fk2cZwq5WjV2cn3MzHjfzsqIhuh+n3PdBm7lrrLXT+4MnjVYDb6YPgXoaKwzDlS+5l+DWOot3URRUlZvbFqJW5yOkko2Ti/FebIGf8xbeJvmjwV0vF44RdKWZTqa8eP6cV69eMb65YZkt0VqTLzNmk6nb5dRLuSCEOInpbw05fHzM1tE+qpNgpKAyGqvNWue52XabaaNIK6gZFt9+9TtXGdaltX/k7RL8bo2OD5LgfxBY7/KsABEoZBISdFKSQY+tvR229nbp9PsEfhmo9UiYLxacn59jjCFJEs5Oz/jqq6+YzWbOku69n9y0jjMK3QdvudVAeyy2dv2+xvZY38y/CYI7WupHBOFjywVBQBQ56R0ETityDF6R527qq5bkQRDS7XZJkgQhQHvrualX4Qm8JeDHq4f1NHLL59s4Y2C9wOXy4oIvvviCy4tLOmmHxWLBi++ec3l+Qa5Ba2e+idOI/taI/cfHbD08JBx0wRvcjDfEckf7vivVz9xGQpuANu/V134Y8j6cwQUttas+vgvekq+pXJu5XYWsnyKzgSQd9Rnu79Df2aK7NSDtd1AdgYxBW8NsPmMymTAej8mWzjvq5OSE7757xnw+g9ZUWDOsaH/7PZHZ1LzOtlH02iDaTrfHYG8Bn/duAqmhYZ3WldvPrO64J4RwUWiNtYBAKkUUxQRBiLWWsqzIc+9Z5oMmOBdTCVi355d3KbXW+E7TBWnAB3eovAOLNS4y6WaZ3mYAvOveZr7VkLD95CZ491rfyJPJ1Nlgrq5I0xRrDLPJhMV0RrbMMQYCBUEkiXspvd0RvcNdBke7hIMuBYbKGkeL7vXfH9767Cbx/HB4bwYX+LF33Qit1UXvSu8FTbZVxYxwIXUqCb2dLfaOj+htj0j6XWSPZlvfSmsuLi649rHKZ9MpN9fXvHnzmtevXjGbz6iqirJ0hGuMi5y5qsfdNoVNAmuI7C7c33XtA+HWmK2+3sL92tVbmVtTeE0P5pLwHmjWWox2G0qEjRSOqbT2Q5orbm5umM1mWGPcFFgUoVTQdAJFUXj3UjffrZq134aiKMiWGbpy6u9G6dZwXldgraS32mOTllbP3QdSSqI4JkkSoihiuVzw3XfPuLm5IY0TosC5uOqipMjceFwGoAIQcYjqpnT2tth7+ojezojCaqemt5xfak64969VvxqEb7L1aryNoWsJsXn9/eG9Gbz5iLj14/cEtytpvYMLYcDoYJeDx8eko76bEmtBVuSMp1OM37rm5vqar776iovzczK/84hbCuhTM+65Kzm4r2Zt5t5sws3zzd/vC3flXbu2+fLW9frW5m0X9NBpL0rJVlAFl9MaS6WdF1pZlm4rIEBKF6AhDN24mpYkd9K8djc1aOPCHmvvU34nzbZgs4zvBfdVsAVC4NyOhcAYTZ4XzOcLLi7OnQfjdEochpR54cJgF25YYQUuKlA3Id4ZMjzep7u7hUpCVBQg/dSh+8g70n3g7zUrJNfo7q5r9fX28f3h/Rn8R4L1yf91sICRAhmH7BwdcPT4IZ1+DyMtywLKyk2lLbMl8/mcMAjY3d3l+uqaX/3yl1xeXm688fcHm2X9fcP70sv7gjGaSmuEEG6ddhAilbOCa91yyd0A1yEo/4yX1MZsSHKntrv12y1rMG83SP3YUGsUdYSe07Mz/vZv/46L83OSOKbIc8bX12TLhdtDHLebUdARxFt9hge79HZGxN0OURITRt4usfmhD4C7WNX6zqU+1sj5Id+p4QMY3CmIwjd6W52tVdrvCwIaibrW+FKytbPDgyeP6G2PCNKEsBMTxCFCQalhtiyZTqbMZlPmC+cOOZvNmE6nlKUPrN8uaJPWivBfPDj0WteOayjwVtu3UJOsI6IGQWMhB7cWvPYld9M3rvFq2nA/Nl72I4P7nK+ZdYa/ym8jfX11zde/+x2XF5cYrcmzJbPZhPlsRpY5BAQRBB1Ihh0GeztsH+yxe3hA0u1Q6grjQzt9H2iY2xP5W1C+yvMD8fcBDN5wdoujG5bfyPgBsNmVtS4IKdg52OPxJx/T3RoiQkWYxEQJqNCNvSfTKePJhOl0ynQydfPg87nbQN6rpHemH1Lm/42B8D7Zzn889FONNYO3F4k4vDZup39g/m4zN7g4elq7HVO0NtzcXPPtt99weXlBVZbkyyXz2YzZfMpyOceK/z97//1k2XHleYIf96ueDh0ZkVogASQEAVAVWYrVVd1TNda707tma9P938z8LfvDmq3Zrq2N7ey0tXVXq6pikVUkiyiCJABCpRahn77KfX847vfd9yIikZkAEiCJE+n53rv6uvvXz/HjR0DQgDCBZBm6m6usbm2yeXaLZrstIZ7rsfqeghbB7AfDue3u0auBYOHzWejpAO7WAGfrdr5hn/UR6ue7Yv12QCuWVpfZvnCOtTMbdFaW0DEu1K3E1h6OhgCsra4xHA55++dv8+DBg1lEkN9F8m3wFNUuDjdh5aqZ+3VrHTgl2eIZ86R8oMVAE0bCyb3758yO/FMu8lzIV4rzeAsC8YTTsoJQliWHBwfcvn2L6XRCEkdMJ2P6/UOm6ZTCiiNKGYGNFb31FS5fv8bapmRTQUkevGelOlosMy69iKTFz2elpwC4t5PxVjTzDiRPSl5xVmopErLWX8i4NK0lShXo0LC02mHrwgarZ5bpLAUELswaFoo8YzwcoKxldXmZ0WDIO7/4BY8ePnT5om2tBp+8VZ78yAWq1UO9sRZ2ndhoi8fXyeLreDYAnnis31hJWfKpfDTTSAJeSB6wgrI0DgTOz1sp8YhT80Yqvnn8dXy8NTnPnzMT/Z+GnvLwx9KsDmXiL2mLXbx190LGWg4ODrh18xbTyZQ4jkmnE/r9I7J0CqWAIgKi0NJda3H2pXM0znVImyV5VEqihCekx7Urp+zz207a97T0FAB/WvKi+3yxbvmrVFYMCJSVEEzWFQosOUlT01tu0Vtp0VlqohNJMROEEIUQaihzsTmeDIfYomQ6GnOwt082zSR0r7iKzciD3G1bXIKpylN2uyc+unagb/jFDmCMwbiBSTmQWmMpSy+RyNHyjLMRVgZcMSWV+OMNkkTycPv44s1mkyRpEMWyvliUYsBirKXVatHt9egt9Wi32yRJw5miSsy16XSKtd6zTGzN5Vlnz/TUpOS/z/vPjzLeJqxiQG6qsb+/z4cffshwMCAMNHmRk6YTtDJo5ZS3KYRhSdhWBCsB+bIib1mK2FLqJ5QMFzrGabVkXdf0nyzwo6fkT3P05AD3T2eP/TiB/NPMgxvAKrXAwb2Sx1YhmZQqaTQDllbadJaaNHoROga0RYlVKqaELJ0yHg4ZD4dMx2NGwyH9wyPyLJeInwv3rtPik80d+Qxzx5PvMr/D+t+nkNM/z/Nn5fZYSQDpxWJ8h6gOlRvpICB2a9ehj1zqnEDiOBZnEWe7L1rmFFOWzg69QbPRJElix+2VWxITbTkuA4l/Buvjxc+e9qlIUdOJfE6lXr9SP/M1qpSiPxhw9+5dWeu3ljxLydIpxhRQ5pTpBIoJQVAQtEAvh5i1ALUcYZuKchZu9YnoNICedpV6k84Bffb1iemJAb5YWbYmqj/prSuP2Fq6mPqZSlmUtqjA0uo0WN1YotGJUYEliMUYwZQwmeQc7B8w6g/QwGQ44vbNW+zv7rkUtJ++BuupDuxTQfqMVJ9bVdtqDb5YRJklkocxTkNdyjy50WjQbnfo9nrEcYJynF0s8zRRJE4eSRw7Rw8oS+MCHIp1WlEU7lhJOBCEAUVRMp2mjCcTJuMxk8mE6TQlSyURYFGIp5h2c1jPta01UEk8X2E6qXGthGCejMf0+0euflIG/UNGwz7alsTaEuiSIIGwG9I602X90iaNXksykT4LnQDWqj/UPheP+Sz0xACvSJDu7i6P8CRzcIsA2nf56l1dxSvthuBAQxTQWO6ytrVJq9smqJQ6Ers6nU7pHx4yGY+IwoDpeMLNTz5hb29PQFFF5KzVqVLuh//8KpKLbOLmita9QBgGM1G70ajs6GWQnXH2OBZOHQQBIEYeVUjiLKfIJZpKEIjhisQkF2eS1AVATNO0Arafp4NYwlkXq7wsi0qbrL6ydXk6GRf5pT8YsLe3R+5y0I1HI0ajIRYrijk3GDabLVbXVjl37hydbmfxcsdH8WNUqyT/dXHQWaD6APBZ6OkB/gxkmSFtcZRSiGmh1goCJZPrOKSzusSZ82fpLi8TJbEodTQoFGVeMB6NKPKcdqNFlqZ88tFH7O3siLGFS3gHdo7LuBna3DztedJseDte6vvBc3OxOBMROybwVlQnkeP+XnxWSqQrY8Q+PC/E8swvHcqxMnAqpSTTp7NBr7vSyuAhNud+XTnPCzFFfZKR/atGVdy4nL29Xe7fv4fF0mo1yfKM8XjsJBapxyiKaLWarK2tcf78eboVwF1rfZq/CL7Dy1G2hoF6e9eB78Xyer94VnpMj/l8yL+bvNjcK8k7KVBaOLjSHuABzeUua9tnaC91CSNRCpUGcFxkOh6TpxlRGJBPUx7cf0D/qD9TOBlvTfXl0/xbn0yyX8xJrfVxvwXYIr2I1ZkErChm0olSwsnnLMiOk3EZO32gQ+nE0oH98pmXfBS4KC+SVdVbsRkjtuiV5dpXqI6fhqzj4Hv7e9y7fw9jShrNBnmeMZmMK2ca5az4oiim2+2ysblBq9la6MOu5WS+WjW2la5aHcXcWfOV5vtHvZ9YP2osgP1p6QsHOH7O7ubb/kE91hVOW6wUNnAlVES9NsubazQ7LedznJOlwoGslY6eZWLMkqZTjg4PmU6nLsiA3NWLsKI78NvcEz2mZ1aDqfMEq5cvkozzyDLWONdNUYqFYYC1kKZT+v0BaZpWc2+tFNaBdz7xwGxO75MOmCqkcSbpeRVViCWlRSSV5AYiwtdDMIWhOJsURU7uRHjjAjN+wdXyhZAxhv39Pe7du0dR5CRxTFmU1TRFQA64/pkkDXq9JckxD1VPtiB+DlUsO9fH3LlV3bj+Lv3Rffp9j6EnOeZx9HQAt+4p5cfcpxfpqm31Q/0xDiH1sDdYia5S2hKDRTciGksdol6ToJUQNhLCWIIP+JC8eZGjA02e5+zu7HBwcEjmXRTVrCLnQFyNrvJZPb0feBfK48gPAJ83+WAJAirRZMt7S4aWPBcAgxexZZ1XKYnlXhSSy0u5yCqNRkMCN7gpiq25dOZ5LmK5SziACAPgjzNioz47Xkw+S5dyyNucf+Ye+CWQtSIpTSZT+v0+w8Gwsn5M05TxeMR0mgKi31CuXRqNhGazScOlNJZr+Si0pQC93u2hxoZnvebJoP350JMDvDYyzY1CHkyu4qptc3+1l/IgdxzRGCuJ4IucwhrCZkJ3Y5Ww26IMFCoO0bEkj1dKMZ1OyLKMRiOhLAo++eQmOzuPpAq1GFzIc9a49wkF/1k1yULxj3tC+aJIBwHNZpNWs+XCHgnnzvOcyWRMWZZOZA4ra7LQpdkFKuWX1pokSWi3O8SxcJxZewlos0ySQoyGI6aTaTWqGSPiq4+3NplMGY/HElwxc2mVP20E/IqTRNmVgStNU/b3D9jd3WU6mZBnGcPBkMlkjLVihy+iuiYKI1rNJt1ulyiOq0HTryyIn/2Mvgq19OQA59Oe+OSdAhfxo51x8HqRbRaLUYYgiWgud9GdBibSlP4JXUWmLr9YGAQUZcHu7g79fl+uWynOZgONYHU2yPinrH8uljq4nydZz2HLwnFjMSLRWjzAtHPyCIKAOBIjliQRLycdBHK+i76S5znGGoIgIGk0CMO6i62rnxrnqe/zg5+InrU46VZEf0+q+u+3j/xAX5Ylg4EECrEupJfUv/i64/qVTHUCWu02y0tLJHF8vOfMMb35NdCqbz1nejqAfyaqw0tI8D6bgxtAJxHNpQ5BK8GGmhKLhMMSgGdZRpHnlZXVwcEBw+FIrucAXjFmf0/rNrpPz8G/amSNkdBIU1mX9fPAwInbgQOxRGKJSZJGFdTAp+HNi4LJdMI0nZJnOUGgaTVbhKGLjvGMNOvGrhUVskKxeOBvA1VNL31qOBjQ7/dRSs0lcBCAK6dw1IRBSKfdZnl5uTYXr5NnJL6eZn9fFsKfD8BrvWBWBW6XkpQ2aI1RlqiZ0FtbIe62IAqwWuJ9+RE3TVPSLEMpRZ7n7B8cMByKw4nync7dz4ulvy0kg1hJ7vKXy/y4ACtr4d7YJYljVC0db5amZHmOcUEdijwnz2RZrPR6ia9pRs6oCCRx4sHBAXt7e6JMazQqzu4lG0ndJLb8S0tLbG5u0HTH4XQnWrt86Qu3mpdTnz89B4DLq4navwZs99WvySotHDxqJHRrADcKXCIhjAd4mgJQFAWHBweMRjMOLhU8E9Xl/y+rep+OrF/OKgoyB1IvKoo1W0Kn0yaKhHv4OeQ0TcmzXERoI0ESiyKX8FRl+VUUVr5Umq3ciMvxwcEB+3v7KKVoJIlb75fgFXKCCysdRiwtL7GxuUHDAVx4iuQqlylUHeKe09R/Hx8Cvkh6DgCnJrTMkwejrIFrrHIiek9EdBM6yzYXVsjUHB8yl5lSOPYJhshfNj3Do/i5nq4HMXRhkWT9WrTXaZrW0gFlKJTk+arS/EqgRGstWSYKusIFUfyapG2U6zfWSsbZ/kBE9CiOsVaMYXwKJnBBL8KAVqvF0vJSlTaJioNL+Ktj0pLFDykLO54PfUEA91Ceh7SHoKoM25yVmfZ+toowjml22oSNRMAduIbAUhrp8FmWSbD9PAcsbjD+3GjRkuhJ6bTjT3u2k4YkccEUU1NrfZw0CRjpxUbxfkpJs7QCrvg9O826i7pi3br1ZDqlOCEIYp1kCD65PAktnvNllfrznPhgNVKujseTcTXNk5UL0bLP5uGI+B0GxJ0WzeUeNCIKbbFastIKsBdb09PsxvLttOM+f/qCAE7tpWqvVL2nmmXCdEoMD/IgCmm0mgRxVFnzWCy5i60VueWy/f199vcPnMnkTCtaiaN+lD5l9Fw0mV2kOsgXy0l02nZPHszWWeLhbMj9tMKb2GLFDtonIAiDgKKQdEx5LrqHOIppNBs0koQwDJ22HdrtNp2OREkNQ8nkYYxoyx+ni7D+P698XCyfRovHf8nF+s+T/qo47ymlkRh1phS9RTqV6V/hHJZEYirBp5HWiqAREXaalElArsEEMr/OXRDKuXr2Irz8mG2HujfGF0pfIMCpvZQFb7NbcwCRru0BHqCCgCCKCBsJOgqxjqvbKp907gL/Qb9/xGDQF66GWBFhZxCsQP0p9bgI3nozeJAv0mKXn/tdDUonk7JSFxXVvqvK0CWh2WzQcHmvcQn1iqJw2Vk0cSTGMN5GPQiCKm+YF9GpderTn8jvssfq4aQ6WaTF474KxT/XsR2ui5hyluLYc/GiLJmmU6Yud51xWVKNi8QLCKeOI1QzpowDylBhtQC89NFkawCfAXu2jcrMa/b7i6QvGOAnU2X26d7bIg4nURJXecbQyj2ddNCZd5W4LWYuoqc0gONScxX57FS/ysJy5mPJSwWPewrtcnthcWGlhGvHUUSr2aLb7dLr9eh0urTbbZrNFo1mgyRJsEDmOIxSOE+nBu1Oh0ajIUYqRVEFh5j1tRkf+ZpEKy5abze3cxlE0zQlnU5dP1IuppuLOmuRkE3OlJo4QEeBiOguM4zWPgbBE9ATHvZZ6QsH+IxrzzIzHiPn+DAz2vAhg9zRzijDGhFrrbVOnMrEbHJRPK/oxLt9ueR1DjCb3zmnD8+tZ8szs1RLcZyAhdRzcuNzhEXiAx6GlKXPPFJTEMmY+DXVSDutuHLLWgqx559MJkym06rOKp9855koySMkqKTkZotEsVbpQMQP4jiduPG50BcOcM/P6kCf22ulo+sgoOmMNgJXkco9nRczrZu3WmOYTKek6VTmnwvGKwq/zvkVJCsvLYp/77EVVuDu9/vs7+/T7/eZTiRZnlLahVnyNunem2smEhprK/vymcunD6f0OWshf8tJaQGocuI1LrfaaDRiPBpV/cy4LLSVgjKQHPRKKxchx9v5K0kkocWpp3anGbi9Quk503MAuAO1y63MMZALOLVLNyPhhJzyyYlQIqI7V0bPwd16uPEeTfWp7fOvxycm0dBKNBQP7FmQBrFEy7JZxhBvIoqVCC2Fc9f0YZSyTCSZLE0r8M+8ypyw6ftYXRc1/1i/V6TdwKqYKUuM5+CTCTgGYZwpr1di4oKSiOmwDMwe0IFz/jlZRD9p2/Oh5wJwPuUVK4B7Dyrl1sZd5VnrUu9YSWhnsWSZJJ6fLWU83y7r7/a0dzXGUBS5aMPjiCSJxXHBxVmTjiLiI9WAUIqSsZT5deHS+U6nU8bjCaPRsMqJLsrI+sDgntD6/1x52gf/XSJvyVbrlMZInvNpmgojcco38Xmvr84Ixw6CgNB58qm5ObijSmGz+Pls9KRnL8oJzw3gQr6D+cdwhvgWQMlao6t4VXEeqeDSjaQ+HNF4PGE8HrulJbm6vNjiK37OVLv0HEYWbqlQBFo8kJoNUZKFYUgQuOL8r1VtKS/QmkbDJ82LUEqCPGR5LlFNjfiJa5fsz1rENqCQ4jm+aIBn0xqp35mW3FNtVvP7TS5e+mg0YjIey/RJS90blyW1GhR9iCynH9FOoiydK61MFavLzrr850AODtX3enyCxR7vUfD8AF5/mmPkH68OTlcz1nExx5V88ILRcMhoNHLLZLPTvypTb+XipCVJTLvdodVsuaUtCaLgRXIBmbxB4N1FWy3iOHG5w0qyNGM8mWCtFUWki8LiFTze40u8vXw0G698FGjPAXsO7m4prbb/d55qdS4/ZfVhNBoxGo8l8EWgZ6Gq3WCKs1OgEsnFes1aCaQhHnyuzn33rYqv48/WQSuE1IF+0j63/zkB3FfmYjdafLzj5KvFuv+E1/mghM8Y3fIzkOX40tmc0YyfThhTOcl4sItiJiZOYsednehd+GCIMq/TWhxJilzcFpVSJG59m5ozzUk0x5F9pc16mStu8wkt8ntHFT/x4bKO14iXJH39+V5bbwZb7a9tXITe8Us/HT3m/Pqz1IH+nAD+WchpyH13rBbQ/due1E3d78cA4YsjeV5jjMu26X26RRMex/GcN1juQCzHSBYOUOIskmcUZYHWikajSeQykzwNHcO2dZ3x95j8qgx1fM8dMSNFbUXGV6D8qB82R6d2u2pk9kYVpx75udFXHuAyhzwtiogXLmvmcY8F/hdPymnHQxfSR5Rqbl3areMHLoiidBxRHooxhUErmdtFUUSSJDQbDZrNFu12q1pKO06Oq38Kd/+aPiv5frbYx473s6oZFtrjFEuQL4y+ggCfVZYXe2T+UuPedS7uR2JFbZ5/vMKfFynlkvNFs0CHZVlQVNxcSVolHyq60tbOTB1FpJ+BXEpDRPQTSEDtF2iebwf63aP5vnOsJ7kNp0lBi7VvWZjCwQlHfXH0nAFefzH5bv1/lbGK49q471VlzoDslyZmNNs/czT/csCutSKJJTeYB2RRSIyzLEvFR9uUznotJopEo14UJePxhMPDQ46OjlzsOZmfT9Mpg8GALEurOnne7/U7Ra6PnUi+/9X2V7/dVNFPGau/hevVzbBPp6cH+eIZi79PoucE8OPArn+3gm/57irHV9qsYmfgxom+xnv5fCp9AWB3D22d0kV7zzBnBunFbK0lnnhRGbCImanXsIehWw4zJVmWMp5IgEO/pp0XBVkq27NMvJWk+Adx9flpra1m5dMO/b2hereo9Tdfv1LHctAM3/OgtlYCksz+Trj+ZyRV51vuu2/Deeet4237nADOvFJh7nsd0PWK9OfJjzrntlaMRbxySi5VP8lT/ffivs9AruGNkeW7at7tcoJlLp5as9mg1WoRhiEWKFyEFYAoimk2W06Ud6/hXEGjSJRwxoVfKkuZv4tSLpfca+59qrm3/JJ/yn2vkdS4X4NY7Aa/3ySAnV/5ON5fagCupo0zcLucHBV9YTV8Speu36/+/fkBvKJ6B5Pvc1iuffeVaF18au08d3xle3Av2rfP00mN9dmoGmy0do4xgioZfMQmPHfWaqELcRy40MaidPNhmMS4x3uYSQYRUcBR82byyzfSAcWVsc7B66Ct/z9P3npooQl+r2me4/qatNi5LlPVtfXglh/SPwXc9RQQp4Hts9Jc8zm+Vm/K6l61Lv+cAX7K686k8Jl4VAM5tpbeCLEySlzGDf0lqI2V0hLpNGnQbrXRWrvQSmLNVBQleZYzmUzICwlSkTREWWatZTweu1jjE6w1RFFEo9F0kVOfoElcB6voK2Tg81tBboCWPib1qLUicskbZV8d+guiO7VPD+5qTKifV/v1nNpn0Z7sCXrT50H1caZOMtRU3Hi+Tud+KCVuetbFCU8aEvFEOrY735cn03I8MyklDgtRJNkugirLhURQkWUviYxaFsVcxhKltZuPS2y50nmLibuhmKCeRE5IqGqx/oaybVHx+DWdRoq6n4PTobhQ1HEco70bo4esq2j3q9a1vJn1bK//Wm+Keu983vQcAF5/1dOAXie/v9aVJexVJQJrpWg2JOKJqsT2k+iLrVKtnXVaFLnEBO5BXICK0kX5MEaeOYoicVDQSrTjUwneUJmYzinQ6s/u682VxSqtOuyT1O/XJGGQpetba0GJu6dfkqzasUbWyn/SKlLP1n2dA++C0uvLpucAcE8L9pyuyHynLuKw4InjVEPefRSL0oqk4Udb2Xa81EgxJ8P6OZafQ83+Zmda/98JlxNO7TN+WMJQIquI1lzm1N4l0bp4XWVZotzSWLPZROug8gzL85w0laR3YvByAsgfh1+37WsO/mRU6SysmBUrFDoISGIvFc5gMWsHB+6FvkC9b9b7We24T4sE9EXScwR4nWoA9vPvmawzR54x1QGutXLilMyXTiZ3verc6nYzcFvnmOE8r2SUmX2fg329wWq5rSROXEir1a6cSCSIg3B3pRRpmroIsJAkMd1OhziOsC4A4DRNGbn8X14BJ1x9ds+v6fMnccgRf4bAmRJHcYx2EXfcUZVn3mKDzNSbDuTu94z88Sc15EnbjtPinPpp6UsCOHMgt7ikd0WBKY0oOfxv767nAAoSTyuO/BryaQCfhdUJgqByRZUhQsbjGYA9ht3vCuQ+T3coduRRROTWrY1LIp+mznjFK8uaDTFTrT1XNd8z4vo5mbgwxs7V0IejOk1MF+Yw6zxVp6r/ubpRfq6+UL6mGc3Xs3NFtlaUoXEsXnrOZFjAPjtWIbqgspAQ3iLhO19wpTy3mgO3aLx9yLJa6DJ3iHJA9p+coEZ61ib8EgHOHMiNSy4vqXYUxrngiXmn69COi4vjhliBnQZwpSRhn4QeDiXzqL+fA5Bvi6oea7+tG629F5ho7UWE04GmdLm2p9NUAiHmBZELnBiGIQpxI8RSLaUZY0inKYPBgDzPqhUAW4Vw8u/iBhgHbg/cen0dB7CXUk5At1LP3kN+B8l6ZyAP8KLAlKXoU5Kkir0mS5Yzt15cv1JV2qgc6/QrWgkTcXeoPl0Lu9+zPoYH9mxPRbNWroH+GelLAvjs1WREFEuuyVhS1IpHlTjhWyNKEB8JUyHRRJeWJPKoPmFZyXM0b4hinKaU2gChtSS714GP/zYrfgBpOEOVVqtNq9WSeONRSOQCIfrGL4qCNPP5wQxxLHNy8d32a+AyiImL68kt5gcWAbfn4l/TF0VeV+IVoe12m263S1iz+RdG4NvDZ5spqkGBGlefYzY1U2kP8joHr3OTx65pf0Y6jo4viCz1p7Yo60QXt/xVlobxZELuMof6yvQ5l71BCI4zL/WW6HY7VW7sORI0C8DLovIbV7gReA7cMmeul8Cl5200GjQazRpYRRoIw0i+h7KsVbqgDHkm2Udk3dtl/XT+3TgjF8+ZTyTXmaoQ0ScMBJ9Xw/++UgUkCwHSD0RKtHQ6HbrdLkEoylHfZ2cDrzAdH7nWp5Kyrl/NDLG+OvTcAE6tu85GqlknNkaMQ6p456UL5uDnPo7rWmsJw4Cl5SW63d7JhiHunJmmexZ4QbtYWoFz6RQLssXivMFQTCYTjo76HB4eMRoNnX+2rmKpeUWaMSWpi5OWZZkLjuiKU8ZJIMXHBamozw0995DtM/rqdaLfNrLGgjEEQBQENOKEVqtFp9Oh1W5JrnXXSWu8Fusiv2TZLDGkcVF93fxo8VZfOp2Ajs+f/Ei4uFVVO0XRVLismmmaUpQFSkmlCjhllLQuSXu326XTac9x8PotPFD8UpYHeKA1QehA7vN51YrETJP9OLvy8XjEcDhkMplSFvJcURSL0i2S+b3oEHzOMBmk8tyFOK5AXovQeSrVlAO1ARC+nk5/HiR9zmJLgwZCHdBsNOm0O1UCCT9F9KCuvrsMKNK2RRVG7LFS2ZdMTwjwx73A4/bNaL6runmHY1HGZY4IggBTlIyHY8qsRKtQgjIat1Th0rlqdYoW3Q0Clbjko2L6rCf1ubxTummXn7wqLpqrtW5+VNOQesVf6RxGZDkscgODZATN85zJeOKyf06qJbLSGbQ8aX19TZ+NHjcI2rKkzAsoLaEO6HU7LC8vE8dxNYJaJemsLTV/bgumKCmyAuNWfKq8bwsgn7+/n4fPaPE3fDFd4/EAVw6JFX3adw/jheLfxoFxTqlQzTdBq4AiNQz3xxQjS2gitNHYUkDq1yx1IEEV4jh2Cfg80N31tYt7XQe/v6eqRW/1v7WWxjOi9faDhNIO/NUSiItNXpaUpXiyBaEkhg/DCJymPHcZUGWullfB+6r11OM1VJXH0eKxT3re7yudBCJlRUS3RSliutb0ej1WVlcIfcJLrbAuL30FcoTB5JOU6dEQO87QeQmlW1b116/fa7GV6g1Vw8AiVXA5YX91tYXpQ7WvApZsewzAF7rN4p3ghMsfp4VXnIGw0h7K4pVSCo0mHWfsPTggPcrRRQClxhqqxAdaO7ttHdBsNlhdXRVlm0t3hNOOhmHo5tkSPaUCe/W4LpmCs3PPC+G8RVGgagEQw0DipHlNu9aa0kXgzPOCQGti50wSuXVTSQY4GxgsiFFFXZyTjQvltFp0dOI5M5H+sef+nlK9v1fF15lb4lpeWmZtbZ0gDCmMAa0h0BgHcj9NtKVhsH/Izp17ZEcjdGFRpc+N5wfveaBUWnM7W/9ehNLi8+HwMQcv/7V+cu37aW3/GIBzIjxPJr9v8fjZOZIldPZE9RfSzgBFocnGOUc7fbJ+gS5CdKkrMR0rx4qIrWg0GqyurYmyTevqjbUSW2NRoslyltLiqCIxw2tg87Vm3SBSe2blQyf5nNveR9vpCkRD711Za3HO1ey7v7b0qZnyDHen+Zr6NIQfr93jNf01fRppFIHSKCvfPQcPwoDSlBBoVKCxzlPMWCs58MqS0WGfw4e7FMMpgQHtHMG9P4GQWmiVk0V0L8nC3KGV0FyB3R9zQlvXzWBP6gufAvAFWnzKOXryLlY9eE1sBqC05JOM0eGQYpSjy1kecWtlJPXadIUiSRLW1tbo9bpum7uuA1kUhsSx+Fh7Mbx0qWNL4/KKIw0UhGKLHDj7cWNkfuW9wHwQhizLyIsCnOdYlXSgmmM/CT15XX1Nny8p6yS8IKj6XqfbZWllGRUElMagtRZFm1veFO5dYvKC8XDE0f4BRZqhfd/0OqIK4HWqIffzogUHl8dd+ekA/lmoPlotkOfgGEM6GtPf3ScfjglKizbHz1OIIqTZbLK1tcXy8kqlTffiFMhcPAhEVPdcXFUx1R0HdZr2QIs3kQ+W6P26cSGPw2hm1eRrtDSl05TLfPvTNeS4J3x8oyxK33Wu/zV9dhLdikzB4iSht9Sjt7QkSl4kEWYQBBWXxxhsYSjznNFgyOHBEVmazRhTrd991SZKzw3g8yCdWfP4ZR9lwZYC8MNHu+SDMYGxaGcQcxK1Wi3OnTvH2toa2olU1ohI5cGmtbgCerND0Z7PyDuO6EDSF8eROIwYY6osnUB1jTAMK+u5sihJ04w0FZCXFcA/DcInk5zhzz1env6KX9MiWce1tUt22Wq36C0t0VvqEbjQWoGzk6ikwtKK9jwvGA6HHB4ckmUO4JVu56vZOs8N4CC1Owd090N5maM0ZOMpw/1DitEE7eY49XPq3xuNBhsb6ywt9Qi0iFwyz62JS5XlWuDWup3STGlAQiLleY5CEVWWZ5KXyhveFC7zSBhGkjcsilDOFFY8yqTYJ+Lgj6fjsJ6Vr+lzIO8PgqSB6nS7NFst4kRSRSlnDFUpSVFgnIheSPGmrdIwTq+yeJ+vCH3hAPfcWbmbeW58rEKshdJQTKaMD/qY8ZSwtGivdFBuIPDFKpKkwdraOr3eksyZ3GhaAdynmXHZHwNvpebEdSyYsiTLMwCiyHFoLd5iWS7cOcslmmkYhrRaTVkvdaawFcB94jmYPePX9JUkg6UEomaDdq9H0mwSRBEqkBWXIBCGECglfdYY0ZYXJZiZwswrTQHUXAyD08hp0uud35tsL/Saxc9npS8c4LiHrIBae2jrlFl57kIbWYjQNHRAdjDg4c07jI8Gcp4fMAGxNBTuW+QFrVaLSxcvsrqyKiGIi1KCJ7hEA8oZrmQOrLiQS/U5VJqlDIdDpqlk8UyShHa7LXnEUKRpxngyZjQak6bZbJ5fsy77ep781ScLqCAgTGI2tra4fPUqK+trxI0GOgwx1pJnOWVeEChNpAMiHTI6GnD7k5scHR5WKamkvd1Cr18xkU0n9oJZb5stl80BeAEfnxXcPA+AK2Zr3hXI7Wyh3hgRhT3AYxXQ1jHp4YC7H99kfNQXYxjceU6j7sGdphmtVpvLV66ytr5eiddpKvbsolEXK7Q0Tcky4dbKxYDy+9M0YzAYMJ1OMcbQaDTotDs0kkT2Zynj0YjhcECaTk/g1tIcX9Gp2NdUIx0ERI0GG2e3uPzCNVbW14kbDZmDW8jSjDLPCVBEOiAOAoZHR3zy4Ucc7h9UJqpU8NauuD7g7nNiV/Ad5FM6ikIucJr+6UnpCwc4dfHjhDm4cpk3Ax0QKk1kFWFpSQ8H7N19QDaeiF04UBpRiFkDcSTeXUpput0ely9dZmVlFWvFnbTVajmwy3KYUjNTVFzQiCgKiRPxGoucD3dZiNOILIfNIqWKSaJ76M9lbP2avgyyMrvDakVvZYWNrTNYpRiOx5RGNOhaazCWIsvJpyn5NGV42Gf34SNGg6H0BzfxVkpcTuemj56OdRPPuefXxevY8AywPjp8FpB/8QA/RtZVssUqC84c1Cs1NAptLNOjITv3HzAZjmfzdmsxpQUUoQ90qDS9bo+LFy+yuroqo3McEycJKEVpSizOKd/5/4I0jF/jTpKE0OUdLytnAomV5gFujNR6XXF6Ij1u39f0pZMFdBgSNxr0VldY2VgHrRhPpxhrxS1ZOZuJoqDIcrLJlOHhEbsPHzEejjClQRi4lwD1E7d7ZWJaO97/rra7Qah+zrPS8wV4tUBfWwtWCLjdumMABAYmRwMe3bvPwe4ew8EQUxqiMHLLFxJAQSnxBuu0O5zZPMOZM1tsbm4SNxpkeU7m1qfxpqeBKNC800egRXIIdCAaVBeLS/QCNXtynwgeWVuv5u5+/l0vT9rSX9OXQlbB8toql1+4ytLaCmEcEzUaREmCdbYN1kUVioIQW5SMB0MO9w/YebTDyAHcej9wD/KnafcFcC9StW0B6M9CzxfguJerc3C3jCXcVaGtcPB8OKG/e8Dh3h6HBwcURUEYhkSB5PvCSqXK0lWTTqfL+vo65y9eoNPtYKw4hRSFE9GdpKCUi6xiRCZSNc7uAzNIaqSCPMvFLbB0oY2R45XTqsnR7oWq8jU9L/JM4mnL6voaV1+8zvL6GjoKCaIQ7YxcytJPA8WdNM8y+odHDA4OGRz2yaYpEolL0Ff1hyegxeewzEBsmX3Wj/+s9PwB7l9EKaxXP9cqSOHnIWI91N8/YufeDvk4I9IxSdwgjGIKF1MrimKwMBqN6S0t8eqrr7G5tUWc+OiYdesiuY8xhqKUYAylkYX2OnCthaIsnaGLcwtcqO3ZnOtr+qqRXbBWXNy3vrnByzdusLq+LsEdrJXwSyXY0lJkJfm0IJ8UjA/HHD7YJ+tPCY1GGy3m045zn94HTtp+0raTyT/34vODbKzf+XFXfS4Arz+sfPfArs85xEWvxFIoS6HAGujvDtm7uUt5UBLlEYGNQIUYpbFKo3SARVEaw9LyClevv8D65gZJs0mj2XSB7CUSTNUezgfdJzCstKLWA1eOmXkILVazmlsVOUaLYnutnH7S1/Q0tNgivi+JSCuDushcDvBYwjii2+uytr7O1vYWzVYTU5bY3KByQ1BCYDShjQhNTFjGZIcZe5/sUTzKaBYJsYkIbFAp12ZQWyzMOvdptMCxq23+dLepfsziFesKuIW7w/MCOPWHrYskzF7SN4hRUAKlBtD0dwfsfPyIfDeDqaZILaVR6DhBRzGFsSiliRsNlldX2D53jqXVFZrtNksryyyvrBCFEoNcOV9w3Lp4WYhCbTKZiHeYCwyhnVvoLGbbSUqUU2Zd1Tz8tPI1fRY6abj1fciTZWbs5P+MMbTbbc6fP8/KygphGFIWJdPJlDLLUYUlLCEhph11aCc92mGX4qjg3rt3md4f0yqbxCZG27rX4Glt6ref3vZ1AM9h4pSxQfmDPS2A+yT64gF+yp0XgW4Bg3DwUlsBuA3IRwXT3SnFfkYxKDC5orSQGUNaFKRZRl6UWKuIk4Rur8fa5gZntrdotVpyLydfi41xIK6lStxDTVlSlKWM5I6L48QvrcQtFadEqV7lhMo/RvV2XSxf0zPRMWA7OqXPi4ly6P35NSurq7xw/Tpr6+sSZssaTFFAaQhKS2gUoQmIiSELmBxmjB6NGd4bwoERDl6GwsHxItlphRM+n4wWgV+n6g6nWL8tLrN9sQD3AHZPsCh6+O+zcVbmTLXng8JgpgXTwwnjwxHkFlUqpqMpo8GY8XjKJE3J8gxjIYgizpw5w9WrV4mThOFoJKl8UUShZI8MvC16zYbYOgeVmQGLPH9Vge6/p2uqr+kLp1qDVC3n/Q+CQGLnxRIgc3Nzk1dffZXNjQ1UZTrth25xTdZWoQvIjsbs3nrAwYM90uGUMivBaLB1sfxxdEJnr1EdExWjq0kip5z21PTFALz20J5OArenOqjn9jsPsyLNONrb5/DRLqQFMQFhqaC0lIWhKEqyoqwUZqtra1y+cpnl5WXCMHSWb3XzwuNkqbmZ4pRuVUPWgb3wfXGeXe37mr5QWuhjM3B78dYpTLEkjYS19TW2trc5f/48S70e2ltW+vMVWKXQRhGWUB6NePTJHfYePGI6mZKVZU1sXkTnCaWi4z3i2DMv0Bxuath5FvpCAL74gCd9P5VqL6MQgOfTlP2dXXbvP8JMcxoqIlERIbJcVhiJduk16yurK1y6fJn1jQ1arRbKhWTKi0K04if57VoH8vr2uhTm+0y9gauOtFhml/iavgBaZB7+s7ZdIvhIHPOk0WBre5vts9uc2dyk0+5UptPS7mBcxCFtISoVxeGYh5/cYe/+I9LJhNwUtZWfWqc4lU4+xrpd9U8P4grMrpz0jk9LXwjAPVUVX3/A4+98KikgUAplLP39A3buPaC/d0gxnBJZTRLGRGGM1qHMy/OCyXRKEAT0ej0uXDjP5cuXabVa5LnEURuNRmRp6iKwVNW7eGt4ukf9mr4kmvWx+WUx61M4G8Py8jKvvfYa586fl53GyBy2ckV20QkU2KIk64+Y7B5wdP8Rk/4QhcJq7aRz3ytqSDyxHKeZBOB+13cuUDUAnHypJ6bPH+Cf8YHqpCyEaEIDo70j9u4+YPBwj/xoTFxqmkFCEiWoMMSgqsR+CkWn0+HihYu8cO0FOu0ORZ4zGg4ZDoYuL7fEU6tqUu74qY30NX01yTonJGqReqwxlMawsrLCN954g/PnzjnTY69MRebcFgKrCI3CpgWTowGD3QMOH+0xHY4ItfiHz2tgTmcMnLhH5vh1lD/OxlwhF3ncMU9Cnz/AP428KFwtYUhlGJdKt8hFlDbWEiiFyQvy8ZRiNGFyMODRrbsc3H1EVCpiFVJkBVlRIv73YqVWGoNCc2Zri+vXX+T8+QusrK6RJI3aspeLAFMDdKUrr0ZpIdccs+NU/ejP++9rehKSwJoSGlv6k1igZXlOnok77/LKCt94/XVeeukllpaWaLVaNJstgkCCK+Z5QTZNKSYpZCWdKEHnhpvvf8jtDz4mG41RpUHiuvip1zywxSKzNv2ei51aL0IVcBd71QnOJvW+8Kz94rkDvD4giYQsW6wTpyqPMWvRKGxeUIynlKMp6eGA3Vv3OLj7EJ2WhDagyEuK0mCVxjo/ceNG6PW1da5cucKFCxc5s7lZNa7WbpmjVpn1ObTC12itYWpTbDhBufY5lK/pyci69tI+LLUTx40xFHlOUZZorVldXeW1117j+vXr9Ho9Go0GibNw9O7GRZZTZgWqMDRUiJlm3PrgI+5+fJN8NIHS4lZK5zuvR+QiVXiWnbb6r4Jy1fdOOp0FMCt3q2el5w7wRZIKsARau2R/CUmSoIA8zVDGEquA0ICZpBze32Xn1j0O7u8wHYwIdUgQJegglHjWKPETn6ZMpylaB7z88su8+eZbrK+vi2mrG1CME+vmGqH6PK36v6Yvn2RVxIfTEk8/Fy01img1m6yurnLu3FmuXbvG1tYWYRiQZRmDwZDpdDqLtadDOkmLpo44fLjL/U9uc/Bol8lgiM1LlHERWCzOH2GGtvnv1CMNVp81xM9RtcVFZl088vgZz0ZfOsCVEo1nEIYkicvBHUmWkCJ3RggWQgM2KxjuH7J37yGP7tynf3CERhpVB2I+iBP1p+mULE0JAs2lS5e48coNts+dpd3rQhhQesu547pzRydv/Zq+GiQDtKmlgxJLxSgO6fQ6bJ3d5sLFi5y7cJ7l1RW00mR5xnA0ZJqllNZglSIKAtpRTFLC4Z2H3PvkFod7+4wnU0mC4DioMpIo4TTG/VWlLx3gWunKGGGWpMA9lrWUWUGRZgRWkagQXRhGB0d8/P4H3L15G1OWEhY5isTmHCiynHQypShKlNK0Wi02Ns/w0o0bXLl2laTZcIkYnPXcSctm+FH7eHFs/mv6EimKQprNJnESEwTia2CshNpa39jg1dde5cWXXhR7cysRcrMsZZpOJX6e1iiX6z20inIw5v6Hn3Dnw4+ZjiaV2bRfaKnWzX/Lmv7LB3gg8cjjWBrKz6mUU6RoQBsLRQlZAVlJejTi3ie3eHD3PtPJFAMEYYjykV/KQny5s4yyLFBa01vq8cL161y7fp2VtVUBuVZV5grhA/PD80wFuFi+pi+TvOefdzH2WWt0oFlZXeHCxQtce+EaZ8+fI05iSU1dZOJcVJYYZVGhRocBgQoox1PGOwfs3brH3r2H5Gla5STDcXBtneXbwrN81emJAT7r1oudvQYKVdeL+30LgHDH+q1BoGk2G8RxjPWa9EICI0ZxRNJsEDUSJtMJR0dHFFlGMUk5fLjLwf1HjHYPscOUBiExIdoGWBNQFJbJJGUwHDEcj1BBwMXLl3jxxstcunqV1Y01VBjIKI0Ptewe0D3jc9dpP+fb/baSdXPwNJ2SFznGlCgFzVaTq9eu8eqrr7C1vUW700YHmsKIdr00hjAIiHVEomKaJESFpv/okIc379N/dEA2nGILi7Kq4t7Ki+m18ng6uc+fRHO7nvy0U2nx0Z4Y4HjI1pcEKl2UWyqojpv9easxi8UgcybPKZUWm2GZiMuEXAfiIBBFEWEjQTdiTBKShooUQ2Ekw0QxmjJ6uMfDdz9meusRrYmibRKaukMQtFEqIc0Nw/GE4XhMVhQ02i22zp3lldde48oLL7C0skzSbKKjEKugMD79kFStNLC8pK3KcZH9WKlX2lPTszTrby+pTynz5BmHOAqVpZgnWwudToetM2e4euUKV65cZXV1lSSOMcaQZRnTNCUrCpRRNEzMkm3RTRP0EHZu7nLrgzscHYwoUgPFvEg+m3cff6J5qrd8ncHNnvs4Hd9ev8viYFJdbWERyO9brLynAvj8Jf0L+IvJb+GETuz1if6sU2dZ9935ZgeBeHXluYjSQaBJkljWK1tN4lYDkpAiDlCdBlG7KXcpDAma6e4Rv/mHn7P3q49JRiVt26CbLNGIl4iiNkWpGE9TRpMJw8mY8TSl01vim9/5Nm+89Za4lq4sEycJVkGWZ5SlPJ8fvfHz7npNPq4+eDaEV6cojq+f/Q6WWYCNU8oxMLkamuv9SF/Sio3NTV544QUuX77M9vY23W6XIAjIi4JpmjKaTphkKWVekpiIJTq0JzHmIOfeB/f48NefMDycQClBHbQRu3TJP1ZfVVl8rkVa7CievdX3ya/6FeuadDywF/qR9Qd7qn2fv+OMngzgFYDnH9Fvqf/5J1XKh0maZfqMXIDDOIklB5hWGFMyzbw3mIuu4uZUuSmYmoKJKjGNkKCZEEQhgVIEucX2J0zv79H/4C733/mI6c6QdtQjDLsolWCsJisM0yxjmmWkRY4OQ5ZXV7l45TLfeOtNLly+RNJqEiUJYRSBy1hiRV4/RhUXP6EuTj7jazqJ6nXlO3a9nI6j+ZrudDtsbW3z4osv8drrr3P+/Hm63a7zP3C6mCKXvhVokiChpRq085jhJwfcfPsj9m/vMe1nFCmoMkA5gAc1hxRZuz71oU4gwYKlhuC5Z5dOdOyKtSlABfb53fPS8pzkfLwPPhnAH0P1zi7k8mgHLo93EBJGEVEc02w1aXfas+wgSlEUBel0SpqmFKVkCClKCV08mUyYpqkETtSaOJFoqUEQSMTLNKOc5jy6c5+f/8NPeXTnAZ1IHFECo9Clczd1Bg1F7oInKsXW9jbf+8Pvc91pWptNKVpLhsnTAF7Rp+z+zLTY43/XyjPS3DRIaVZX17h27QXeeOMN3nrzLc6dPUez0aDMS9LxlDzNsIUlVAGNMKbTaNEMEsJSces3H/PTv/9H9h7uofHGT7OHs4hziV/X/izPjQOj+za/4xnpSa7yzACfk6ZwNe+2a5fVU7i2+GBHkeTX9oYlWmsS56eLi2ZZ5GKqWuSS9E9EZSfSwyyChl/iMhKVpX94xO1PbnLzw4/55P2b5IMxS402nbhBK4gIDBgX/nY6mZCmU8IgYHV1jesvXud73/8+l69clmWXOCLwFlILHUre8Emq9Wv6vMmiKoBZoNVqs7l5hldeeY3vf/8PuXb1BZZ6y1gD48GYyXBMOp5STCRaS6xCmkFMK0wYHfW5+dEnPLh7l/3dXcbDEYWLvqtdPjJ/P+uAWc15a99nz/bVpWcDuAe1n0+5nxZQSkkSA6coi6OIOI5c2CTE8qgsUUrRaDRoNhporTHGkhdFFY/cOEsjf7v64Ontfa2VbKKjwZAHd+/z8fsf8O7bv2B62Gel1WWp0aYdJWIFlxWk4wmT8ZjpeIKxlmarybXr1/nzv/gLrl+/7gCeEIShDCLV+vhMtyDj2Fe5SX+XadbunU6Xc+fP88abb/Inf/oDLl+5SpI0SKcpR4d9RoMR09GEfJpBYUhURFPHNIKYo90DfvPrd3l47wHj4Yh0MqFwCSh14JS+vp85MJs6yBcf6ytMzwbwTyOl0FpyLIdhSJblDAYD0izFGpdv26XhDUJZB4/CEOPs0MuyJAgCMV2NExkcSkueZWRZTlkal/NbgjlgIUBxtLfPR+++z8NbdxntHxBbxXKrQyOMUKUhm04ZDYf0BwOGwyHjyYQgDFldW+OVV1/lj//kTzh/4XzlxIBrzPkG/W1q3t8tshbCKKLT7fLC9ev82Z/9OZcvXyXQAUVeMB5P6B8N6B/2GQ/H5NMMm5eEVtMIIkxacLSzz+2Pb/LeL3/N0f4BodKSBxxhPkXu4gV4Ca4G8npfWPz9VaWnALiILGomKR2jirEjebklcGFAnucMhyPyzItBLtkAksXRZxbBWoyR+GhaaxpJgyROiINQAJ7mAnBTEgQCcC8zhSpgtH/Erfc/5NHHt+jf3yEqYKXRoR3EEqVjkpEOxkyOhoz7Q6bDMQGa5aUlbty4wR//yZ9w6fJlmq0WYRS5qC7zJFsWt35Nz0xWNOEz6Wi2XWRkqW+lJABms9lmdXWdl166wZ/+6Q84f/4ixiiyac5oMGZwOGR4NCIbZpiJJchDYhPTVC3MyLB/f487H93kg3ffY3B4QKQVoQaNxZQ5RZnLtFBZjIvdb5Rw8IqL+y5QzU9PJ8VsFKgrz6oza8tws+W445/PSsH/8r/8r/9r9RAWxg9HvPv2Lzl6uAdpgc4li0MQiBZc0rTUgr37RvFLH87M1HuFFYXjuFqTJA3iKK4SC4i4btA1UT9w7pxaa6yxzuNHjqWUYPSa2vwISX80E9slO+Swf8jaUoeNtWVAIr1Ms4yiLGX9HUVZGnSoicOIMAhpN5o0Gg2WekvkWcZ4PBLvNGPAWknQEOjHtqvscmGVPwt91vN/C8gYCV3t16kDHRBFYVXnlROJCmi1O6xvbHLjxit873vf55VXX2Nr+yxFWTKdpPSPBgyOBmTTHFUoIhXRDBp0Gx1acYuYmPs37/Hrn77Do4/vMd0fEJVOLLDSvlo560ntmZmD4pzCydtt+DY+zbPQsQK/quT/lAN17Q88+gXtnolUzER5f42AqJWwdH6Ny6+9QHOjiw2qng/YWiJEweETc/Ag0BK8Lopcfm1vuCejr3sUcODO85w0S5lOp2CRHGBxQhhGmNKSTTMmkynpNMUYS6A0cSTXj6IIrBXf8DQjSzNM7uKWq7ovt/xWKAKr0IWFacGjj2/z7k/f5tHNu+SDMS0VsdTs0A5jIhWgSksxzZgMR4yHIyajCYEOWFld5bXXX+eP/viPeemll9jY2KTVEhfTWYPV3/Rr+ixknYtnnufi4WXEd0D2SRcPdEiSNFldWePKlat84xtv8kd/9Cdcu/oCgY7I85LRcMywP2LYH1OmhoCIhm7SibosNVdIbIP0MOXRzUf85hfvc/Bwj8CCMgW2zMEUaCyBVoShxoc7t0piLArXdhp13/w1cM/DtQ7a+j7/0k/We2p4nzHRZ6An5uBRFJMkjRmXdhruyndbS26vuYcX/BOEAWEoirYg0MKVHfe2uIQEDjweSKYUrboVn04RX2oiDrNHnqtg7eJqKVViipTpZEC316G71MMohQpmg4NBfNDTNCUKIxqNhsRYD8WRodNuk7lMo6WREMulkfc9SXyXJ5H//Ts9bdtUx5908d8x0loTBYFwQ4QJiL++pKRKGg2WestsbW/z0ss3+M53vssLL7zI2vo6xsJ4MmF//5DD/SPKvERbjS0hUTFr3TVWOit0kw77D/f4xc/+mZu/+YT+w32U69ehD9kkTLL64ufds52eey9+l/3Kceg6Kdyh/vviPj/1cGcqLEp5Tlw/y13/i+bgOPAFQUAUhi4J4Gy0xT3OSR26gp/r9ZVdj5WwOiKOOTNW4xK7VWUWXseTfyV5JxlqlaVyK41KYJpz56NP+OU//TP3bt5i0h/SjhOW2l2acYNQaWxZMp1O6R/16ff7DAYDirKk1Wpz7doLvPnmW9y4cYNLly6xsrJCo9lw7VsfWk8obt9iXZxw5LECC73hd5i0M02Oo5BGI0EHkscdLGEUsLTUY/vsNi+++CKvvvoKr77yCufPniUKI6bTjN29Qw6OBgyGY7KsxBpNqCKSqEGn1SEJEyaDMQ/vPOA3v3qPB7fukY8zbG5cqCYHBlsLhzzHomtTP6pRwLWTb63FFnRloX/U29biblO/Qn17/TEWjn1aemIOLsHjZX4cBM4oAOVst936oWdbntxPP+cVV1BJ0WusBSVWblEkmUckXJMsk2GtSzLoqrISbWZv7itdIeaEyuLMCwEKsnzCNB0yno5Ii4KVjXVavQ4GS14WTLIU60xm80xithkj+oIoDGk1mywtLdFpt1yespKilGez1sxEihop9199RK86x5OW3xMytqQsC3SgSBKxhzBGVlGiKOb8+fO8/PLLfOub3+KFF16g1+thjWU8mbJ/cMSj3T3SvERZjcktlNButFlpL7PU6tHfO+Ltn/wT7/7iVzy4fY/pYISd5gSlIrKawAiorZ9Xu09bTcPctlrj+OaZTdncHj/o10XNCuDue3WyXMljSMGcTD6b8M7y933hHNxH0DBumSuKJLd2FMXiqrkI7hqVZVlLw2sF7E6hEoQhgIj7ToNuqgTr7qXdHL96aQ+aesVbCIwiKCEqICgspAXjwz6f/OZD3nvnl9z55CbDwz6NMKLVaIh4aKEsSkajEfsHB+wf7HN4eESWZSRJgwvnL/Dyyzd49dXXePnll7h86RIrq8syT5sTq2aBB+oNW43Ita0nHTk74/eElEhwZVlgrUEpCMOARpKwsbHO5SuXeOmll7jx8stcvXqFtbU1AMbjMQcHhxwe9hkMxkzSnNIABERhQrvZJdIxe4/2+OSDj/nNr9/nzie3GR0OKBz3ViXCvd0kW+Em274/uUbzva7+3XPTyjT7U4sc7S91bK+f67tr1/vA59EfnpiDWxd7PIqiaq4UBEH1GKYCpNAM7sKxiyKv1q7x8y8XpEFSB4kXVyUZuOCJTkBYGEDq4Jbf/pd2YLdKOGxpLcPRmOFkymSaoYKQre2zJEmDvBRdQDqdYIoCa0rKPCdLU2AWjKLRarKyuszS8hLNVpM0TXm086ji4tJQrhE99/YKmbp4V1nHifRSp8W3+90m6SfWGoyR2DqlMSSNmOXVZV57/TW+/e3v8sabb3L56lXa3Q5FYRgMhhwcHLK3d8hoPKUoLKZU6ELRa3ZZ666w2l6iGGf88qdv894//4rdOw+ZHA3JRylBIemJIhUQEcicXSa4ro18A86+z7jsrFX8t3nevkg1cHP8AM/BZ9eti/V+QJn1HV3n4OfWuOI4OI6DewAvcvAnB7j0Yjf3FkXITCwXEHujE9xoVD2+W8OMwgit6xZibqkkz2VJpDZGyHgh3B48wBeLPNPsTq4oF8heBViryXJLXiqKAnQQ0Wl1CIOQVqNJGAYEgDIlZZ5SlrM4X6UFFWiiOKLd7dBst2i1WwSh5BKP4ojSSR55nku+c5fp1FrJjSVafyodhrybVyz6d5jR8S1Cp23/SpNF+JxrS/ABDOV7aQpKW9JqNVleXeHylSvcuPEKr73+Gi++/DJnz52j3ekwnqYcDYYc9gccDQYMBiPK3KJtQCvusNLssdpeohU0GO4ecfeDm3zwzrs8unWfbDDBTgqC3BIZTURASOCMWwTc0mdqcK0BfQZw2eudT7Q0qbSLwoFMqGqrqktKv6iTwvcHt70movv7V1JqDeBxK2H5XE1E1yJFCrhnAPfC+RMDXAwNpMMK53KGLFqWkOrB7/yreq14HMc0Go1aLma3Ru606WXpFW1O8WZlhPBLJq46FuuoXoOz4udQSgMh2AhFjFIhZW4ospLpNKXRaHDxwgU67SatZkJZpIzHQ6yVuXaa5aRZjkGhw4Bmu0m722F1bZWVtRXObJ0hCBSj0YjxdMxwOEC5kFF5UVAaK4Nh4DuQrK9Kh591hjpJZ5mN6SfR4/Z9Fck4Rakoz0CHMuBZUwrAy4LNrU2uXrvGH/zBH/CHf/xHXLl2lY3NMzTbbbKi4OHODrv7+xwNBgzHU7K0QNuQSCWcWTnD+Y1teo0udpLzi5+8zTs/+Tl7dx6SHY1QmSEqFQkhCQEhmsCDoAKyB/eMYVEDoIe3dttkaHBbXbf0fd0X/Ha3b7HhZgOH21EHeDX3lk+FADwMA6LmbA7eWndz8Gqa+BkA7gEtcmcFYTEKwEW/8FtdZs4wDImiWMxSXY7uykfca86rHNy+BmYV7KuBudHuMaVaq1Rggxm4iVEEWKOwJRI32xgUhkDDUq+DUoYgNGTFlMl0Sl4astIwzXMXDaQABXES02gkLC33aLdbLC0v0Wq3iOIIgKzIwSkUozgWRaF7fuXH+eMSOvgaOGmH31f7/G0g65Rm1vlsC6cxBKEmacRsbW3x4ksv8sZbb/DNb32TF196yYVZSiit5WgwZPfggP2DQ46GQwajCXlZEhCx1Fpmc2WT1dYKDRXz4JO7fPDL9/no179h784DylGKTi1RqYRzG01sNBovVc0YgXBKx9FPALZvEsXcTGzWFqo+W68di5971/u33z+7isJd2AF8Tjx3+z3A41bC8vk1Lr9aE9HrHNyvCNhnALjnqMKpBZje6szHGxfxUwaDKBIwyDkyis+Be848cb4CKqqJtp9KTjkif6JEUbhGxWJMQZlnjMdDxqMBBwd7tJoJFy+cp5U06DRbjPpDjg6HlAayvGQwlHRHaZpirSVJYtqdNuvr62xtneHKtWt0ez3iJKE/HHB4dORcZGMxd3Vc3b9eJa3VBsSKVNXcx8hvPXnvV5XcUqczlFJaFK5RHNFbXuLGa6/wp3/2A/7g+9/nO9/9AzY2N4mShCzPOeoPuHfvAY8e7UgG2UnKaDQBq2lFbbZXt7h89jJNlZCPpvz0R//AP/zd37P3YId8OEWXltAqcRt2vgoaYQIoZhwSqlqtROIFkNfr/ng7zMC9uF021Bq62in3VrXn8eD2g8Hcs9Q5+Ela9AURXbj3MwLcz4oFmL63itKs/t37gusgkCDzLrvnIsB9RSg4lXvN0+zF54qtxlv5c2lhK4d9ZVwFGBEPy4x0MiZNpwwOj7CFodtsE6BJkjY6iCitwun4wFjK0pDlGblzZ0UrGs0GQRTS7nZZXllmfWOTbreLDjTjyZhpmmJc+F2tNdYlo2c2HoFrZ3m7k+vAbz1571eXZHqnCKOI5eVlLl+9zCuvvsqb33yLV157lUtXLrO+dYbe8hL94ZBHu3s8fLTDzs4ew5Gsb4sRuEarkG5nmTMrG3TjDmGp+OT9j3jnn97m9oc3GewdQl6iDYQuGouEXnIgcd3VOhHY+3rP+pGnWk9S8rt+lKosN70uxXPqxfZZ5OCCIy92+3vMjhU81J/JIgOAVkok4lbM0vl1rrz+Ao3NLwDg/hX8XNLPJ4WDyxwm8M4kLkpqWRbVEtkiwL3y7sk5tTtGbju33QMb96ldo2qkErSS77YsyNIpo2Gfg71d7t68TbfZZntji6X2EssraxQWMmMQc2VLUZSkqcTVTrOUvMgJopBWu02702Fj6wznL1zg7HnxRptOp+zs7DIajbBWNPKVDsIBfJHcky9uhlrHOXnvV5OUm5IEWpM0ErbObvPmN9/iO9/9Dn/w/e9x6eoVeivLtDptdBjx4OFDbt+5w737D9nd3acsrARiUCGBjojDBitLa2yvbREUisnBkJ//+Kf8+G9/yPhoKBFYDIQ+z7cDdxUR1bqlqGPglqc9ubhvyuN1Bm6hGbj9sfPbZx11xs6Q2nFSgvx0e72SrfZ88tOJ6O2Y5fPrXH79Os2NzhcHcHnE2RN7BZt4eYnYXpYlWZo67i0d2w8KvqNbK5xNe23zY8kdUGd9vhLAgVs+K3BXjWLRteI5eaAUAZrAaqbDCSY3hHFCe2mZ7uoKRiH5x1OJ14ZSlKZkkk6ZplNGkzGlNQRRSBjHEhmm1WJ1dZWzZ89y5syZyp49z3KMS8902qv+LgE8imMunD/Pyzde5q233uKb3/omr77+GucvnKez3KMwhv5wwM7+Hnfv3eP+g4fs7x8ymkzJ0pw0LaCETrvLSm+VtZUNQh0zORxx+4NPePfn73Dvo9sM9w8pphLdR5eSSFAbB26HHd9zhXtTcVIPpgpn7otIgLNd80X6egVyL4bPLjO/Hce5sbOr1KYAs2M9F/ece8btFRAGAVE7EYC/9gKNjQ5GC7OYSajPAvDSAbyqptmHRcQwYwxKydq2OIBo8jxnMk3F3NRzfG+C6r4rVBVBZbEa6xUxd8P5anTNVlOG1HZXUsHcJaWySyOebMpqpuOUw/0jAhWStDqsb5xheWUNU1hsVpJNMslTBRRZxng4YjqZMB6NhUNFCY0kodPqsNRb4szmGS5evMjqyhqBEsu/Is+r59EumqyajZH+iau38yO3P0bh+sDs0OM0f7E5qq7hyf846Zz6Tdx+f9hJt/XTsjiOSRoNms0mqysrvPLKK7z55pt861vf4tXXX+PSpYt0ez1AMRwO2d/f5+GDh9y9fY+j/T6T0YQyLVE5mKmhoRI2lzZY766x2l4m70959Mk9PnrnN7z7T+8w3utj0oJymmOmORGaCF1xbuXqS7n6tCd1EmYvVQHcn7RA85uqo9336k5utz969il16KeU9WPnAa5qx/ijgsAr2RzA1z3AZ5r0RYArY6ws35ZiYrXzzw/5//zf/5/c/Of3sEcTwlFBmZWgZQ4kYoN/9tmDe8VaGIQzl9GyFDdPR3Xu7ddH5Txv+nqcqr6nTgL3rLf7hpRNLt9TrYIs3ijFYpWhIKcgx4oGBh1qwiRiZX2V3rlNtl+4zPqV86ye3URHmqPhEQf9A/YO9xilQyb5hCDWhElIq9Oi3WuxvLrM8tIS7XabRqNJHEWMhmN2Hj1ib3efvd097t+7x927d9nb2+Ngf5/xeMxkOqUsJF6cNKbTurtinKOLtWIr4IGvqxBWrjbcfj9tkupw23x94wYNPZsSVVMtd5rS9Ws70+KydBxIphvVwOmo3emw1Otx9uxZts+eZWNjnc3NTba3t9lY36DT6xLFIaUx9Id9dvZ2Oer36Q8HTKZT0mlGnhaUeUmgQpphk+X2Mqu9NTaWNyimBTv3d7h78x73Pr7D4cM9+o8O0BlQGigMGIh1SOjUqoEHeF1E9xy8JmRzbPDyvdFvdeCrzqqf6fefRBJO3LVCrQhTESs67bYaUCVQOowJSIV1yfQySSI6m0tc/t7L/ODf/iVLL2+RBwVaG7QWqVTZwK0gSRKQp+DgbnnBd0GnBfQAAjFgKUtDWYhlmhfBa+/rSM7SWqHULHqKv3a9yNXrpUbVT6kS/xzVmVXfn53nByatZFqglUYZhS0sRVoyHo45OOwzGI0p8oLlpRWWO11aSYtQBZKNsijIXeK7LE0ZjUYSsWaakmU51kAYhrRaLTqdNivLq2xubHLu/Dm63R7NRoN2q+WyXUo01ygMRTGpA+E0bulQlJeIE04l9fh3kRf0LYAHsnzxm6SDeQD7c7zOw7V7HeD1/dUAY8SnXilxG04aDVqtJt1ej5XVVba3tzh/4Tyv3HiFN954gzfeeINvvP4Nzp47y9LSEjoISKdTDo4OefjwIXfv3WNvb59+X+rN5AZbWAIb0m10WO2ssrm0wXJjiaDUHNzf46Nf/oZb733M/Y9uMz0coTNLWEJgxYAlVgGB1W56NhPPfX150bx6yRPo+N558J5+1mJx211/q59Z9ySrPV3Fxet9vmpbLEEQ0Og0WD6/zpXXr9PY6FAqI9xb8Vk5eIBWgRjm4/tJ7UXmPqWDWKhM0/z3WXVJB67guMAR/BH1z2NUm+P4r6raPNOki1ld/WoSqcNzcw8K+Q1FrAi7DZprS5y5sM25S+e4dO0ynZUOKtbs9ve4v/uA3aNd9vv7qEihY03UjEgaCVEc0+l1WF9fZ6kneal9dJqxGwyyNGMynfDo0SMePnzIo4cP2dnZ4XD/gIODAw4PDygKCV3l36soCsqicPXmq3v2XepQ6nGuNitR33U4j2XXHjJwLCj+fPu64+VwS9JIWFtbY319g431dc6dO8fFixdptVpEcczq6iqrq6v0el2SJHHvckS/f8RRv89h/5DxZEyapuR5QVHI6gqFotfusdxd4cL2BVbbq0yPxhw82Of2R7fZufuQw50DxgdDJv0RqoTAaAIj7zWT2OSRvcny8V7ltzyOg9fPm++FJ3Pw02iRg8+UyorZerXCgjrOwQVr0gAKS5JE9M6scPn7L/ODf/dXLL20SaZzlLIEwckc/EsEuDvONclnBfjcT/kl13WKN6HaAd6GvNYIAAZDrgylKiHWNHotts5v89KrL3H20jlWt9dJTcbRdMDDgx12Dh6R25ycnFKVlMpQ2JIwiVlaXmZpaYlet0u306XblU4fRxIfPgwCDg4O2N3d5f79++w8esTB/j67u7s8fPiQyWQiSjkXp24yHjN127w1YGkcQLwuw3nuzVEd4O5NhWPPD7iBi6MXhKGY8LqYeo1GkySJCYKQdrvF5uYmZzbPcObMGS5cvMiVy5cJwpCyLEUi0iIZZFnGvfv32NnZod/vMxwOGY6GFGWBVhKuK1QBcRTTCBosd5ZZ7qyw3lsjJuL+x/e49cFNPvzVBxzt7FNOC8gMFBZtRTmqrJa3csDx/3uzleNUmwfXyNfD8Z680Mek9qq9j6fPGeBxRG9rhSt/eIMf/Nu/pPfSJqnK0doQBPzuA3yeZg3p5zGL+2efs+vIX0leZlhlCCJNs9dieWOVzfNn2L50js2L25y5sM24TBmmA3YOd9jr7zLOJ0yKlEmRkVOiQk0UinNOIxHF0+bGBltbW3Q7XcmdpRRFWTLo95lOplhrGA2H7O3tcXh4SL/f5+joiKOjI/b39jjYPyDLUtI0dRFxphLM0tpK/1GvyUrfYeTTk3BnmcZoLWBrNBq02i263R69XpdWs0Wn0+HMmTOsra/T6bTpdDp0O11a7RbNhqwYtFotTCkpgvqDAf1+n/5Rn6P+EQcHB7JU6FYPCu89ZhTtRpNeq8v25hZn188SmACbGh7cfsiDm/e4++Ft9u7uMDkaUU5ydCHr28rKHBs3gC/OqZXrf74e6i1fm+DUts3o9L2z3nRyfzuJPmeAJxFLWytc/v4NfvDv/oreSxuk/B4BvH6crHOK04knV9furk50d1Zu7iypWltiTY4ypSysRpqgGdFbXWL17AZbl89z9uoFkl6TqB0xLsaM8zHDbMhROuJg1Kc/HTFOJ05T7w1/AtbX1tjc2KDdbtNut+l2u7RaLQfQgHa7hVKQTqcMBkOOjo4YDPoM+gMOnPieZWkl4su8X4xvitJFwKmRdCorNuHWuGi3YkYcBjLv14ELfunn1d0uvW5PElW026ytrbO2ukpvqUezIemjvGSRpRJPLZ1OmU5TDo+OODo8ZDgcMhgOGA1HZFlGGIp7cZwkJElCK07oNTsst7p0khbtqM1of8TRbp/bH9ziwSf3OHqwT3o0QeWWsFTEBASl6HpmraVcAkm3xo00dNU33cd8C8uOqqb8pppIP+s1833sywf4Kpe/f4M/+3d/SffzB3hdi14XgY5Xy8kA9686o4qT1M71NF+1i+RbY7a3fpw0tozutv5kbp4GYldf3dd5eCkgVJZAQYABDKU2lMqik5ConRB1GsTdJueuXODC1QtsnttkeWOZUT7mYNzn7u59HhzusHd0wDQT11PPvYIwJIzENj+MIjY2N1lbX6PT6bC0tMTG+hpLvZ5wRSMRZ7z9wGQ0ZjKZVCK7OOqIhns8nnBwsE+WZf5N/WuBAyRYAVmc0Gw2aDQkq6tX5IlILnHsJV+7JK/QWhPFMb1eD7Sm7ySLfn/A3t4ej3Z2GA5HTMYTsjQlS1ORmYxhOp5QFiVxFNFtd1hbW2VjfYPttTN0kzbNoMHDW/e48/Ed7nx8h/u37jM5GlOMMmIbEpYBKjdESGYSMgmxJUktpcGMb+/Zit4cw6jP0mYAn//OXO89HeCzs07ulfO0CHA3NaoBXFkte5QREKqTtejUAV6J6BsioqsZwCFAmWcAuNIhSgcy6ig8NGs0/8upgusbqpH3GM0NFjOaq9pTD5Dq8I1Yv8Pc9BtmF7H+6UURM3eEgkBRWb2BoVSGEiP2+5HGBmACWN/e5MzZM2yd22Zja4OgEUJDUYSGUTlmv3/IcDxinE4ZjkcMxiMKW1JiMVriw3V6XVrdThUDbnlpiV63Q7vVqkCWJInY9Dttt/b2/y4stdaabJpycHhQhaY+ThaUkoT3UUTirq3ULEqsdUkjxftLxPrSlEzGE9IsJQxDiqLg6OiI4WjEZDKlPxD7+9F4TDqZYksDxpKEEXEQEeuAZpyw3Omx1O2x0uuRhDGB0WSDlPHBhN07j3hw9wG7D3c42DnAZCWqhEaQEBFCYQmVJtYRtjCyUoEAhcW2V7PtuAF+keb61QJVh1s1O8J1kornu37nNs6ortSr63jccXMLFVYAfBLA5U61MFLKgleyba3W5uACcFUDuCKocfGnBLjW4UxE9y9ywq/j5BpicbOj086ea4hjB0ltzdXvScdUVN8pQ/2xwxG7aT9iKj9/rWJkg1WWwpbCjeOQKInoLi2xvLrCmXNbbF/Z5uqNq7TWWgymQ/b7R+wc7PNob5cHeztMTU6OwYQKqzW5B7yCQCniMCSOQqIwotvrsrqywtLyEstLSzSbTVrNJkmckDQSWs0WzWaTwHHgLMsoi3LxpcDNs7VLyyP/xCJPovQYlFIUeSFz++mEyWRSTQN2d3fZd3Pp8WTsIuEaF8BSUVpLmucU04zAKgIUrTihm7Q4s7rO9tom5za3WOn2aAQRe48e8fG7n0j59ceYscUUJaYosWUp0pRRspptdKUh1wi79lzweANW8JFfavZ9Ro6bnsZsAKkdT3O9sEb13/L9xDu5wcEf4T9FOahmIvoJ6+CViO4AHicRS9szEb334gZTr2TTVADHepA/NcCjan3t6ci/+mIV8JgKrO056TQWteZC/ljvEIDn8MeeYV7Uqi5VdQpvICI3mo3HoiwqywLljHuSRpNmq83SyjK9zQ4r28t0Nzu0ltvE7SZBMyEtCwbZhEE+pZ9NGBUpw2zK0XjIYDomKwuUsURBQKClg8VJTLPZoNvp0O12qzlz5ETnKox1GKKQ0FO2FkyirtYQf/5ZHSiXRTX3CRmxldgv6aPEVz/PMwbDoePYExlEXOqpIApBS1SUMEloRQlLrS69Vodu3KQbN+iEDRoqROcl+WjK+LDP3oOHPLr1iIP7ffoPBwRZ7DiYdHQ7q3hwedkrqjjrbJtCoKNq550MbiEB98n+AMf7qoDrZDred2d3nPUYqqmDPCUIB69A7t7bA1yOm4nocg0BeG97lSvfv8EP/p3j4H4OroEaB/8SAH5yZZ9USZ6qPaecehLAccfXPX6q7QvPML/vZLLIjaSZZ8ELjJlxSq0DlA7QoaYMClKmdNc6XH/1Oi+8/BLXXn6R7uoyYSthfzxgd3DIo6N9dg73ebC7w+7RgeSuNiVBGGDBBUOQoIRJktBqNcmznLw+x7buP6VcwH4tprdO7PbcWg6Zce65+anzCZC87bJNeSMYR6WR9y3KUgxttMs/F0XiQwCsra5xdmOLc2e2Obdxhl6zQyuIyfpjjh7t8cn7H/DJbz7k5gcfcbizRzbMiGnSDjqEJnYvI9IS1khbWdeCc41zvDNIP3AAly34LdUx1bffTYDrGgf/nQe40KcBfPHXyWSRR6+ay4o22keTtThAaCkmMJSqIG6FLK0ts7yxysrGOr3VZTorSzSXOzSWOpSBwmiYFBmjdMrB4Ij+eMg4Sxln4sgynowZj8eSdCKKBOB5VhMg3TzjhIdXIAqFepf11odK9tVPFc7vxd75fVprAqcLaDZEs95sNmkmDTqNFr1WmziIiAiwWYlJc9LRhLQ/YrB3xHDvkOHBEYP9IwYHh6SjCSYzRMTEukFgJViGfx+pY3kOngLgvk2PS2vzv74G+O8AwGezndlBi4fXL7u4z5NldmDVYMLL60cAYsMt0QUsRhkKW4hOMtT0VpZYObPBxWuXuXj9Kr3VFTorSyStBjZQPDrYY6d/yN6oz+FkyGgypj/o0z86wlhxismyjDzLFzqRd9yZmZNalwN9rqvWwF2B3HFzGZx8SK7FJUsfcktCSC8vL7OyskKn26EdN1nr9NjorVIMJwwOjrh36y73b93hwZ377Nx9wOHDPSb9IbEKCZWeeXlZLcGTVIi2kvzAk7zT7Ok/DeBCCxzcypb5N3FHfg3wkwAeoXX4DABfrLBFOl5Jnqo9p5xaB/jxQ2ZVOr9lRvVzFvd5stRfQSq7ajh/D1npq84wViKFWoUo57Sl0WrQ6nWIO03itpRmp0VvZZnOUhfiENVKCLotaEYQBuCSMRYuVvzU5Tf3c+Msy8jyVDh7IfHNjBXAe5DOHt0B3H3HAd0idvONRoMojiUcdpI4LbvP7R5LWqk4Jgg0uDTQ5TQjPxoxPeiTHkhCx/7+If39I6bDCelgTD5OMWkxi4VWBWBwTkY6cFMKVbWWiOezp58B/Hgrz6jej2p9zgk57pcc8VwA7nuKB7h7F/f5OIDLMQJwqZPHA1wtKNmeAeCm0qKDrK89PZ3WOMcryVO155RTZ6LZ6Vf/3ABe52qq2iM/lQMNIr5Xsb61Eg08hiAMCJKIcZYySieoOCBMYlbXV1ldX2NpfZXlzXVWt8/QWVt2S2eyVl0UOWmaOQOXlDyXhH1pOiVNU7I8IytyclN6FVWNS0s9CcBlu/xzXctawkjSNnmlXSNJBPBRRBRKiGylFGVRkqYpw75Yqw0Pjnh05x53P7rJ9GDAdDSlSDOKNBdtuhG3zcBI7jh/T21lRJwDuA9tNddiDhTVhtNamRNa0B1bA3hF1mI53Sf/+BmL1/Z08nbXE9yvOgf3ewXgsg7uhlm3TGYp3bE1Dq7EHS5pJPS2VxzA/4rei2ukqkQpg1YWRSkAR9ZxFU8N8M8iop9GtYpYoGrPKacrZguLxw/x3WVxy4wet8+TxR24APC5+839FlEZ63qWsoAopghkWSw3JVa7tD3NhLiREDVigiRGJxFRq0Gz1RJrt06r8jRrObPQMAgIo5A4igijULTZocYGGuMyY7p+VQmp/vlmn6pCTuGS/3lnljzPybOcshCt+mQsy2bpNGUynjAeiS98Mc3IR1OmwzE2zTF5iS0ttnSpgQyy3OW+U0UUcKKqVhLR1PnG+4q0gsGFFjrewsfJt2Lt2BP7hwzEj7+i33taz/D0uP3+5h7u7ppWakK4uGssSmxdRLcK45WMCqIkotVuCsD/8AY/+Ld/ReNaV+oKi6WAGsBlff2ZAP6sHPw08hV0vKKqPae0xAzg8wqzOtW3L97hcfs8Vf2sBnA/f50jhTyHRdLR1lU9bi5hWcgzLS0N7ndpjSyXBZq4kci6d6tJkiQkSczy8jLLy8s0kqQyK202G8SNBNWIIQ4xoXBCJf1q9pQLomol/ViYTiYMBgOmkylZmjIZjyurtOk0ZdAfMBwOScdTptMJ6WSKKUqUkWCGofIBFhyXll6HMkosMOVlK0nC14VVYgsgkVVcxSolSTRmT+rf4Nmp1rgKV++fCvDPSvP9ut6/pKtoB3J5Is+9oQQlALd2NhAmjZhWt13j4H9JdKlVXduQzwMcmUr93gK86ux2dv1Tn8R3wPrVjn31/1thPwvr8OAMZdz72OoUD/IZ98IpvsRf3n1qSa8cx5GLdzfbh1aUocaGmjKQEV+5d6u/5+wpK8ECrKx/57mEk6IWyto6n/4iL8hz4e7eIAVrJaiCC67gzFLcfRyg3dK2B3idqrhoVXEP502cYfa0xxrkMVRrlzmqvb8A3M5NBr4Y8pU8/wrS7DWAW+tMVEuUKkVKVm4OrgIRcqKAZrtBb3uFy99/hR/8u78kudwGp02wNYBXMWSfDeBfRRG9DvDjBx/bUudss03HgC7k0eK+n0DzHN0B3H93n9KxZjR7Jzdn9veoczhckIfaNWdKGRcEwv0ZBcYtvclx7tPddPE3+EeVa8+ESDdweInFHW/lgeQYV38+IHUd4LLfj2S18/yoIzcBJ3r64IdWmHe1XW5aHXwi1ffUX6vaMquqhas4ReTcNk/Hr/TsNKu0uVexzInoUveFA7gE1dA6RAchSgUQgMUSN+I5Dt64KiK6ceefBPCnROuzvvyznve09ClN5sVE91O533WSn6oq0g3UzC74pDJjP3KO0khaBY1RCqPkU3iGM0F0ShYpCmPAFFDmhjK3mMKCUWgCAhUSqEiWk0pQpUIZRahCEh3TCBJaYYOOTuiqhA4xbWL5VK64bdVvFdPSMW0tny2d0FQxMQFhqSAz2LTEZCU2s6hCMrcGVhMQECjh3S44Etq9k1ceYb2ppcaqWtEaqwKM/41wcF/X1tdnVacn0+Kexd/1Lcf2PbY7Hjv68yd3Cw9/5b+70bDKJBpFxElMHMdiYzEXdlxeQri3H56P01MCnNpjPWn5MmgBgAsgVHYW7UXmjLPPWQPPwF2B/NQyA78A2IFcOZCjKNG1Tq3dVEcA4Jc26oBXVjk7bCnyF0ixAYEr/ntYKqJCEedIySCql1xKmEGY10qhCEtNVPrsHwGRnZXQBoRWos7KPeUpZB1bo6wk8ZuB283/HOD9gFYNdLV6MB78T1THJ5dZm9XLyVTfK5LQScUf+TmTu+QxZPiuiZvZIXoKHWiCUJSpYoo8A3hpJB8ebuZuT13ye2KAfxaw+vNOOv9x+z6dLPWKkxnV7PN4ZdZBrFzN1jvIrJN5A4OFBvecZbH469YGCuWNOSqjDnEwkGPkU4oDBxqtHIAJ0IQo9EzZYt1goALQQSUllBaK0lKUlrwoKfKSMpfPIi8osoIyk88iK6ptRVZQ5hLkUJw8jCjEcPHqwhAVSnpnHUoCC63dMGMVYS1cklGKUisK7T6VonTbSvddAC7FOkWjUVC6Ij7dj4ednTt2RvVpyFzx6o3aNWZHfrE01/9Ou11tuxxrK0Wj+O1L/YdhiAVKlzvdOHdhU0qOdRHRT8bQEwLc0yJsFiF0Gvn9T3POU1B9CatGchdpXhH9pAPXweg5jYjgTqSsnePPq19U9s7+5EbuusaD2xcHcrcmrOekB5m9zr5LYMtZcMsZR/caVRH3pZRKVwASFYqshJZO7BVJovb9WAvINv9ebjqO8dp+raTUrqFQaKMIS1nfBrl/phVZoMgCyANFHigKV0oHfFk9EHMMo0RfUCoo9DxofTz7Kq69U4QaBaWWchrIqYG7fv6XRvWuWbMStFbCdhdl6YyUvKOQ5LVTbunQGENeFFWOt6q4jL9eh3IaPSXAOdZF5rc/jhbPO+kaT0u1jlvTxs4Yq/tdH8c9wOricG3/3IBQac+9ssjJUPWbuOLrWeb1dYB7kM/EbT/ASKkNMFZEXuXFXOuAbmXQEXF/fl4/96ndHFeL6IsOhOMrWYqql2rtuZr/yvsZKwJfiQBPuK+PjCN1FxhFZBzArezz4M60Incg9xx9npPXwKoUpfb3ke11YM4SVwj5waDOxefwU9X/DOQVd/8s3eyzkqtntQBwU/PeK8pC3kdLNlvt7BmKoiB1HnweyDLjdt+9nvkUegqAnwbGk7Y9b6o3s9CMO3mt7KyDzv/NOPciBxeagV8GA3nlxatUfzUurc1CqU0JPu2vDm5q0oRwwBkXN6iKk1disOOQ1Tl1Tl5x49qgWHs/XAikUnlRWwAs15DBS0R0AbhCQOpBnTuQFxrh4Fr2G8d1/fNZf5/aft+T5oDqObiTKuoc3DfR8dZ3g4Nr0S8N3G4QEuWZ26QUQRASuZTarXabTrdLu92h0ZQU20VRkjlrRWOtBPbQYu0nS6P+uzgC+UHjJHoKgPua9ECvA77+uVi+LJJ1Zx+oQT5r5aS/Y8dQbZfr+aAPHD/WFVMrpbaYenHHuKsyG4mPF4VFW6eishAYCC2ExpXSSjEQGfkURw7fqd21PDs7pUXq3M7/9pwz8Ndyx1qkHgsNubaUDpSBgbiEuLTEpXXP44o1BNa9i5UgGn7Y0dYSGENoLIGx1XELQ9PsWCvXDIxsm7XJfN3556zm917lUb3/4+rev+nnS3I/4dBBGBDFEUlTAN7tdWl3OjQaDXSgKcuCLM9JHcB1oKU4oFcx/TXiJlwxoeP0dADHXWeufFql1Cvu+ZFv6jlw+w5R6xhz4JSV5wUAu2tVIKldo/ZXAVtbyjrIXVkcYDxrWuycvni+6oERWOnYoREASXHgLgX09UwedVDKEx6nRc5Wb9IK4DUxFwVWy9y5CKDUcvXACrAF3BBVIDcCXA/eOdAatLWEFiJrCev7/UBQK1UduKKta7Nae8qDyqcfYEs3sJp6PS+++BdMIpo7ruvCbPkgnFUJJVx1Nf/GB7YsxA/f1qLyuE8UlZnRafRkAK/OP94R5yvshH1fFlVzvTq4XGc/AdxzxQGigm+tEx37vtDJrAe571yug9VBX78D7ryqc7pOTq2je7AFjnvXwR0ZhKtZS+A4+Px47trglE49N0Y7WgR3NVh4xVgFcLmAcHA74+JzHNyDcjYBkneThcIQiKxIJ4/l4MwGuKCyQpuXinB9UdrAi/PHBwF53do5x8rnT16c1tpl4XWlPj8XLh2gg0DWvbGihMslBp0YwMwK1aD8WQH+RPTFVMxnoarJvFJGWclkoqzn1e7TYJRx++plAfhz5fh+D2DPPTw3rwPdH3sioJ15DHZWBORGOrjjltqANgJ8bRx4PLDnGJSdTSlcPczqxN+1Lp14krn1zL58XiKo5sGu9yhkcKlz67pYPlMRuhTOCrSyBMoSqhm4/bRisR1kfUBUjIE1KCvbrJJ2823nzT4MUu+FshRV29ff8fn2VYtovnWgiaJQwGsteZ6TplNGY8kjXxQlSov/vQ/FVZalRJE1pjJdrivrZIw9HeJPBvC5+vDNXSvWbz9p/2en+gBdlYoWd7hOgpczwWoPQImMqgJQoRIWEliMdp1FGzlWW2zgAEpJactaR/KTVLBazjHaYAL5LHQpRZXkqiBXBYUrpSqx2qACi6XE2EI6rjIoW4ItwZQo60rlfGDA3Vvm88YNHkYkhUDMVK0zVS0wLpBjXanmlFte444ouEygMUFAEWgKt4ZttHh4SZZYWXHQKDeISJtap/QS5b+aex6jregGA2TwtCUon6N9oWhAGUoKSl9f2lAGljK0GFesVwwoI3WnSkol9Vyo0r1xibUFRhUYXVKGhjK0lIGpjnHeLzND+U8tT07KRb4JAtGCq8oHX0R0nylGK421wp2zLBeX3yxzSSEgCOQ6YSh+H2Utx19t4WOO/JMuPvGTAbyiOguo10Ed3CfRadufnBaHDeFUIuqJGDk/v1NKRswgClCBroBOAGESuhKgQjUDtZNNVegHAEtuMjKTUVLO748UKhCQ28APCBJiuVAFGTmpzUltxtRkZCanUAUEljAOJHtKkaKUIQwUmAJTZChb+sUw4eauGET+VqFExC21i9euLTZUqEijowACRW5KCmNkOUypapnMWNzyma4sl1UUQRxRBroCuQ00KpAw2VoHBMpZ0lnlpIPZcqTRSpxcFGSmdOGlFdo9j1GG0hYobQkC0Fo4dx3k1hbkZUZaZqQ2owgMNlYQa2yiIQYi0CEoZTA2p7RSnxkZmUnJTU5pcsoypzAFZWAxEdhYUQZW9ruBZtZxF0F+EtW2V/V5vD8rF5K63WrRbLWIosjNp2dmp2EF/tkc27jUUz7gZVHKmjhWYv1FkcSo11rCjhufftuZqsqT+/9n71It2z6Zs0npGvtxEV0+DeRPT6dV+Yz8Ee6zkk0tJtQ0l3o0l7p0eh0iFOOjAelwRDadiiWQtZjSkNuS9a0zrG6sU2DJspSdRzsc9Y8oi5JGnLCyvEy306HdbhNHElM8yzImWcpoPGI4HjOajJlkEpQ/iEPa7Q6dVktCHUcJjTAitKLt3n+4w+HeHpQWWxRkkxRTltIJXCDDSqxUSL3q2RKXvKXs83M5pbRwhTyv5ny+M5YuyZ/WEh7Ja2ejOMaCKHKwKCDSAZEOkBHBWb5YC9bIhMbrMlzHVlpJVtmyQGvJkRa6IBFZKu8VR6FkTnXPLr1PtMpFkZPmuQwaWhHGseNe8qYyoFtsYeh1OiytrUISYsKAuzsPOHq4S1TK2jzGYpoR8WqPxtoSK8srFMMJB/cfYUYptigxpYXSu4suSqCLVOvXSkDmDVKUc8rx3yMXOKMsS9IsrcAqCrSAyMWiN8ZSltZZFkpgTZSkAA5CCIIIHUiAlbK0GCOGLlEcsbQtyQf/9H/+SzovLiPJuZ0nGqVzNPFRXT43gH/+4H4y8iOW+67k0wIqiTh79RKXrl/j1W+8TrfR5OP33+ej997nN++9z2g0BNdBrdb8xV/9D/zxn/2A0XTCw4cP+eu//k+8/957NBoNts9s8eL1F7ly+QoXL1yg1e1CklAMBhwcHvDBRx/y0Scfc/vuHXYP9jFasby2yosvvsi1q1e5eukyy90lgqQBwxGTwwHv/eKXvP/rd3lw5y77j3Yo8wKMleAODuB1oxCrFJkpKawliCOCMBTRGLGIorQoFIEKCINA3DydcYS1UBRi3ggyIIRRiAoCd30R7W2gCZWkCIqUFqWdsSiXzMCWjkMr8WAqkHluqSxlIBYF1pRYYwi1JlQajEEZI7MlpQh1UHmdeeWXdE+DCSRohQpkbbcoRLkUBQEUhmKa8tbr3+DP/uVf0FzuQhzxH/7Lf+If/vsPiQpLlMsYH6502Lx2iUuvv8ybb7xJ/8Eub//9P7J76x77O3vOTLesnuN0gNe3yffCmYqGjiOHgSjFtFeWuWOKIq8SQ1bLXIGYn0aRhD8zpSFPC6bTCcYWaG3RgUUHIUEQEQSRuI1aQ15kBEHA0vYKl773Mn/6P/8rei+tk2sBr0zAjgP8ifODz5tQLtKXBXBPM3BXFGpavQ5rZzZ545tv0r60TdsqBv1Dbt++yWg8wmJpthp0l3t8+3vfZfMPXqERxEzHQz7+5CPG0xEvXL/Gq6+9yuuvv86ly5eJ19YgSUAptIIg1BwdHbJ/uM9R/5BSWy69cIWXXr/By6/d4MKli6ysLhM0EyRwliaKIsaHBxwd7NM/OmTYP8KWpSwbaU2As6Dz4HbWXp3VZTYubHH22iXOv3SVrasXWLu4TWdthUa7KUwGiVZinQuoiOnI8wZOh60s2s0Hw0bMyvYmL7x+g3MvX+P85UvoQHN0cIAyouBTTnnm17E1wlGNMiTLHVYunGHzxYtcfeU6565e5PyVC5y7dIHtC9tsbKzR6bQo8owiz0RZaC1KuxUObemtLnPm4jnOX73EpRevsX31ImcvX+DclQtsXTjLysYaOgwYjAacO3eWV9/8Bsvnt2lePMvO/Tvcv3WbEAiMmNAkS10u3XiBa6/f4NprN1Bpzse/+Q3DvQNGgyGmNDPxx1f0HC2qreS7BYwzKY1CAWoYRQJyLfPqPM9FOnQitHL1b71Ibo3Et9eBCzkt0o8MmX7K4O/pltcUwuWBpNNg+fwaF1+5RrzWpnQ6BT89xZs8u+HrtxjgNTAvgttpejNKgkbCq994lfBsi6QIOdp9xHvvv8tw2EcFipXVZbbOn+Xl116he3mL4f1dPrn5MXfv3abRiPnTH/wJ3/7e9+i8fBHVaFHs7fPwzm1ufvgBBwf7TCYj7t67w8NH9znoHxC3G/zgX/053/vTP+LctStEYcC9+3e5e+smdz76kMnhIbrIeXj/Hns7OxwdHDAeDsCUaCvicahkjdM6TbU357zyynXe/MPv8OYffpdv/cn3uPHtN7n6+susX9im3WmTZxn5JGU8GknSQ7GEAKWI4pg4iWf9WUEUR3RWl7jxzW/wl/+3/wtv/eA7fOOtbzAcjvjVO7+AooSyRNeWvcQ3DAKspG+6cpYb3/8m3/jz7/ODv/wL3vqDb/GNP/gWr7/1DV599QYXLpyj22lzdLDPaNBHWyPr9YFTzAWWi9ev8sZ3vslb3/8u3/2zP+aVt77Bq996k1e//x1ef/1VNrY3MdZw7/49Ws0mq5trLK30CLZ67N29y+79B2hjICswZUlztcdLb73GxZev097osn/7Pj/94Y/Zf/CQ6XiCNW792J4ijboxsfpdI+PyxMVJQpwk1VzbAmVRVNZn2oXk0k4asc5ZxBgXny8QZZtCSQhu5cJ8YZCxQUYFry0vCpl2xe0GS+fXufzaNZL1NiWiVxDL1uMAP+kNf4vIjUoL4AYw1jCZTjkaHLF7sAdjoNtieW2ZVrtBmISgLe1ei7MXztJd7oKCnYMd7j68S7PT4NKVC1y4eBbaCdw/4N47v+LvfvRDfvjjv+fHP/kH/vFnP+En//QzPvz4Qw77ByyvLvHCSy9w8dpFmittHuze45/f/QU/efun/Phn/8CPfvIjfvyTH/Hjf/wR777/ax48vMdoPEApSxQFxHEoedHcui/Mlt+KwNLdWOHs9cvo5SZHpBzpjKwbsnb9PC+8+Qo3vvk65y+dAw2lLVGVy2Egec/LHKutU/qErKyu8Mrrr/LSG6+yeqlHcgGCCxAtt5mKXluUe9Y4YBpCKwYskbFoDHE7Yen8BtH2MuVywJFOeTjc49Foj53RPv1syDgfM8nH5MUUawqULbBlLsK5trSW22xe3Gbl7AasdhjalAeHj9g7eMjdox12RocMigllCP10xMf3brE3OIAYVjZWOX/5PK1OE0tJFAV0ei02tzfprHaxk5z9o30G4wFZNsWauk33vGpWNBDMRsATGJYOJOGDRJsVcKOUKMmcXkcpReg4fH3Jy2vPy6KkyHOZWrmotkEgSR6VEmBb54wiyS9EagCn81A4nYv7XHjGOj0FwE9+4ZO3PW86/gzKgslypv0hu/cfwt4AmiGd9WWS1S66k5BHkCx32Lp4ju5SDywcPNzjwb379JaWuPTCVbqb6zCd8vOf/oz/8p/+M3/97/8jf/df/oa3/+Fn/OyH/8g//t3f88F779E/OuTs2S3e+MbrnNnepkgz3vn52/zov/8NP/27v+ftH/4D//yjn/CPf/tD/uY//1fe+fnb3Lx1i8PxkCzSmFYD2g2KOCCvuVz6pS1lYbnb49zmGbLBkJvvv8/t939D/8EjNjpdLr54mW9/65tcuX4VFWlKDCoQDW4YRZRlwWQyxhqDjgJ0M2Zle4M3vvdtXnrjVZDwXsI4rKk4t3aVKev7M9Nfq0SgDOOITreLsYad3QPef+89fvyjH/GTH/8Db//0Z3zw6/d4cPsug/1D8vEUihJVGIxPmaQUjVZLFGdxSDod88sP3+dvf/wj/vvf/A0//uHf86t3fsmDBw8w1jCajPjo9ic86u9DAp2z65x78QrRUouJLVCNiPZyj/XtLVrdLvuHh+ztHUg+tcKiVPCYVePHk3IZWOMoIo4iIpd51VpLkecURQFWkkOGYUQcxSRJ4kDurNSUonCmqGUhDiayfOYMYBxwRWPuAV44bu73e+WenwKc/j5PAXBP9dGtfuHTbyK0eN5J13haqp8/fx1lgcJQjlMOHu5ysLMDFpKVDuuXztLZWqVoKMKVNpsXzsq8egDj/T7T0YTNrS0uvnAFGpEo0j74kPs371BOcoLcEuagJjnZYEw2mmCKgtWVZba3zoBSDPYPufvRTXZu3cP0xySpoVkq1CRnctiX7B4Krtx4iT/8y3/JH/7rv+Qbf/R9mhtrZIEmDzRlIB5iuDnhJx98yH/7j/+JH//Xv+Gf/ubv+fl//yHv/uinPPrNJzAoaCwvs7K+RtxKIFAUtiAvJRuK1opGkqADTdiIOXPxLNvXr9Dd3sBEsL9XcnQkwpAGlLFoY8EFF8jKgswWpKZgnKdM8ozSGqI4Znl5iVaziTJGpgiHfR7dvsfH733AJ+99wMNbd1BpQSuMiaz4kwdWoYx0YhUEhI2EzJYcTUYcTccc9I+4fes2H7//AXc++oS9hzvkec5gPOTW/bvcP9yFAtRKi9XLZ4lXuqh2zMr2Ohvnt2kvdSlKw/2Hj9jZ3SNLC7CqCjJVLVGcRHW3zIUyO2QW9ilw6ZUrbn1sKUwisMiSWei2zzizrJ3LdiF5Nuu9+1yMPJg9g5XH/FR6SoCfVimnbff0afufhWrXrBprtk0Ziy4t5STj8OEOuzs7YAri5Q4bV87RO7tO0QiIVtqsXzwLSQyHA8YHA/JJxpmtLVavXoY4YOdgn48/+pjd+zvERtMOGrR1Qlxo7LSgTHOsMSyvLLO8sQHGcrS3z4Nbtzm8/4gwLenYgOWwQWIUZpJispwgDHnpG6/zL/6nf82/+L/+n/nmv/hT2psbZKGsSZfauYC6dejf/Po9/sP/9r/zd//xr/nZf/87/um//R2/+uE/cPdX72P3D6AdsrS6RNxqoALhFJIgYUoQaJrNBmEQEDUTtq9c5NyLV2isLTG2hjsPH7B/MAE/i7MWXUoQxqIsyExBaksBeDZlmmeUyFx0ZXmFdrNFYDUUJeUk4+DhLnc/usmtDz7i0e176NzQDhvEKiC0EuQJK6ItWhEmMak1HKVjRmXGOJ3y6MFD7nx8i3uf3GZ/Z5c8yxiMhtx6cJd7BzsM8wksNVm+uEW82iHoNlg9e4YzF86R9LqkRcH9Bw/Z2dkjzwowCq18xJmTqT7pO6l48HvgWie2J0lCI0kkOUQYyrq1S+joi1Zu+RCFMWLoYo0ldPbo7vLuQRyQjZHiVkNk18wHvP79JDr9TU+lRe77pOBdPKd+7pNe4yRy59beUblOmuiQyCj2H+xw985dzGSEbUa0z6zS2VqjsdajsdaFlQ6kKYf3HjA5HGILgw4l1vhoOmY4HoGFkICgVMRG0ySiYQLC0hIpTRxGtNstaLWgKMnGE2xaoNICNcmJM0PTaNpBTK/Rpp00iZMGYauF6rax3RamlZBHAXmgKbS4gNbnhoHzJotLaBrFchCz1epydWML1enC7oCHOw+ZZFOyMicvMkpTSEczJcaUNFtN1rY2ufbKSyyd3eAXH77LT995m93DPbI8A6+JLwqUSyusoxAVhxSBKPtUHKLjCLRYZ0VhSLeVsL6ywmsvvcK//MG/4N/81b/m3/yP/yfefOV1NpbXiFWIKg0RAUkQ0YwbhDqgLA3NVptke421zQ02trd47a03+fN/+Rf8m//p3/BXf/GveOHSVXqdDqFb1rOBYpBNuHu4Q9+m2HaMbcUEnQbLW+usbK5DGDAYDrl37wG7u/vkeUlZWLKscFrrZ+tzSkmE2zzPGY3HjEYjJuMxeZ6LMtNxcFuLVlsUMh0pSsnYWvqoLEVBmqWSWz2dzkkIldhdmRS7/x3QK1xb2XMaPQPAv6o0b7CgnN+ttbCzu8vdBw8YTCeQhCxtrrGytUFvc4322jIswTSdcPfeHfr9PoWRdX+0YpKVTNNC/KAdZwtQRM7CC6tQKiSIEuJmB5ohWMU4N6RWk1nNtITMBhidEIQt4qRDEnWIdQtdBDA2MCpRY0OYK6JCE5a6ygzi441blJigBgqSiMZyl97mOktnN6HV4GDnIQ8ePSRLU2xZynJQYSitIcUwjSBc77F+6SwXX7pGb22Fj25+wnsfvM9gNKQwBSgoQ0XRCCnaEWU3IVxfonF2nWhzlWR9hc6ZDZqry+g4xuaWcpARDSDJYGl1iTOvXOLqH32Tb/75v+TF177B8tZZbKPJFE0RRtgoQUcJWkWoHJIiEGOaHJbzhBeXz/D6yzf4zp/8Id/70z/l4osvsLS6ShRExFbTsAFmNOXo/g6MU9qRiyHf67J65gzr6xtgFenBgIM7D+jv7lPmJbkxZEVB6RJHPgt5R4+iKJhOJhJDfjqlyHOwtrJWsxZRvOUFpSldxhuniPOx1cqSPMuZjF3O9YXnUnUFmo/e4n84WNf/P4mecpkseMaRr86tnwO5UW9mqWZornW5/Np1WptL0IzEYs0UXLx6hfMXz3L/V7f51c/+mUe37zOh4KU3X2f94hZKRQx3jvjonfdJ94dEyDp1qBSqNBTaYuOAqNfipTdeZ+P8eSg1u4d9PvzwE4aHQ8ggtCFh2MCUkGcltlTkFobjKbdu3+Oj9z/k5rsf8uiTu5hRSmi1zIWdUsUqKCnJbYGOA3ory7zyxuu8+tbrrF88D6MRP3/7n3n/Nx+w+2gHCkschKjCMi1zbCMiWe1x47tv8fp3v83a2S3GRcqte3fQUcj2+XOsra+z0o7YfdCnf3jI+sYGq+e2+c6f/hF/9C//nFe/9RZvfPObvPnWN1ldXefR7i6Hgz4P7z/kV//8S37xk7d5+NF9Rg8GLAVtwl6LdpCggoid3T36/SGgKAvDJMvJCsnDlaU5/Y/u8+6P/on3f/JzHvzmFuOdI5bbPRpLXcIkhtKw/+Ahdpqhw4DuyjJJq8HK2ipnVzfYvf8QWxpeufEqG1vb2EnOrQ9u8vY//ozDB3uoQmLOYSXemdbhzPARFkRAAdZir1VO4x1GUZUDzm9XLhDDjHuLm6cER7TuKAs+zbNbB7dubd3Y0mnFPcgXn0BWPxrdJssX1rn82guyTKacWfbv5jLZIrkKcYbS1liK0pDlOaPphL3+IaMyo726xObFs1x44QrdjVWwsHu4x607txgM+5TGMJqkZCkkzYRud5lG0iQKQrETsuJ4EemAJE4IgghjNaNpDlMLUUCj26PZWyZsdil0RE6EIaK0IWUZYMuAcmq5+f5Nfva3/8jP/vYf+c3bvyY9GBOXgQQ1tLqK5eY5OFrTXV3h3JWLvPj6K1x88RpFmfHJ3du8/9EHPHhwH2MMcRTRjBMiHVBaC0lEtNpj++VrXHn9JZLlCBWHLK+tsrm1yfrGOq12i8JAb3OVF7/5DdZfuEhja5UzL1/j2rdf5vp3X+f6d9/kyrff4twLV4kaTR7dfcQ//re/50f/x3/j7/79f+WHf/23/MMP/5E7dx9AAO1L57j88g3i5RWyICJTAamFaV5iCohsxN3f3ORv/vf/xI//f/+Zn/0f/413/sPf8t6P3+Zo9wDdibn88ktcunqVRtIgtpomIfnRkIcf36I4GkGk2dzY5OylS6xtb0GzxWD/kIO7j8gORphpDkZhdQCBC2FVE3PrVtxzvekEDbU3EIpcqZbJXLRTT4J9N7ny35V2edVlCS0IQ5QSQxdjSpejffEpPhs9IcAXx7KnoWc977ORUoowkHXIMIyZphkf37zJ7Xt3MRpW1la5eOUy7V4XO4S9/X0e7ewwnU4xxrK3f8jO7gEG6C4vs3l2m6WNVVQckGtDZkuINFGrgQoD8rJkf/+Q/b0DSGB1bYOVtTXa3S5EIYWGTFnKMEA3EogjVBQShGINFQURgVvC8VFZsWCMFZNwIExi2stLvPjaK3z3T/6Ia6++TNRt886H7/Ojf/oJH9++ydFgIHPBRkKj03alxdLaCmtnNuiuLNHqQNKGs2dafPeb3+Lbb36Ti+fWWeqKsd321hbf/va3SJKEDz76kP/6N/+d//f/9u/5//77/8h/+I9/zX/56//ET/755xyNhtIpi5LIQKJCRv0Bd27f5uGjRzAC2tBbX8MmIam2FElA2YxRrQSVyDw+DiJacYNu3KQbJJjhlP7uPqP+AAyESyG9bo8ARTnNyUdjhrsH7N6+JwDXsLV5hstXrtBeXYHS8OD2PQ7uPqBhA9pxU5aowoAgjlBB4Lql65unYWrO4MVtUoowCGg0m7Q7HVqtFkkcQ8WJ5WLa6Sf80hgWgjAgSSRUU7PRIEkSt9T2WfA1T4tXeQYRXZZtnrx4Wrz109DiNf21HnNNNwcPggBCDU0NjYDmSpsLFy7Qa8c0oiaUhnR/wHs/fYeP33kflVpMHJL0uoTtFusbWzSimDSboiJFGSlUM8Q2A5prXdobK5SxwgSKbq9Lo9nkzMY2zUbIdDREW0OoLa1mTNKJaS436ax1sE1F0VB0z66ycvEMa+c26PY6pOmUIhfvtQxDrg1lpLFJwPL2OmevXuTGW6/xwqsv091cY1Jm/PK9X3Pr1m3G44kzh7Qsb6xx/upluptr9NZXabRbxDpkvbNEUiakeynpQUo5TtHWEumYUEOogL2c9ME+t9/+NR//8l0mB30OHjxk9849du/cZefuPfZ3HjGZjolbCd21JRq9FnG3QdSKSVoR169f5dz5bYgCJkeH/OznP+FweMDG+S1Wz2+ysr1G0I7JTE5npcvyxipxt0nQbaK6Cc31ZS699AJLG+tgFUe37/P+2+8wOTgkyzPxuTcl166/wPnLL9DQEd2O2DdwmPLuz/6ZO7/5hNHRQJRc1mJ14ExEna87fgq00KtqDiQieosDTT3QgufkHsDWcW/lOL5SLoBiMAvsELkY52EQopwUYZyTDkqs32TeMN/X5YqWMAxIOk1Wzq9z6dUXSNbaGCV+9vIOtiaey3M+A8AfA6pT6VnO8eRM9k54beUr8tg+2eHD5BCAiRVFZOit9bh27SpxOyQJQvr7R9z/zS1uvfsRe7ceonLLxJQMs5RcwbkLF1k70+bM9jlWttZprnVprfaIl9psX7nAhetXUHFIaUrSyZTJZMzG+iqd9SXOnz3HpXNnWF9bYm1jhc5ah+0rZ7n40mUBeFPzynff4Jt//F1e+9YbnN3e4mBfOFeaZ6SU5NqiGhFhp8GNtzYwzEEAAJf2SURBVF7jO3/yfc5du0hndYlJkbLTP+DRwR5Ka9Y3NkiihKPhkKsvv8gP/od/xfU3XuPlV25wsLPHh7/8Nbu37vLBO7/i1z/9Ob/6yT/xi5/+E/du36HIc8KwRbfd4KO/f4f/8P/4f/HwVx8xOThCZwXleMpgb5/h/gGT0UA08t0m5y6f5+U3X2Xt/Cbt5Q4XL5/n+vWrvPbaKyRby0wf7vDue7/inV+/Q9iK+N6/+GPe+KNv8+q336DRbXIwPOLs+W2u3HiB9sYSrY1lNi+f4+L1K1y9fpUwSTi6fY/b73/Iw5u3KMcTUVppsNZw8cJ5rpw5h2p30MsxWJjeO+CXP3mb+x/dYjIYkxclJeJMo5WshMtimQdxDeiVsYmI57JKMLNcy7KM0XgMnku7ebd26Y+zLMNaAWMUxSSNRJbBXEgmpSQUclmIgq1wed6UFpCeBHAhuWajM5uDN9bbYtC0OAevco8/E8CfloP7B3xG8pFMH3fNE2/hTPmc11KuJQDD0sYyL7/8EnEnAQX7tx/xwS/+/9z955NkOZbgi/0AXOU6PLSOSK1Kd3d1td5ZYUt7z8iv768huX8HjaSRNH6gcc249sjZ3Xk7MzvTarqrS2dVZlVmpdahpYsrAPADcN09IiOzM6t7dmbfCUO4+xW4AO45OAcHR3zDszuP2Hu6jcihZzSdPCfFUGnUCJMqcbOCakSoRkwy3qA22WJyaZaJmSl6vR4He/sc7O6yv7eLkoJYQrNZI6kn1GsxzfE6zekm7YUJmrNj7OYH7JseK5fPsnjpNONzU2AMt29+y+azdTr9HikGE0mSZoP65BiX332TN3/wDo2pNqoRUShJLiwiDGi3x1laWEQiebqxzvTKIhffe5vazCQTY23uXr/BnavXKTb32F/bZO/pBvtPN9he28AaS6vVotVu0W61ePj7a3z4H/+acLdHqC1BYSHNyDod8n4fiyaIAirNKnOnFrnwzmXGF6eZmp1kYXGOudkpWvUK9Hpc//pLvvr6S+49vkfUqnDp/beYObdMa2ac/e4Bj589YWl5kdNXLtCYnaC1MM3UyjyTM9PEUURnc4vbX33Ng5u32F3bIO/2KIocBFgM87OzTExMUh1rQ0tBB3bvr/H1p1fZvP8UneZoa11895LA/c6EwgUuPErkQ+IWnlOrkcQP5TZXuXdd5nAzflusyHNEKT0GzlTYjmxlGWvddlleatS92yxlYIOTCVyUSrYRAo8nHQcfJfAjHNwbLf13ACdS8DHwM9RI0dq4uNNpTt7p0dveI985QB6m0HfbMvn2Ps9uP+Bgcxeda7S2WG3Jeymbj57xD3/3a37513/LjWvX6ezvMzk2xvkzp3n/vfe4eP4c89MzjNUaxCJAd3LWHz7lt//1l/zNX/4V1/7wCYfPNqjVm8ycOs25d7/HuTPnmJqYollrkKiIwIDtO4u43v4hvU53kIvbGk2kAlqNJgszs8xOThG1KlATUIXqRMTCyhTvvf0G77//fd74wVu8ce4iE40xRG7Y3djicMdbzeUa5UMdh1oQa0FSCCqFIMktUWZQfQ09kGmByg0JiloQE1oBhXEJD5CEwruTIqgnVeamZrh08TJv/eQHnH3jTebmFtjf2eWLTz7lkw8/4trnX3K4vYtNC9L9Dt3tfTpbu5huSlVFzLQnWVk9zfk33uLKD77H2TevMDs3z97mDl9//hWff/gxN699ze7WDlmagffNkBo6O/usP34Ku/vO32Av5WB3j87BIWm/7/e8R3XLPhJpmb1VSp/JtQxoeIyrl9jnteZRHFOv1Vy+MIZxy1O/VVZOENYaF/44ywaTQqFdhtYiz8mLfOhxBk4U/WPgZ4njVx7/PQrfgYO/rLoXwXe5p4RSGH8JHNnvGJkt/XpUSIFQFoEhUgKZF/Qeb7J/9ynfXr3Gwxt36W4dkHUyMC6RgFQBIEi7PfJOB9Pv0d3eZn9tk90na+w+WWPrwRM2Hzzj4bf32Hy0zuHOAf1Oj36nR9ZLKdKCg50D9ja22Xmyxs6jZzy6+4jHdx/x5O5j9tZ3sX1Nd/OArftPeXzjHveu3+JwYxdbGGcCqUIiFXp3SIvZ67Fz9ynbt9fYuvWUzVtP2LrzlL17axzc2+Te199y/9s7FL2MrNNn+9k6W4+ecf+bb9nd2BwEVHTBG33gwyBEKkWv18duHHD76nUe37pHLAJEFGJChQ2UM5tVTnkkhAQDConNDbsb23Sf7rB+5wGP79zn9o3b3L11lycPHrO/vYcoLImMSWxAd3OPnXtPefbtfbbvPSXJBTLV7DxdY/PRM57de8TjW/e48/W33L91h2cPn9DZ2UenOUK7rSbK1MpK0e9n7O8fcvh0mzs3vuXezds8unOf7kHHobUUzq/aT0oKl55JjQRsGNh2lyiFIzpH+C6ohfAKtiAMPRF7h5CiGGjQlY+Kam0ZFdXZkhujR5xHXIpmh6geuwfc+2QODhal3DZZe2mSlWPbZC9ag79iwIcyfXCAQ4nvAi8i0pIcR4l0BAaZR45DORg+xpa/3+JEHmsFReEslqIkQsYWo3KscuGDoigiThLyPCfrabKuIetZMIELXlBJMErSz/uowNBoJEQhBFL4IAjWu3ZG9A9z+t2MPNPkOkejkaEkrsQEUYhQzkBFaz2CTMI5Pgjh100C3cs42N7DpAWhCp1TSFAWQZgEhHHg/LysRpsCg1POKFwSwCLTdPt9rFKoOIIwIBQSnWboNBtYwsXafVpAJyHUE0w1oiJC0s1dOmtbtIIYUY2hEqEjSbfInL+z8Vk4lEBGIUHifN2Fd5LAum0fq91a0xTOFVIJSeyJQ2qL7mcUvZSxap2k3eTQ5HRMTmo1QhsCId11eY7Nc8gLl7Et9K6m0mIVWKUIkgQRRm5jKjMU3QyRGZcVZiSzaSmal4Qu8B61Xoy21tmNW5xXmNvb9p5e0vnyK6nI8txZqXmvMGsdAUZRBD7emrFu6wsc+htvW16mHRJ+vezOa1fQOFKVI8thN6ZRFNKaG+fUjy7y8//p39K8ME0mcqQ0bqmBGQn2oOD1Irr8qfnBTyJS/kQCL4nbOcpbysdYrBXkucYYiKOQIDRA5uRy9GAbwxhDXkjSXJAXEhlWUWGACEKsFGhTIMgIhMbaFJvnXkx16QEhwhqFMQHGCFzMExcgsSTs3Dh7ayWVixzqI7eEMnBhkYxFWIHRhizNMMYRrYuh7T+lC5IgpHEBHTBYj0DWWCfnCJewcJBBRHgCDANy7SyqhLEkhaWSQ1KAsII8VpgkpCctNi+gl0EvoypDTCXExAFFpMisAaOxhXZRX8Gb0uKDOw4jxxprENaJ9AqJ1C56aiwkylgo3PaaLQoiFWDikI4o6KJJhXHJEH0UmFAq5z5rtOO6gcT64I6FLdAWZBiCUs6X2uOyMLIk4UGRCALl9rDFSChnhzbOxjwvCqyX/KR0EXJK4xQVuGAN/TQlL1MKjWjVwzIS6kjIJqHcRFEax1jwhO3TWPGPR+DfgVpLbjlaXgWO33P8XidgHC+Mhvc9Xo7TvSdu99+irSY3BanO6WU5vbSg0IIgrKFkBZ1L8r4l7eYU/RydFQQWIhUOopckUUQliJHaYro52X4P3UmRmcX2CvLDPjbVLma5UEQyIJKOeCUStKVIc4SGJEoIZIg1UOSaNM0pCuNyg1tASsI4Jowj8FpZN9N76yvh9L+BComCmDisEAcJSgQuR7dQKBkQqohQhYQyIAlianGVWEZIIxFGYI1EW0mOJBOCAhdpNdeaTrdPnmuEUFgrMLkh6+ekvdQTnUd0Gbi85T7baGgFIS7VsDDCxRLLCsgNMrOI3CCNjzcWRsjIFRUlaCHp5znG4NovQhSKvJ/T66YUucEa4aJNjqRZFlaiCAhkSCRDYhU6C0C/RneTp/sUxiKMwWqNEhApRRQoQuW04Kp02VSOJMqF3lEUswOTU104u3Jjnb1+6UI6qikvCmeLrr3XWFlKOI6+fwxG2eRxlnn8dwmvSeCjBDkKLzpewh87fxzK5npCHw3/OzRUQypFGEcEYQheaRIohRTuBVk/eVslEEGIiisQVihMQK4lRgdIGxPJCnFQoRomhEI6Jwtv5qTznCLNsKkmKAQVERHbkEALIhtQkdHAQ0p622+048rSuhhpsYoIZOAUQ0ISqBCE4zYGMFIiggAZhi7eWhiighAhJca6GF95Xrj0wIWhKKwr2uJ0SAqLwhjIC+McKnKLsG59nPdyTG6Q2uUct1ZSIMmFdFlBgZ7W5BafKjhwE0q5nrPCTQyFM/21zskM42cm6RVeQpcBGt2SIRCByzPukxUK42LDpdqQWksOzvddSox0FmZlLvRABMRRQhJVRpaGrlgrXR5yq9C5Je/n6Exj8+H4C1Mq1jwfHISbspg8J+v3sEWBkoIgUETetxu8DbknYMeFnXJMF9r1V+AsBSsJlUrFbYUFCoslTfuDrTIpXeAHF+ihRO2TyPCPwCj5HPs+wtPgBEJ/TQJnlH8+/7SXwvH7Trr+GGGX4p8Xwg2l6OkIfLAmCrwFmF8zCSGc6C6BwIUBJgiQYQWhHIFrHWB0gLARoUpIVEIliAlxhFoiRZHn6CzH5obASCoyJiYkKCSRDUhkREQw8G9Gu+IQzCFqFEZeHAeBRCovSpepDoTAKoUIAlCBC1kcKPBinTZmQNxau4ic2kVTwuihOKcNFNq4pYm2SCuxhSXvF9jMIrRAakfgWkgyKcmEJAVS7faK3eQSoMRIuGQ859cWU1iXk8Fb2dmyr9rpJVyIMOeWGYqAEElkBFFJ4NqQGUNmrVswCUfgVrpJClw2ViUC4jAhjiooGTrRs9ym9dxbEmAKTiTwgZOOD/Usy1xvdoTAdYEUDPapSwI31mC0K7rQg4CVzitMI4Aw9FZpcUQchUglMcaQpqnLRGKtm8wHE4fDd4fd34HIRwi3VDmVxH2cqEfJ6zUI/EVEedKxV4XRewfNHwxFyb2HAfyHd1hcQPiBskO7eFjdXhdtNUEUElYigkqEjAOMlKTakBtBEFYJggpCRAgbIoxyCOOUEk4hpBQyVGhr0NqghCKSIZGMCEXgUgJ7pHW2pKVW1M3SpZFNEDhOJIUky3LyLEd7JwspFQZBoQ3dtM9Bt8Nhr0un36OfZWRFTq6HkU9KTXC5arT4NMGeswnh45irgCiKqVSqREHkEN0IhHafWDexFEJ4DuqIjDAgTBJUFCOUQkinLXdms0NiKeNyC+v1tT6Aw5CgPBpb4cRyK5yE49s9yGnu0wqX0Wtc5Joy/rr7Xn6WYrnFTVBl9FC3wneRaIcyxyirGCqoS5YhJQRSOgmtKAYBIV1gQ0sUhcTJMN4afo9b64Iszej1e/T7fVJf+mmffr9PnmcOB4aoPALflawdHK/ypLrKvo7CaxB4WWtJ6MfLHzv36jBovI8qWuaFtn4bQ/ptHqkNNi8whVMgGQk2CahMtZlYmWdqZYH2wixho+IyghQ5oigIgVAIFC7bhssY4jzDcmXJIwjbNWpz49QWJomnxyhqEbqREE6NEU+PE0+10fWEA6U5CDSd0GLHYuLpJtFkA9WqYGKFjgQ2lugAMpP7AP0+7YC0CAzWFOg8o8hSijylKDJXtNeWC58pRAI++V852VkxwH2shKiSMDbRZnp2mvnFBeqtxiAri8vtcbQUwkISUplo0pifZnx1gcpEkzwUFIHLQVZInxWmdMuwLhTyMNXQ0QSLJYsplW6D7CsSd96fc+339+CSWEgfN16V+disS8BYTvt2RJqzQpDUarQnJ2hPTNJsjxHE0TBlhMefEofKFMZWSQgVhTAukEWRk+ZuvxogCkLiMPKx3B2JOA8xTV5kpGnqSpaRZhlZmpFlGXnulHPDqWWIx04yP4ks/3HhNbToarA3/BxYnu/Uc/Cic8M5yb3C4W9d5oP2Inngs1eW0T2FtEgl0Dqnb3ImF2eZXV3k7JWLrJw5TVoUrG1u8utf/ooH39wmSA1xIYmlclzG11MmlC+fF7TrXH7/PRYvnqPRarDx4DH/8Ld/R0Uorpy/QKtaJ1YB31y7ztXr19FCEFerXHn7bRaXFkmzlM3NTW7dvs3h/r5bgxmDzgsvLgq/xscp0EaWFkKIoYGEdgjjAvg55Y3bVivh+OQpWFlZ4Z133mFufp6J8XF++9t/4Je//KWLPnKCp1IhYerUEld++B4Ty/PMtca5+qvf8/u/+luqhZtMch8D3frtJJdFyBOdcH2gHD8/hla4fXZXHOd379Jxbks5DzhJwHFYJ94zGsTAC0bDrK/uRqlc5pQLF89z5uwZkkpMmvb46JOPuX/vAVI4L68BV8AZrkhflHSWXsI/oHwvSjptuBBO5Nbe5dOFTXIphKx1dblKB/8Gr8Mihj9EOamVQp6fAKxwsoYt63mJFt06RhBHIa3ZcVZ/dJFfeC166rXozn/GeO25L6/MwQc4ZU8u4iXnXgOOV2P9TD1K5HgOrkrRD0EgXXjaiZkpzr15mSs/fJeZn51j+ReXePOH79Gem0ZFAUoKlDGQ5VDkSOu21/BZKrW05MpgKwETK/OcefcKb/7sDc689wZqvEEw3mD63CrLb17kzPfeork0Sz8W9GNBUQ+ZPLvImfcus/LGeSZW56ES0KOgZzMyCozPiaZCtyYzJkcKQxwqxhp1pibGmZwcZ2ysSZyEqEC6N6SEW5MrcSTB4SiHslKAErTGx7hw+SJL771L9YMV5pfm3dadMMfu9X0Wlmq7wcqlc1x8/11WfrrKzOllUmXJpSWXHOHOYoB+jtAFDoHL+oZJAB3HH3DwkTS+ZfxvLw94ru/qkqPv13Nyl8BwiIbDJ8DUzCyX33iDK2++wdkLF2i2Wk7KEaXO5nlObpX06ZaMizWXZ2RZSu6TFVCSlxAor2UPQuUMgtx+1KDtg3922J+hRu2fHl6NwP9bwYjCoJwYS1HU+E/cBD6c8b1DQBCHNCfbzJ9eJhpruGVpFZJ2jebUGM2JFnESESlBFEiUEi55oChzfA1zfWlpsZHARoJMQCoKdAg2VhAHqFpC3KwRN2tEzSpRs0LUqhC3Ks6rqhajYuXEflzSwdwWZCbFKEtQCTDKkJoMoyxRLWZibpLFU4usnF5hdnGWWqtOkIQDOVWEAqvwyQdPLlY5paIIBMSu/zKULoEiBiNc0r7RoqWmkIZcGXQsoAZU3NKiCKFQhkJZNzZ+rKwX149MFH4sneg9MmkKSyFdGaTyHSyL3LHCZ2G1XpR1hHyUUZTLgPJaLVxGlHJyM0K4SS5wPt/u2FAs1wKXiQWDCQQiDskVpNZto2Y6d9pyXbgoLEWB9SGrgjAkimOSasXt2gTeK8ynJFI+h1sZ59xx9xGzuFel95HrBjy1hFet4xi8GoEPKh8lv5FiX3LuT4FSOPAKm4GawhO+wb00owQyDqm1m0zOz0CsoOfbncDY9DiTMxNUqjEqEEgFVhmH3IHBhBYbWghdMkGESwCohPHqK4PC0O8c8PTRAx7cu839u7fY291y54TBFjnb62s8vHubpw/vs732jKzbweocrMaKgoKCQhbkypAGmjTQ9AONrinmzi1x/t0rrF45w9TSDEE1wIYGG7q2GlH4SOU5RhRYqQdsrjxnpMZKjZF6sKtklXHHA+MsTQIgsK7v5BTk5CKnUJpM5GAhHfmdkpGKjFQUZNJl/8ylplAuc6cJwIQC7RMZmHI9LVwWVxsIdODcbE0gsYHPgCoMuXATSx6ADkEHuKSBZcbWMj2wtG4SkoZMGbLAuk+hWd/Z5Obd29y4fYvb9+9x0OtCqByhBxIn9PqJQAlnchtIikBgkxBZiSEMMEJQWJfuSfuYacanYfJmRW7iGsxAIzheHhuxdT265h6KnyUWl7g8/F3ePsTzkSeM/hs9OvIcf+7ITa9K4KNwdGI9Rtwvgped+yMwsj4bHHKHKXAiViGAKHBcdWqMns3Z2NqBjpu929NtZhdmqNQTnBrBcbPCEziRQMaSIJbD1L4mB1MQSAglSGvYePaED//hN/ztX/8v/NV/+ku+uf4Vaa9D2u1wsLvFZ5/8gb/+q//Eb/7+v/L11c/Z397EFhlCuOwTRhpScg51jzQw6IqkK3OKBFbfOs+Vn7/P+bcvMbk4hQ4tOTkiBCM1qe6T25SCHO3T44oQRAhaFBRkaH9OCw22AA0FOVYZRGCRkUTFwtUpCnLrM3OSo5Wma3p0DmE/OySTBT1SOrpHz6T0SemTe0IvJ0awkXRZQAPhJB+vKZPSLytChY0UNg6wkSM6K6Gwmlw4d9giApsoTAha6gFxa58i2CiX+CGVmr7UZMq45YMw3Lhzi7/+u7/lP//Nf+Hvf/Nrnm1sIILABXYIAsf1PYGLQBFUYkyoyKRF1avUJ9rE9SoqCpynlw+QaIzBFM6qLc0yemlKt9dzvug+3HO5lWa0N28d3Ul5jilyhLiF8LqYwfwwJO3BNeWfKD+dxFre46od2tCP3l0++jWdTUYW/s+V0c4cLy+D0XuPfjqlivtECC+turUfgMaQURBWY2pTLc6+dZmFt1dZ297m8dpTknqVuBo7k8KDLpv3H5Lv7KOkwAQCE0BrdoKl0yusnjnFmfNnmJ2fZXZ5nuWzpxifmaDaqHCwucOXn36K7vWZHm8zNz3F0vw8Wa/H5tamyzcVKlZWllhdXKJZqxIJQZb2aDYbnDl3hlNnXf1LZ1aYX11EJAFGwfypJc69eYl3fvA9ktUxgrhOrJydtwolWZ4yMdlm5dQKq6dXOXv+DMurSywsLTAxNUGtXqEwBYUpMBimZqY4ffYU9YkxaIakT7fY2tnkzLkznLtwlsnpCaq1KmmRkhUZOhS0FqdYunyWeLJFJUm4/fU3XPv8c5cJNQ6YmJ1iYWWJ1TOrnD5ziqXlRSanp6g2aohQkhYZuXE7GQhvXhqGjmiUIKxWmFmcZ/XUKmfPnWVlZZmpuVlml+aZXVlgcmmOmekpdJ7R6xxSjWNa7TGWV1c4deY0S6dWmF1ZZHJxlqBZJTOFWxoYw8TUBDPzc0zNzNAab9PpdbFCsLiyzNLqCgtLi0zPztCeGGdpZYUzF88xuzTP+NwMqhK5QA3al8JlHA2kC81lyzW8F+0dAXsiPkLIL8DxI4eP4veQ1KX/5nZ0hmeH5O6OOWXrcXdR52zi7emxpRZj8JzvQOAndeY4cb4OHL93+OmkGvcpSuL2VxgBmdD0TUZ1vMnk8hyn37jA9MU57t97xJ07txkfb9Nut0iCCH3Y5d61b+hu7hDGEbYSYGLFyuVz/PDHH/D+D3/AxZ/8mMsXznP67CnGpscJawlRI2ZvY4vPP/mEZrXGj3/0AT/58Y9481/8gmxvh2vfXMNKS2Osyf/4v/0f+cX/8G85tbREpV5l93CfqYUZfvovfs4HP/sx7/3ip7z1vXd48603yG1BL+3xo5/8iJ/89Me0FmZcdpGKoDoxzplzF2jGEWtrzzhz5hQ//dlP+eDHP+Tyz3/Kpbff4vKlC8zNThNXErr9Dt1+lzzPmJia4PTZ0zQnxmEsop5BGEf89Oc/4fLPf8apuVmSSszu/i6H3UOIFK35KRbOnaI+3WaiUeXO1zf58pNPqYUh9bEml956g+//6H3e/8mP+cEH73PpzSvMLS0QVWL6Rc7mzjZpnqK1Rgqn9EyiiCCJ0BLq7RZvf+9dfvTjH/HOL37O+Xff5Y3zZzjzxkXOvHmJxQunWVxaZGtrk6dPnjDWbrF0apkf/fzHvP+zn3L+B+9w+Z0rrFw+j61FbOxtkecuocMPvv99/tW//ld88KMPuHDxAg8fPaKfpfzwRx/wgx++zzvvvMPpM6eZnpnhrXfe4vs/+wnnLl1g6ewqh1mfve0dpLEobV3WFQuhUCivEBhdx5dEXZLcEI7/9vCCwwzqKIkYV3m5vPHnyuKueD7gw6sQ+OuL6P8NwUt7BMaVcowL6fdnA0ERKqoTYyydPc3EzBREsLe7x/1793j08CFbm9uEgaLVbBBXYmwgSCmIGhXmz66wfOkspy+fI6olsLNNvrtDv9MhjkNqzRooKCgQgSCpJ7Sn2oxNT8BUTLVRRUYSGUmCJKA2VofJGpXxOrXpMWbOLLF84TTLF04T1mM2nj3i2dOHPFt/yu7eDt3uIbu72+zubEPu0tPQA3YP6a49YWdv2zlToClMxrONZ6x9+zV7Tx/S6x7Qnmxz7uJZzl86z+LyAlEldLvbwhtjC1BxQKVeoZv2YG+b6mSbK29d4Z333uX8xQvUGlWkhFBJkjCgkjjnHBVIZudnufjmJc5ducDMyjz7eYdbT+9zZ/0xXaVZeeMCZ9+8xOTCDLWxJioKsBjyPKXf65LlGVOzU5y9dI6Vc6doTbSgswc7m3SzHlEjYfz0HPWFSVS7gq2F5BEUEaRKs5sesLG3zvrGY3byA+rzbVbeOs87P/0B82eXMQGoUBIlEbTqhO0WKlKgoFKvMDE1TnV1ksmlBcanxglCRbezT1AJmVqc5NTFc5y/con25AQqdNFSA+VciBzD89px6/T+hhEt8J8JBjbq5eOGuvjnPr8L/PMmcNwWiTKWwIvm1u+z5tIRuE0CGtMTnLp4nsm5WQhhb2+P+/fucv/uXdaePAFrqDdqJLUEEUl6OiVqVVm9fI6VK+cIzs7Sz3rc+OoqN7+6xv17d9wmTMttU+W2QESSsBoS12JIFEi/5RUHBHGAiqRTYElIZYFoRMyeXWLp4mkqq7PsZYf86ve/5lf/8Gs+/PgP3Ll7m82tDW7fusmNb66T7+9BAezu8fTeHT7+9CNu3rpBN+2w393n2eYzPv7sI/7yP/0lv/ndr7l5+yYqUoyfXeXSG5c4dfYUcTV2Gu4yGoIAKwyagvuP7vHltasQKcIrS/zwR+/z1rtvUmvUEMIShYpKFCJiiOOQMApYWlnkne+9y9lL52hMtrnx4A5/87tf8ctPfsf9nTUWL5/lwrtvMH96mbHJNmESYYWzxz48PKDX7zK/tMCVd95k6fQyIpRcv3GdL65+xp0Hd9jPOjAFthFxKHPS0FAkkAWa3fyQb5/c5eOvP+PXn/6Oa/dvUiSC+Uur/Ohf/5xTl85iA8iKjE6vA0UG1u0WlDnMVRJCGxgLiCsR+4f7fPPtDXYO92AMTl08x1vff4+J6alhOuXAufCWvgjln1OyHZXO/1Q4YpfgjYbKCaVczx9Z138H+OdN4CUH9/uiwitLCgG5gkxCKiyynjA2O0VQCaAPtWqVudk56tWqSzqvFLVGjYXlRabnZxCxojbR4uxbl6jNtKHT59s7t/j4oz9w9dNPuP7VVe7dv0O62wUBIhT0dZ9u1iPVKZgcgMxk9PM+/aJPv0jJTA7S0hcFHZFzYPsc2j6UEsPqIu2ptpsMPKfb2Fjn8cMHHB7sQQ5Fv8vW9iZ37t7i4aP77B/s0ku7pEXK+NQ4l9+8xJW3rnDx8gXERAsiRWOsTr1Vd/Uqp7124h48evqQP3zyIR9+/CGffPYxaw/uQh/kxBgzczOEkfLOFDl52ocupP0eeZ4yOTPFpTcvM7k0T3tuksvfe4sP/uXP+N4vfszqWxehqQjHasyuLNKcGPPWbk5kVFIQJxGzC7PMry4iE8Xm3hY3bn3D51c/5aPPPuLWo7tuHBMwtYAshr4sODR9eiIjbCVMr85x8ftvsHLlLGIsRrSgMdcgalXIhfO7jyqRC6wpnYsuSpD7vGwYKDb2+OTzT/j9R7/n9x9/yDe3v+Vw12JCaLRbiFCRG++rL92aeBQGhD2yVfvngxfX+OIzrw6vQeAvkk1OOvaqMHrvwJRp+NuXcu4U1lmxRQZCbVH+0qiSMD45ASHQgfFai9NLq4y3xomCGMII6g3mlpeZWFyASkx9fIzVixdojY1xsLfLzXt3+PDqZ3x0/SpXb37N7Yf32dzZxgiQgXPw72UpaZ47/24gNwX9PKWfpc7U0RTg7bRNXtDv9OgddCk6PWpJlTOnzjA3O0+9VieKIqy1bG9v8/jpEw46h1BoelnG9v4udx4+4NGay8aSGo1WgqmFOd549x1W33mb+PIqtKsQBiT1GtVGHRWELuaYj+KJhYdPnvDhxx/z0aef8NmXV7l7/z4cHEKjytTkJJEKXR7wrMD0MvKOJu/1KdKcqYlJ4guTMB3AuODMW6v84Kfv8v0fvc3pM4sA1AlZGZ9lttIiyiHU0rmNqoA4qTAzN0dzcRYCxebuFjfv3OKLa1f59ItPePDgHmTutVWiECXBWE1hC1AuS8ryqWWuvPs2SxdWSGKohpA0oRbHCFMQBZKkGoOXoPJYkkeCntR0rCPwJ5vrfPLZp3zy0Ud8/smn3Ll1i63NLayFer3urQdzh2Nu3+kY+HXwcYqz7txRKOlkeNz9GsXrIboP0HzkVHnniyiOEaOvEy8YufE1CLyE0Q6M1n7Sk0bh+H0nXe976y1ZSoMIp0134rqLSOJMVmtxwvT0FGNTEwR1F6eMBC6fOc/PPvgJb168wvzsvBedFc3JCRpTE5BEZFjy3BFmqgtSNKm0ZJHExiEyidxWi8SFKYpCokpCpV4jTGK3xywlSIkIXMzt3BgocpSU5L2Ue7fu8Pknn/Hhb3/HrRvfkvZTpqemeO/d93j77be5cPEi9WbDpZK11tuZCyehWENrcpw333uX733wPt//4AOqrSb3njzi6icfc/M3f4DNXYhcOCXrk90NtLwenAWX8MYfkn6RY3s96OXkWUGoAiIZIrUlISBMFLUwIUBg8sLFNt+Gg7v7fP7rL/n7/+8v+fX/71f87j/9ls/+y+/58O9+w9Xf/oH1Ww8I+oZA4xI2COdjHcYRxCAihQkEWhoym9PPemRZD5sbbJai0z5FniIVvPH2G/zLf/OvuPLWFSq1Crdvfs2tq9fZerZNb99ACtJo4kAhMRQ6AzSZsuSRQCcKWwkx1dAZ/IQuUEMlTmg2GkRh6KPrgJSQ5Rndbpde32+D2YG1u0dJvzYsKWtA2Mdx+Nhvf+9A5B6h5NG54iSqOF5zCUekCH9ReWy0zhJek8CPN+V4s14Eo81+0T3HpzJXyv/WW/gqYwm1I/JanDAzM0N7cmKY37oHYSVmfnaBsUaLQAYuiAsuAH99ahKRxKTWcNDrkuaZC6dbiQmbNaJ2g2S8RdyoE1YSZ6wh3J5uEIWOuKPQKyu9+lK5WGXauu0WicTkmu31Te7dvsu1q9e4f/c+nf1DWo0mYxcXuHDhAmfOnKFer7toK9Y4n3YfAkklCeMz01x44wqX336L1turxPUaj9bX+OrbG3x+7Su2D/YhBKNcHLnSqW10KFUUUWnUqdRdEcpJI3S69Lo9hBVEUhEYQYKCEBLpAidkvRT2Coq9A7Y2Nrn+1TX+8A8f8vHv/sBnv/+IL//wKd98cpVbn19j98EzgtQQFLigC96bTuNYlVUCGSnCSuS8/OIAJXGGQHmGyTOMzlGh4tzF87z74x8yefY0YRJy78Fdbn97k73tLbJOB1K3o5IEARJLrnOs0OSBJQsFRSwxlQBTCSAGE7j3FCpH5EpItHcskdIHTkz7ZGlKkWfOwOUlARqO0OqJMMRtd385WZR1lpU8TwWDY0Ol+gBOeuRJx0bhNQn8T4EXduUYjGLokJMjQFgnlgfGcfJGpcriwgJj4+NgYO/WAR/9L7/jv/y//mf+n/+n/yv/9//z/43/8O//P9z9+hakOdWxccamJlFJTLfX5+mTZ9jcMDU/z+UrV9w20E9+zHs/+D4rq6u0mi3H/T3hFFrTzzJ07kQ/g/NJ19pQ5IVLRhiELtpoXOX08ilWFpaoxRV6B10e33/E3vYeWDw3aRLHCQKXvgYhaExMsHrqNFfeeIPTZ87SnpggqTptfq4NvTSj3mwyu7BAtdEACYW1FIULxOAs/pwjBRpm5+b4/g/e5933vscbb77Fyuop4kaTzs4uTx4/oXNwCIWlqiIiI+EQTJqjrGB7Y5utO/eQVrIwt8DywhLL84vMTUwz05pkujHOWFwjtopQSwIjUKZ08RQUuebJ4yds3H9Gmme0J8Y5f/kC777/Hj/88QecOXPKxTwzBmUNUaCoVhLq9SpUEjCaNEvBWsJAUY1iKsr51UdSUI0jpLXkWYq2BquEs3gT1lnNhU6jro2h1+3RO+zQPTik3+1RpDlWu5VM4OObW5yP+3MwODTKvY/DKBM7evSkq5+D8hkl2vufx+89dtlz544f+29I4H8i+BlvuCJ3yrTFuQWmmm0o4On9R3z0Dx/y21/+hl//zd/z27/5JZ/+6kMefXOX/k4HopB2s02r2sR2c57dvE+2tgfA+flT/Pjd9/n+m+/xxplLTNfHCTRQuHWlLAS2dDuznoCQSKsItCTKBTUTAgFRoaiqhMWpeVZnl5mfmKNdHSOyAaQGOpB3cnQ3R+agCkl35xB2u6AiFqfmefP8FZZnFhGZxfQKyKAiY8ZrLWbGpphtT5MEFShApAZyi9KSwCgCq5zU0oOpsSnevfIO33vre7xz5W2m29OQGp48fMKDuw/p7HVdhk8bEWvluGMuCIxic22T21/fort9QKhilibnOb90mrNLp1ldWGZueo56cwyrQjIpyYVC+3zmwiqKtODxvUfc++YWvb1DmvUmFy9e5s333uPK228xv7AIgcsYGhpJVcXUwgQyA4d96OeEVtKqNBirNEhESGAE5BAaSUVFxCIgtJLAKhIjnR4gM4S5Jcrd+xOppuj2yTs98k4fsmLAJLAu1FYglTc58RP6COrBUf+HPxsMHnL8aeURL8o/f/qV4Z8/gdvSuqcc5eFyqFqpsjA7x3ijBTnsb+/y5MFjuvsdQiuJtEB0c3YerrFx/wkcampRhYXpeVQGNz7+klsfXyP/+hmJSDh77gqn5lcYrzTpbuxzcG8TOhBrhSggkCH1WhOVOI4qUAgtSEREM6hSJwYDKodQKxphjeWZJX7w1vf4+Q9/ys9++i+ZnpiDR/vc+uoGVz/6gr31HUxfc//mPe58+Q2s7yODChdOnaMR1fjmi+vc/eYWrFsmxqf5yfd/xOmFVRphFTILh6B7BSKzKCNdFlMbQF/D9iGVoMrp5dO8ffkt3rzyDrpfcPPLr/n84y/45toNDnYOIbOoHEThcnYlIiYk5NmjNb74+Auuf36N7btPGE+avHXhDb7/3g/53tvf59zp80xMTGODiEwpF3pJ+OATSPJezu1vvuXqR5/x7P5jAqG4cOkyF954g8nZWRqNJgRuSRChqAYxMQEPb93l7qdfwH6PSnOCi6fOsTyzAJkmO3D6A5EbIhSNuMpEfQzCmMBKgtwi+gWm08d0+s6uoJ9jexk208jCkMiQVlyl6jYzCHChtZR0SwtKRmJLncZIOYGrfldwzyjVJiP74Ti8L0X58u+7wGtasv0pcdG/y33+Lm9rK4c0jhFQG2/Rnpmip3P6W12uffElN69dR6cZorAoAxGKWAQYbQgKw+bmJs8ePWFvfYutR88IU4ssgLQgMrC1scXm2gZrT9fYXt9EdDXrT9d59PARM7NzvPP2O0S1BhTw7edf8fWX10hEQCOssDAxQ0sHPLr/iLWn6+xt7yGspJ5UXYTPQrP1bJ37d+5x/ctr3L55i7SbuhBPGrJ+hs5y8sMuvYMuj+495OuvrqPTgsRA/6BDkeZsrm2wtb5Fetilu7HFs4dPeHLvIU/uPSIWAc1ai263y/72Dru7+/Q6PYq0ID3scffOPW59c4vbN2+z/mwdnRXUq3XG6i1EWhDt5Xz95TW+/eZbTK7p9foYbcn6KSbTSA0y1fQPuuxs7vDk8VMeP31Gt5+RF9ojJSghMRL6WYoVMDk5SaNZJ6rE5FbTS1NqtTrRWI18c5+NR094eu8hO882MP2c3mEXZYBeyt7uPru7e2ysb7C9tU1/e4+HN+/w7P4jphpt4qRC0e2x/myNq1e/ZH9zh1atQWAEcVfw6Ns73P36JqabYrCMT01SbzY57PQ4eLLFjS++YuvxM8gNwthBVJhBRCH/WTo8jdqfHcPUE/D8JLZf1jC0UnPXWb9ed8/GGbAOyCcIAuIT46I7VZC7azSmzSsHfBiNi/66TP9FHS+hnJmen6EGZwamqkNfYS0tcqxGbXYcU48IlGJ7Y4OtZ+uYPIfCkIQhSRARxzFxvUJ9rEEhDJ2DA/KDLnmnT7tSo9EeI6zGqEpEN89Ii9x5RSlFkERUGjVnsvnmFd75yQ8hs3TX1vmr//if+dv/+J+piICGipgenySp1+nlOanRGAtBGFJJfHZLKVwc9iJnd3eH/f198tyFCapWq1RrrgRhAECv1+Pw8NDZICcJKnTJ7rIsxxhDpVIhCBQ6L+gfdNnf3CaWAa2xMeJGjahaoadzsixH+I0aXRTk/YzuwYFTollLkiS0mi3iOEIFgZsEnz2jklSIqgkyVARxTL3RoJpUCWWA1ZYszen3U7q9Pr1en7zbQxQaqQ2BlNhYENQjxmYnuPDOZdqzk+RKI5OASjXh1PIy4+eWWP/iJp/+7g/cvXGLJ3cfECIJw4harUYYRGSmIMOQYRBxSC2IKfa79HcOGK/UCRt1dKjoWs3j9TXSNGNiYpJ2u81Ec4x8v8v24zV6O/vs9jo0ZiZozEySK1D9goO1Lfrb+4i0QBqIVYBT3zEIK6XlkMBdwI4jqHoinluMDy/tdoKGUGrjy/BWnrBHAj7gPO49kTvEj+OY5lx7JGzyFJkokNKi/OTgor2XkWdfm8C/a1x0/iQCL2Hg/G+df28WQha4TyGEi7OdF9hCI4whCUJC4WKfa5fQ22lzEajcIHNNZCUE0jmfSEEujNP8es04gWRpdYUf/uRHnLl4jomFRQ6ePOXm19/w6Ucf8+VHn5JYSWIl0liPDD7IfhAM9qOddDd80cZ6jyWfctZllvSztRfIXFZLRV4ULt6XcBk2wHkYDXyR8QFBcsdhrcBt8yUxfZ2TZZnLpmFxifSkRGiL9NzK+njg1rp45mUGjjJibZqmFFq7VMyqzOohsMZFYQ3CiFwbdJq6XQRtCIRAxopau87M4gyX332D8blJUllgE0WSxLQaDdrNJl98+imf/u4PbD9dZ299C1G4tgZBCAgXlMFqctw7jFVIRYRUZIDSTt2QWkNqNKku/L0uLl01SgitQBaWotNjv9fFRoFLZ6xzZGZclKBy/KwgKp1NvC269p/Cjnh2HUfOFxK4HXnv5U2esI0nckeJjgiFi9fnt2mG0WGEJUpen8C/K7W+JryIuF8dXDdH1ij4WNeFQWYGkWpUYQmRxDKkoiJCq1wuLivddy2QBcjcorQgtAGBkcgCRA4id+K6KgTCX1MNEqbHJjl/6hwT9Tadx2vc+PIbPv39xzy7/4TA1+nuFahCEGiB0sKtkTOLyHHXFAI58pxAS0ICYkJC60IMB8YpykIjUVoicktopEv7IyNiImJCF8m1cOfJfLutIkChRIDNLVkvw2QGZRWhcLHDpZWIwrVHFq7tSgsC48YowgWWjMMEaRXklpiQmoyJtULlFpH58dJgckvWzylyMwj8iAywwsVpr8VVZlqTXFg+w7k33uGNH37Am29/j1OLq+hezlefXuXml9/w6M5D9jf3MKlBFIJIhDSSOq1qk1pYIRERkVGEhSQoBIFVBDIiDGKSMKESJFRVTIWQSEtUZtGdjO7OAYc7+xzuHZCmuYsUqy2yXxDlEBnplHS4cNaBCkD44I74yXREwfZdFW1uQnj+zuePjBwrpfY/Ab7DGryU71+nfDcYvXtQm8D3fHQ+9IFPjIvu6YoksC7ZnrKMrJx8Aj4jCY1D7GEwCV+pAaudKlUgCYMQgWTt2TPufHuHOzdv8fj+Q3r7HUg1ofb1eQOPchYV/vnSF2GFC3NUhha2LkSwZJjxsoxSKn100dFrlC0jh8qj5/32lItsOvT6c+mvSrFyeF+ZhDAo2zZ4ng+RjHAxyoWLHBtYSWTcNpj0iQ2caOkiPbrobP6+UkTxub8ipQiRCGPp7u2x9fQZjx894OH9hzy8fY8Hd+6z+Wyd3n4HmxaQ+SSJKEIZonDPk0IO0jOhS823Cz9dbgsKA6Jw+owjsdrL4vHAjRkExkV7LSPCSjEQwEG49a9bA5c+1w5H3OdxGMXUk2GAw56DD+vDPUm4Jw6f4Yv/UP/4a/DQh+j9c0JJpn9sqnKmquVgWK9oK6N1+P6B75r0QfSkP26lM1hxccXKcL5uUih3voxwgQgyaygwaAkikC5kTxK52cW4uNo6yxHaIAtLYCG0gsDnvyrTBpX6f698Henh8TVZCV5XesK0fWSUjt0rLEcmB+uj0Grp7PaHNzi0UQaUdkrIMq5aWY8TSS2FlyBLT77y2sGa9EgyCs/tvO+0tQ7pAmGJlCBWkiCU5IGlT44OIYgD3xqLFIIQSX/vkPSw60IsCzXIyS2DECuddV8/z0j7KXEQknijFSGkMw82liJ3yQqM9oknEYOdmJOGvBxqhz+OsNzk5d/dgJl4whMvqokj4+zuGGreyzdohQsy+dwafEREdw8cWYN7EeK/kYhuv2P5rjByvx/osjbhFW8lAg7D7LqXYH2XjRgOpjKOK4Fwwf+Viwtu/IuTOBNLFYaIMEQjyLKc7n6H/l6H/KCH7eaozHpR0XEWpMJ4RLfWSQJ+zAf5yIainp/BTyovO+eJ+PixwX3+zyFYyU2PlRK5Ro6JgaTgShmPfPRc4Dm+8hzftdNNkKFPZhj4/GNSSmc6a8EUhiLNyA57ZPsd9H4Ps9cj3+lSHPbR/Zwszcn6GYEKqVcbhCpy6Z0Kl8TBurxOKBk4MTqIsEiyrCDPNdpLmWifVti3UXlOPeDQo2VEqhIlsY2i3TEoR+v4dwclRh7/LMEvLf1NI/PHC6G85mRG8OrwmgR+nGhfpfzp4Prq6xvBUeE59YDAjUM4OVi7eId9z01lSeA+yLgeCfzvYnl4G2oZEoQxKoowwufZyg0iM6gcgkIQFoKokG4NLyRCloH+/Bvx5syOuD1hD4j8BIQrCfg44Y4eP4EYR48fIdyTiPuEMqh/lHh9nfgJQ5bLnoE474jbjacLjRzpMh2x88iyg3HwkVIKQ1hAxSiqhSRMLSozyAJ0VpB2U0IV0qg3CcMYa0HnBp0bjLZgHVdXKiQMI0CSZwV5ptG5xpSiuR4Sb7lkOz6+w2WJL8cmxpdh7ahw5XroDwxOjH6O0IA4Sg8ePY8+yw/ZSTWV514XXpHAjzbu9eB4c18Hnr/3SEtGts3KMMrSI54op4Qy5JNHZjeruxdpPIE7LakTh4R1nCcrNFlRIFRAGDjbbKUFKrcEhbOkiqwkwGVFMY6BHLEHH8Y+HymewE8sIwT3XHnZuZLb8jxhDxB3ZAIYRebyt/CEXD6rvF6MEEU5dgMpxOs+ypTEgX8HAn87rv+2MBS9FNPLibQg0copuLQilqFba8uQPNP0u32iIKJZb5HECcJz6rSfkWUFAkklqRKFkUuOaFwqJ1MYbJmXrFyDe/wYLa7tI78H72SAYiVqvRLGisE/XxE8f+dI5aP1WkZezUnnRq/xv18XXpHAR2G0KaNNehU4ft/x7pwMJ1012nHjs3o4bs0RMX4AfiAH1qYetUukdnX6dbPFpdHNDJGVRMJnCrW4XGE4qcBth/l1qCduY4cROIe5QEb+fOzwoafcsLg2+JYfpcGjHXlBsfg4dv6ItD5LyGD54mz5SyQHNybluBVl5g/cRcK3VwsX9DBXZdTTYR+0NMOwyz5gIsIihVsAGmHJhXbGSDqnKJMj4CZfJV120FAF6FzT76coFVCt1oiiBCkDJ+ZnBTorkFZQCRNCFSKswJoyrZDb3jMDa7ChkuzE4vUH5bgdGctyu1JQanWPvwQP5ds6AZc9x7aDMNInw0lnjtV0BEZbc7xFJx17TQI/6ZG85HgJLzv/snNDOOkqSxkT24vhYqDYHb4nj9B2IDWXYffdP6eMc9/LBO1YCFBESJRPqqeEyyculALllWk+U0c5YYB7rvUKQMcEnyfkF/55yjs+o5fl+df3PJTtKPtd6iWG+onBNDZ4VqlYG8SElw6xhXCDaKSgUMIReBmD3U9URowQuLIu7LQ0BIEginy0myQirCWIJCK1ml6Rk+qCwhhAEAivMZcKrCDNctI0IwhCqtUa1WqNJK4QyhCpcY4ihUFJJ1xbH9H0iKmncDsBCGcbb70C1B4/VuZ7E04le0S6GRB6+b2UBt1TTsJJd/3omfL7C64vayvfuX+05zkDGCXewalRCWR46RF4TQLnBLQbduDlcPye0Xu/G5TIaaUY5ucqB+eEHptBmiI32AIvzvvR9ctlsM4+ObKSoHCZMxVOWyukQwYzEO0ZcgTKZYEjbJcUwD1vkNXjZeUlSHC0QyNI6MvwucOrhqJpmVnzqGha3m6ldZPVSGIC4XeCrU9QUEjHxcscYwjrQxsbCqEHsdKNdNs9gRKoSCGjABmHqGqMjEMKYckwFNa65YxP86t84gBwXmhZViCFJIpi4ighDiMCqRDGrdmttk6q8uNyBKuOafgHhO6TNR4hbEZLuSVWbsucNNYjmPucbD+K08Nz7t2W54fwonc9OH4SoftHHHlsee74gdcj8NHGH4cXHf9vA2XLjrbQfRtwK0a4ox8JMbIuGwV3vAzT7CcBd2YgBpdibSkVjPoND6GUh4fFnnDsKKKcVA8vOX4ylOh4dA3qCN1PB+AJ2PWnnIxGnuS/GB8Hz6WQOjohlUkKhplNnIguyqLcViOhI3YVRwRxTBBHCCkp8gJTuDzjwis5QWCMIcsL8tw585c79BinmbfaDHQH+P/HJ7jjBFmeGx3p5693o/NSECWlvQhGz/nvws+qwh073obRz2N3vrw9J50sO/x6BD5s3PPlRcdHz/9TwvE2HjtXTotYL8gfp3r//TlCPN7HY+cG4zX6WcIJ97+w7n+aMjoRDL6P4sDouPmxEcK6OBglHQjhTW4lKlCEoUukGIbO5NVojdVuK0zgzHMtPid6npPlGYXWPsoKzpzWX8/IRFb+PwrumhJOugKOE/mfC46P17Fjo+UEGL1j9PN14fUI/KTGPdeBk+BFx/+xYfS5xwaZEilHLhlw05FjAziprtHvJ7zEF507cTz8seMTyxEO/5Lyx87/0eIfP/L056Bcig4kWndvmXDQ+125GN3WImyZYhiEdNtnUiqkKvN4OYK1g60H4bJ6WuvyvecZaZaSZSlF4VPzjoQ/OjJUHOnGCIxMTuV9xy9hyP1PrOKlcHwcR8fz+HeG+pbBn4eyUSNSyOu35Xl4NQI/MiLHO3ISMh/v6D8lPD/Izx97UTkOx8+/oN7nxmP0s4Tj9YzU9yKi9uLvYJP9SPHHR+991XKsDaU2YbQc6YcAUd537NNFsXLr9yN1ek4upTM7lcrbD1i3/WC0dgRYIre1aKMpCp/9M88dJ/dOMeWSaMBjBu0rv7+oT8ev/XPB8888eo5Rcj4CJ91lhx37k+DVCPyV4M/Qmj8rHB+2kwb3+EsYDO/I8RJedO5Fx0+CF7VjFE6q79g95csfLZxMrK9XXgFOnOx9Mwa7S35lbBmYah5ZLwuvVJPSieTWUhQuD/eoLsNatwVWZjHJR4h80Nwjn6OmoS+C4zcehxcdx507Ec1fds8/LbwagQ/afxyrfBksYk4492cHj1THudBzpWzCi17KKIxcc9K1/tigR4LnudqfBU6q74/VXbZj9N7j3P1lxd83GK/hltDJ4AhUSpcvOwxCwiBAqQAllXN08c0ZGvwwJHALutCk/ZQid66dUsqB3XkQOJ93KR1qOldW6/a5fdbPAQcvH+CuHPn9suKvHXweLy+CUTx62XUvhtERPf59FGXxv7/jY47AqxH4KBwfjyPE/SJ42bnXgdFReK4hLy9HuNvzMMBt/BcYXDs4duTZJZxc33eH16m7PH9Cf1+nCCdCD3ns8XEYghsnl5M9iiKiOCaOYiKf9kcKR8TD9fLwPnDniryg0+mQpn2sdUn1KpWEJEmI45ggCFx7Bi/EObA433nnY+2I3HNy/wx/5VAUHu3Mc+9u5Kbn4Pi5V2ESrwaDZhz7PoASVV90/jXh9QjcctKIndDk4+XPDcdfwElwAiK/EpRrzuHv8li5hnM9ep06PbyUM47Cq9Rdnj/e1pIrv1pxxPAqzxtCSXxSSsIgII5jojDyeb0kxkeZzdIM7TXeowVw1w68wMwIh3Zr7MEzhBwSO45JH5k8BjH7jvflBUW4ax2ccP65cRi956TzfwKMNOk4tYxiyZ9CRa9H4P/dwmu8lIEm9Xl0cXDy0cGZck/zGKmVb+i7vqjhs0afe/zYEFsGe/Wl+Wm5kjqCSe4e6y39XqdxJdEp5Qk8ijznBWM0WZaRpim60E7ELnNuW4OU0nN8ibUarTPyInXr7MKFoxp9hivlkw3WujJcb/sOjK7fR97D8OirwUCjXo7THxcA/zT4x6jTw//KCXz0jbzK2xm55gRuW5qSnkQkR67jKFE5ZBtyIc+GBsVtKZVIeqSqE/owenzkc9BUL6R6Y5Qj1nMjf+46HLHgCMoygtgngBuSEYIbXHfyDSW3NcZQFAVFUWCMM1AJwgAVKKQSaFOQpj3StE+a9im03xLDVT18TNnu49x6CKNHh2N//KoXQ9n30evL5x/p8n8n8L9yAi/hVV7vqKJt9Hv5pazjCAodfeMlMh37LM+VdVlGiPlIOd7O0d/Hn3/SseH11k8yo2W0re7KoQ330We9BEZs1Ae9GVlrj1zou+vWynqUwIUYZPKUEozJ6XsCzzLH9R0B47QCvh4GhO1lo3KxWvZ9tH+jhP2aVDlaawlHdLXP9fWfL7wGgf9Tz1/lC3dcpDxiRhF5RCweIvaICeao2DY4N8LlBgjkUAlhnU/YqGnmc3roF9mZl8jlAiUKl6HdFY8gokScsoyM8LCNR9s52i/3jOGzBtd6m3LjPcFM2bfn2ug83o6nxrWCQR26rGPETn3wPGsptCZNnXhdFC4po1IBURQRxwlSKq8Fd3vaunBpjaMoRIUKi6EwzmItK5yIbrEIKZwjCxotzODZvscD6cQ5vwzffzkOR3DA9+k5fDmhlP0vOXkJgznmH5MKfP1/Mow08BVDNulXDJv8x7o+gt0vheE1A/HVI7JQEoulsAYthUssF0fEcUSoAkIpUUJiFWQ6J81Tev0+JtUuGICWWGEJkpCkXkFGklAG9PY79A86SOtMJREWFSgq1QoqjhFSkRYFvV6POIyoVasIwODsr41HPuFjp0mcEUfWT+l2OpiiQFiwxkUfkb6bR4haAD5YghbW2W5XYkTocldLv3dsjIFCY9McnWZkWYpREFQTgkpEGEcUeU7a65NnGUWaI3EONEmcECUxQRiSFzl7e/vkmUaJgGpSo9KoInz0WS1cnHOL5/LGYguDyQrQznkFA9b4/pSaeDEUzwvtiFr77S0pJM1mk6mZSbQs6OZdNvc22NvcQxiJsgFJVEVWFDq0kEgXMjqH4rCP7WkyrRFRiIpjZBwTByFKuGBFwlqn5CsKpwfo99F+TR+EIUEUOXv4KMJK6QKQGYvVBp3nFFlO0U+x2gwcdIS34y/fUTkJDPH0ZJz2U5E/X6pu3ewhKJUjnp7KkMk+ZJMbUTmgGSEgjiNac21Wf3SJX/xP/5bGhUkXsklYlH8ZApd44jXDJr8Kgb+MuI+fO3lAHBwlbrQG4+J2oQQELslfp8gQlYhkrMnc6WXOnT3L1Ng47UaTRrWGTAKebj7j3pOHXL9+nY2HzzDdAplaDJrl8yu8+YO3ac+1mWyM87v/+ls++vWHBFr6GMSaiak27/3geyysniauN3nw1AXWX11a5vvvvUcgJLnN0KKgkAUIQ2QjEpkQ2RAKy81vvuGXf//37GxtYbVLToj22vgyVljZZSWRYYCVklwY2vMzLJ07zdjcNOOTE9RrdSqVCt1Oh/7OPpuPnrB+/xH37t3FJAGnrlxg8fxpTq2usv7kKTevXefxvfs8efgIhaASJVy8cIFTZ88wszDH1u4Of/M3/5XHDx5DYXnz8pt88PMfU5tsEjZjMumMSrR2SrPO/iHbTza4c/0Wu8+2MWmOzgp0XhCp0IdVdqaoWmt0UdBPUxeCOQgBt0V25swZPvjZB9Qn69jI8g+f/o6PfvMHyEDmLjSTbIdMnp5h7uISVy5fxuxm3PjoKzbvPOXp5hbNmWmmV5aYXllmeXaeWpSQqBCbF3T2D1h7+owHd+9x4+YN9g8PsEIwPTfL/MoycytLzC4tEiQxkQrQ/YzewSGbT9d4+uARD769TW/vYOCkozyhl4RdSk1DOBmfh8Rd/sbtw5QEbiXCSn/Gx5vycdHLeGyO3twsEycRrblxVn900RH4+UkyqZHCIIX1psJHCfzPGFX1ZVCeP/75MvBzmB/cQAjvqikwuKCA1ckxZs+ucurty1x59x2WT60ytbxIdXmcyuoYU5OzBGM1ejYnzwvy1M3Quc1ZvLDED/7ifU6/e5axN1bZuvuYr7/6GmUkVhRYmTMx3eSHP/0Bp7//Hq3LK0RhhfvPnrJ0apULP3ybykyb+swkjXPTtC7O0jo1R31xmmRmnHCiRTg5RnCYc/PGDQ47h46tebvr4SgOt96EEqggpFKt0JgcZ/nCWS5+/20Wr5xj+fxZppbmaM2P05qcotVsIqwl7/ZY31yHesK5997k/PvvsvDBCjONGYzRHO7vs7a+Bp4DXLx8iSvvvs38O2/RaFS5+vU11jbW0drwxpUr/MX/8G8Yf+MUrfPTjM21qUw2aMy2ac62GZudoF6vOw+wrCDrZxR5js61i3oqfZz2USMV7/UVx7GP8Z6zuLDIu++/x/TF07QunWJvb507d+46t13jlgyipVh4e5WzP7nM937xA1qNBk8fPMZ0MmQSM3/+DKfffYOVty5z9vIZJuYmaUy3aUxO0G62kFLQ6Rzy6MljCgGNyTarF85y4b03Wb1ygaUr52guTtKeHmdseop6qwlK0O/22FhfJ+32vOfdiNn96Gw8IJoXg3uvpUJylE5Km4PRvxEPPH/tIDqqV26WmU3GlqZYfeMs8WQV7dd3A9PhY1FVX8SO/xHgVYi6hOHABWFAnMSEUYhQ0m2zBAGt8THOXbrIv/zf/Bve+9EPmVmcJzU5D+/e4dlXt3nyxT06WY/51SV+/Bc/56f/6l8wtTCLiAJyYUhFQRpo+qFLNq+lW2u72dKJ3VYUFOQg3DWZ0BxmPe4+esCXH33O9d9/zud/+D39zW2Xh1pY2O+yfe02j/7hKo9/e5UbN26QpungpQ2o+Ug/3XM1LvpJY3qc7/3kh7z/sx9z+Z23mJqZJtMFtx/c53d/+IRv7t5iY3ebbq/r1rVaOzfOSJEFLuGeHK9w5e23WF5dodaooaJgsFbVTuZES0shDDYQqEpAWIugmYAwpIddvrx7g19//Ds+/vIzvn1wB6Ng+dwqP/vXv+CDf/ETppdmqbbqJLUKgVLowm+P9VO0NiilqFaqNOoNR+CBI/5+2uPZ+jN0vwMNqEw0qU+1CeuJT0BhIJaMzY7TmmuThZqN7g731h4iqiHf/8kP+eDnP+Z7H/yAiZkpDnsZt769x+cffsqNL77k1u1bbO9sO92A1kzOTvOjn/+Un/2rv+CDX/yIyflZtvf3uXHrLh999gU3bn3Lk2dP2d3fo5+lGKNHBeoXwMuJ+wi8xqUlox1OBSOnRn68UpXeq++fLVgBVrk0sDpSmECSC0uQRMzOz3HmzBkuXbjEZHuMzt4Bj+8+4PpnX/DFhx/x2e8+5NGtuxSdLvNT01w4d55Tp08xMTONSCIKJSikC1NUjqL0GSddQASvxBlobMFqQ7/b5cnjR1z97HM++/QTPv/8czY3N91IFjkHuzt8c+MGn3z8CZ9+8gl3bt+m3+s9p6kuf5VFC7BxQDDepHlqgdW3LzO7tACFZu/RGrevXuP6x5/x+Ycfc/XTz/jmq694cO8eu1tb2KIgVC4arMW6VB8JBHNN5hfmmV9coNaoD5RlttTo4bbJkBYVC4KqhGoE1rC3f8j9u4/56tPr3Pz8Gx5+eYfte2uYXk57aYHTb55j6eIqE/NTJLUEpRTGGgrtfLh1UWCNs1KLoshbuDljoV63w+Nnj9na34UYkok2E0tzhM0qudLYSJJUK0yMTzBWa5F2Ug46h2TSUpltc/qNC8zNz5JIRffpOnc+/5Ibn3zOtT98yteffM7Nq9e4d+sOezu71Gs1VldXeffdd1k5vQoJ7K9tcuvTq9z5+AtufXyVu59f4/71mzy784C99U1Mmh/Vmh8jrv+e4J81gRvh4nrnEgol0IGgEBBXKyyfWmV5ZQUakr3tPb745BM++u3v+MOvf8uHf/8bfv/3v+Lj3/6Or7/4ksOdXVqNBhcvX+bspQtUmnVsoCiUJ3AJMMw9Lp1OBgMUpUGFBKMLep0Oz5484evr1/j6q2t88/V1tne23QSQZ+zu7nLr1i2+/PIq1766xoMHD+h2u87gw1tpDbbeyvWcn0xkLWHq9DLTl88wcWaZvi346vMv+N1/+Vv+87//D/zDf/17vvz0M377y1/xd3/9N3z6h4+4f+cOJi+oJLHPcW3LdFigYGZ6iouXLtKeHB9wbzN4vHW9lAYZCWQiIBFYozk46PLk4Tq3rt/mzpe3ufXZDb78zad8/cU1yHo058c5/+5FVs6vEtcSVBC4iCyWEQeRHGNdn/OiIC8yLIZO94D7j+6ztr0JQGWyzfzZU0RjNfoUBNWQRrtJe2yMSpCws7HDYbdHe2GGydOLTCzMkGZ97nx1nU/+9lf87X/4Sz771T/w7edfcu3jz/nio4/5/KOPefbkKXNzc1y6eJGZi0sIpXh47SG//+Vv+Nv/+T/y5a9+z70vrvPNR59x7cNP+PqTz3l06y5Zp3ckEMhgIh4h8iOC2D9j+GdO4JbMFHR1Rh9NJlzooLheZXllhbn5eQhgd2ubG9e+5uGdu+yubXKwsc3+xjYPb93h7jc36R8cImsxq6dWmF9eIqgmaM/B81EObh0HV9b5GlssuuS8Ixz8YG+fna0tdra32d3ZIU1TALI857DTYXt7m62NTXa2tzjcP3CI7rXIJVi8prnk4ICqV5g+u8L4uRVkO2D7cJ+vv/yKB9dusPXgMftrG3R2dtnZ2GTj2Rq7W1t0Dw6xWqOE0/5brPPX7kLxZJekkvDmW28yMTU52GYrObjAr5OFwSqDDjRIS241WabpdnK6u326Wx06T3ZZ+/Yhj+88oHN4APWAqdU52nOTiFAOHEaUUggh0Fp7X27n0532nUbfWk2a9tjY2mBjb9vlI2/WmDm1TNCo0LUpUSOhPdGmUW8QGMn2+jb7hx1qE2PU5ieIJhocdg64+dVXPLp2g7Vv77D3+Bm9jV06G9scbO6wt7mNyQump6aYmp6GKmzv7nD1s8+5+/VNtu8/pvtkg3R9h+6zbTprW/S29sgOOi6BYrnDUb6yUuIZfYH/HcArEvifMl991/vcIGZ5TrfXJ81ztDFYBNVajaXlZdR0HSxsbW5y+9tbbG9uoYQgCSOSMGRrfZ37d+/Q7/WgDvF8g+nZGYIoPLbd4cD10r056/dPdcnBBVityXp9sl6fIs0weY4phu6LaZ7RS/uk/ZQ8zTB5gSm0S4poXOT1cvuo5NrlvqyWENWqzJ9eYXplARPA+tYGX3/9NZtPnxFLRSwDYhkQKkWgnI22xS0jCmPQpnDbdQEc7O7y9bXrKGD8rfNMegJ3cddKzHUc3OK2+TQarItQarRBWp/YQYPpF+yub7H29Bm7+7sgLPWpcRpjTQwuEkscxwMiN8aQpRn9Xp9+t0+v2yPNMrCQ5zl7u3vs7e7RPegRRwkLS4uElYiu7hM1E8anJqhV6ogcdta2Odw/pFZvUGu3oCbY3dvl+ldfsf7kCVmvh8kKhDFO8+3fZRxHTE5MUK/XIINHjx7x+aefsv7kCaGBMDeorEAVmkBbQgQhLvT2EeIe4eJDKGniRaW8xn/6m0vRf7Tuk+58ETw3r/gbnm+fgz9C4Mcfebwpr1L+BBACFQSEkUsb5PYzLUopkkoCoVMopVlGmvbRWjt3RVEaYbj1YFHkrvcRg1BBtoygylBEd4TqiE8bl75okGXU74UqoNwsDIQkCgOXGRQX/FFKiRROj+licw+zmjhzL7fFUhpgOLHZFRmHjE1NUBsL6WvYPzhgb3eH/mEXW2jarTFOr65yamWFleVl5hcXGJ+eJKzETmGGIdM5eQZra0+59tWX7GxsQALzC7OcPn+G5sQYMpQgBUGgqFYrVCsVl7JYKRDefVMFVOOERrVGKAMoNEWau311rV0yrFgSRG48yxnTGqc5x4LAOZNo7QxgyiCJRluKrOBw/5CttQ1MVtBsNmhPtpmcn2L21DzzSwu0Gk3oG9bvP2N7bcu5k8YhWOj0u+zs7ZAXGVEYDkI9lXbqwhvTNJtNarUaBJDnGft7e2TdHkpbQiuIkMhCY/McaUyZ+McTYEk2o2UIJxHUEErcd58Dbbm3FRjYDByhEX98cO4EKnqOvMpIrw4GrfTHXkLgxx589DGvAX/KvRDHMdVqFSmclxLWbRkovxVD7vyLwR2XUmJ9oAApBUEgMUaDS8ONwHNQa7HeAKIcBWOcO6LFUliNtgYZBhAod6+1LpmeUoRCEAcBSRwjPWGIQBGEjsOGQjGSGs8h/zFUMcI5g5QBDWUU0Gi3SOrQyzSH3Q69bo8sTTF5wdT4BJcvXuLyhYucP3+eM2fPMLe4QFyruMinGLIio9Pr8vTpE659eZW1x0/AwPzCAm++8xYTM1PIUIEShIGiUa9Ra9QJkwgRKjepKkUUhjQqNcYaTeIgdPv3ZXhivOSjQEjlti8tziOscJ5hQkgC5cbNGouSzs/bEb0j8u7+IWtPnpF1etQqFSZnp1g8s8TSuWUWV5eIGy3oG9buPWHj6QZKBohAUWSGbr9Hr9dFCkGlmhAEEqxzZimXQmEYUm/UUfUaRB5dsgxbFAhtiKwgFhJyjUlzFz3XSwAjKzfw/R2WYUz1Fxee+yxJVohhNpWjhO+ucb8dPpdlQPj+uytl1aPPPAovIfASE0dvPN6JVyl/GpSdN95poZz5tPbEGUIYOiuvkjMr78YIYIxBKeFyJhrQRh8ZKCklhC5mWEncVrjtORkGFEZDUYDn2KFULve1T8Mo/ctAOA4uhFuPBsJZ1DmULom8JJChyWmZiMEpFC2pzkkNaAxBGNBo1GlU61SThDOrp/jxDz/g5z/9GX/xL/6Cn/3857z57ttUmnUyXVBYDUoQxRFSCoosY+3pE4pr91CB5OzFc4zPThJXYwgkQoCSAmsN/Swl1wUoSRC6iSsQEltolzwB4faFLUgl3Vo+dfcZ7ynmPMd8hFTr3p1/g+7baFxrK+gednn26ImzIIyg2qjSmGzRmmnTaDWg22N/fYdsv4/uFxhjIZAEiSSMQ/eOlPB7yO5dRlFIksRUqxXCMHB51bMMDASBolatECnl1tm+KGOR2kBROOI3o+7Bpbbt5fz6eShx/+inwPf/BEo5TjXHqedkOeLouePfTyDwkWqOPwGOPeZVyncHZ0Xkk9rlBlmYwTaWznMn48YQxDEyCjBKkAuLjhQkIYWSTokWhk6uLsBmBYERLhuotkRWgnRiaUlkWgpnChmFFN4TCuPF8pJ4R9Z65WxapkkSwonpCpeS1gUYHK7DypXBICNKyREKC92CsAOVQlILE+rNJvFYlbCWsLC6yOT3zjD7wWkmfnGGyZ9f5vJ7bxK3qvRNRo6GQBJXAoIwwFrDs6dP+eLLq1gJM+fOMj49RVytQDA0oDDGkvYL8tz3JVAkYYAkp9A9tMrQkSELNSaAQIUorcgOc7JOhi0c93bOJM5R5KiFO0N09YekEaT7HbYePMHsdEBBq1ZlbKJFc2qMaqNG5+CQ7bUt8sMUkRaoNCcxFiKIKwmyViFNQjqBoB8K8lhhkwhVTYiqFWQYkGYpRZqChigIneIuisitIUWTYshx9vaZ0eRWo/0k/6dj8Avg6FA8B+Wxk869LrjQlkcI2T/2hcT9uvCibvxxEBYoDGQFQWFdcjsD6WGXxw8fwUYfJIxPTbB69gytqUkKBX0MmYSxmSnmV1dIGg1Iof9oj/UnT9G9lLzTY29ji+7uPqSQJAntqUlEEtErMrpZn1QXxJXYrU8PczoHB9iiwGqNzgtMXqALV9CQ6wJtNHiOInB5vIbdH87RA/4wkmrYpAUH6zuYbRiPFOP1Jkk1IQ/hsOjx2w//gf/yf/l/8/Dvr8H9FFIgUmTCkFpn7IIE6ReRhS5YW3vGtevX2NjaBAmVRpVquwWJa4pTqIEgQODMSckNWa9Dv7tHp7eHDQ2ViSqTyzPMLs3TbI5BAXtruxxsH2AKF8jB7X2bEauqcr9u9P27/ksL/b1D1u8+JN/cBQtL8/NceuMS7dkJClvw9PETHt97RNFJ0Z0+W4+ecLC2Dim0J8e5+O7bJNOT7OqMQzRdYejanE6R0c1T9g8PWFtfZ39/HwKYmZriwsULTM3OoJII4hAbKgppyYXFBhKUKq08B6Lwd8Pe56EcieMoMZhMhjzguc/vCkMOPiD0UZHkpOqPN/OPle8OwgJ5AWnuCVwgtaXX6fDowUM2nq2BhbGJcU5fOMf04hxho0bQqBA1a8wsL7J45jSVZgP68PjRI9YePUH3+mSHXbafrdPZ3oUUGo0G80uL1NotZBwSJDFxJaHWqEMQwN4eh/v7oA3CGKx24pzVmkJ7Ajd64NjgZs4ThsKvxctTZXpji6Do5ew+2SBd2wdgotlmanqKSrsBccDN29/yV//Lf+bLq1+wv/4McjChJFeWXBqXcUQKROCQ0xjN1vYWt+7cYn1rA/IUmcTQSiDC6RqKgkIbrFVgQ791YNBFii36WDLiekhrboz5s4ssnlqm3mhCHzYfb7K9vuOye3plmrWDVKon4MBQ+JRWkB102Xn4jGJzH3KYmpri3IWztKbGKKzh2dNnPH3wBNPNKQ77bDx8zN6zZ9DtMdZuc/7tN2mtLEKzDo0qopZANYYkxAaSXpqytr7Ozs4OFDDebnP+/HkWl5dpTU1QGWsS1atENVeSWpWokjiHH7wkfSKj+zPBCEGPwvFjx3+/Dqj/4787bou+zzdXvS16XyMzNzu7detx1cOrwvDFvhq46yRgsgKT5QT4CJw46SIzmqCasLhwCpXENOt1qnFCNUk4deo0py+e49Lbb3D6wjnGJyfp7xxy9Q+fcefaTTY31tEUGKGZnB5ncek0DR0yXm9TS2pU2nUuvnWJN957iwuXLqFkzLMHT3lw6z5PHjwm72cIbQilgmrAlR+8zeKl03R6HTpPd3l47Q6HT3dQ2ovuZZfK9EYlZ/DFiejeycJIYhkyNzZHo1plbmaKielx6s0G4xPjTE5McOXyJZZWlqBZoeh0+fSrq/R0xsq508wszjM10WLt1iO++fQqQWooJNTH26hqhWqzQdh0Gqfs8TYf/v4PPH66jraCU2fO8+bbb4CQqDxjf3eLoshYWV3m9LnTXLxymbPnzhO2G+w82eUPv/6Q+9/cpru9j+1rrBfPEY6Ll2vwo+91FIcMwhScP73KwvlzEEsqYxXCakKxl3H9w694eP0+6WGfrEg57BzQbNZYXlohTuo02pPUxidYmJtnZnqGqYkJVldWWJibY6zZIlQBe3u7BFHEqallRBAwXm8y1mwxOz3DeLtNrVFneWWZpeUlxicmiOOIbrdHnudOpzPS+tfH4yE4q3ZKRHDSwUA7wZCpCjsiOZTXug8VqGO26BUntY3oC/z+zaDm5wl8fd87m2wfI3CXm+tk+GMdPn7+pDnp2AB4KMPpqkBBoAZ7vr20jwojxlotqnGF8bE2E0mNycYYpxeXWVlaZmVxiVZzDN3p8+Tb+3z+4Sc8uvOQXreLsZo8y5lsT3Ju+hSBqjI+Nk0rrtKccHbuy6dWSWotuluHfPvVbR7dfuQ4VubX5EJhI8Wb33uH+YurFAc9Ok92eHD9NvvPtlEjrqeUHKHc1hBiBNn9Gt1Av5uirGCi2aTebFBfnGa+2aRVrTI13mZmcoJTqytEExNgBJ31Ta5dvUaRF5xaXmFxdo7meJO9b9f55tNrmJ4l04IgqiBEyNz0PJWJKmhIH+/w8Ycfs76+iURx9vRZrrz1JigIRQBpThzErC6tsrywzOLcEnG1hdlP+fbrG3z0m9+z8fAppBpZ+CCIJed2WjYY6JTEIEcYBFgBRmi0zVlcnmN1cQ5Rq0KzgtAK/bTH1d9+zsNvH2FyyPKC/f0O1Uqd8dY01bBOuzXGTH2C1el5pmstZlptVmfnmW5PkAQhabfP0ydPwFpqlQpJGBG32jQbLRamZxirNRhrtlhZXmF2dpZKkqALzfbWNv1+f8DQ3NtzODkgyBEosXk4oQ1xePTesq7yuvLPnRohcE+qJRMAhyp/HgJfGyVwg8zcNseQwJ/v4BBe5dyrELf7LXCBEqSSyEC5TKJlU60lS1M21zbQ/ZTJapPK2Dhjq9PUmuNUogSZF+w8W+fqHz7l8w8/5d6NO3T2Dv0Wm6BICxKVEBWSOJck1QaV9gRTS4vUx9tYY3l0/zE3rt7k2mdf8/TeMzp7HZdsHonVUEjDuz94j9lLK5i9LnuPNrl//Rb769vOxXBkfTXoYzk7C+F07Nbp2a229Dt98n5G1u0h84zxOIEkpDE1yeTsDDMLc0TjY2Al/UdPuXn9Jjev30BnBYszcyxMzVCbHKN3Z5vrn14n72r6mSbPDVmqWV08xdh0G3JIn+7y1dUv2dvdJ5ABZ06d5tKVt5zjTBTQrrRZmJhhemKaJEzY3tjh7o1bfPLhJ3zx6ec8vf+IotMnMAKpnTZ+IJ57AneTmfWIqty2hwi99FJgyGlP1KnUarSrdUS1AdsZu/c2uP7J16w93AQjsVYCirxvWX+8SbqfUbExsQ2oVGq0mm2mp6ZpN5pUUHQPDtnb3mF7c4vOgdtv7x92qVmoyQBabarTU4wvL9GYmKQRx2T9Pru7u6ytrdHr991OC/jJuMTPo1h+FJs9uToaHeHa7tzo9yFx+3vEcGlccu7BpyeJ4M9D4Ht/Agcf7cSrwui9o8V/SOmCPPjDVnhrMGNJe332NrcRmSYWimphiWQVNrbZe7bO1rN1Ht95wPXPv+TuzTscbO+hc0MgA5elsl8QGIXuaUyqCQpLUGiEMezt7vLwyVO++fpbbl2/w6M7jznc7mByi7AuBQ8IrBLMLcwxkdR4fP8+z+484vGt+3S3D8vJ+Chx4zmZ65zfRFNIK8FYdJqjU03e62LyjMDkqH6XqMgQaQ+yPsXeNvtP1rj1zW1uf3OHJw+eYNKcRlyhIhQTRY37N+5x79uHZD1Lnhvy1JD3DeONccZMhezZDvfv3uHbGzc52HNtnRgbZ2asjTzIsLs90oMuWT/ncK/D1vo2d2/d5dtvvuXm9Rs8efiI9KCL1BCikEZ45Zrn4j7yC8JiZYm0ARBhiXBXZhgywtgnFCygcmjYuP2Ehzcfcevru+xsHXj9gELYkKxj2F3bhb5B5Rbb7RP1C8Jeiuil5Lt77Gxusvb0GZsbG+zu7NDZP2B3c4uil6LTnLyfkRQFUa5BG+zeLtubmzxbW2N9bY2NjU2yNBuI0eW7O47lz7Mqd0ZQiuDu10nXDYjb78AMubdDmiNE7psRhIq4/noELow9HvDhAf/h//HvuX/1FnY3Izi06LxADPx8B9g6AqPHTjr/Mjg+bKNQdth33tuHDz79NlS1VqPZapJUEuJKQj/tkeU5cRxjMWxsbnFwcEheaLyxmtvKMZZGo0Gr1aRarZBUKkgl0QF0dcph1uXwsEN+kKEPM1QuCWQZxtfNqDaB+mSDeCwh0xn6MOVwbYfiIEWZkTU4DJz4XWKfcizdaym17mAJlCKKFfV6RKOREIQG54pvscpxRlMoDg8yDvdTdnf3scLQHGvQGm/SHhun183Z2T6g38vppanbz1eSiakJms0qgoJe/4DNzQ3nDGMsU1NTLC8vo7wNgdYuEktpT97v9en1+/R7bo1KAYGRhDZAaQloLAUWjRBmIF5aITyRJmBjjImwNkNziOaQat1SqzVpNseoVhtkmaHby9jZPqTbyxEiGJKXEWA19WpMs16lXo2pJAlhIFFSUBQ5aZ7R7fXo9Lp0u13yLEMXBVEYEScJ9XqDWr3uDG+kdFaLeU4/dX3sdrou/JR1b22AmX7VgX9zw/fKEfIfTOz+CkdgI2D9u7YlMXoCFC7og8VxhQGOeGkoTiKas8OILs0L42RH8sJpJAHeasELU6MEbmHji/uewG+PELhG+MRxL4aTCLSEVzl30jUjBD4YTk+c/qfAmaVqoxHKKeKywtmtV6tVwijymuIyfK/LlAFu71sphQqUe7qfTbUwZCYnsy5fVmAEoZZEVqKEz94hBEEQQqTo5CldnTnrMCNQhUFpi6u1nI1da49+Z7DmQoD0E4dEOEWVLBBCI0QBEgrjt+GEQBBhdYA1gZu0cFxTKhextMw6Yn3OcxfzLMcK4Z/synDPWhNFLtiE8FKSC2Ps/M3LMRt5DSgkykikESjjLMlsySnKfg36rMBGWBthTegngh6GPkKm4A1VhJAU2mKMcAFGRIAUzojJPV+4pIY+/5kSFik9typjz/n2GW9yXG5lGm3QxrixCcMhd8S9e1FOtD4x4mhfB9g5QuQjh16PwHEELPBJ7bEjIZvMyJg5wyArfMim70DgTuZ278HD8OW/Hrzsnhcd/67gXoSUcpAFQ5cpaIXLMS2QZFlOv9fHWhe/G8RgYigzcwD0+326vR7dnuP8VlukEURWUhEBFRmQBIJQGoTNECZHao3NC3RPY3sS2YvhMMZ0Q0weYU2EKRHaRlgbY23ktqJs4ERO/wLBOuKwXhNtCwQGawxFrhEiIInrKBJMpij6grwHJldIG1MJG1TCJgEVyAPyjiY97NM9OASTUY0VSSiJFcTSEgpJKCJCUSESVSpBlUbcIAkiKDSiMChrMXlB0U9BOxvtQDgJJhTOFFeVaG2tj03nsH9gA4BEWIWwgf+UzniptONXMZWgRiwbRFSROsRmYDNn+yDyAqVzApsT2ILAFoTkhFITSkMgnWKvyDOyrE/fe6wV3lU1z3KKLKPIXVw462PCAYMJaygZOEtJY9y4jzj+wSgGj0hkR46/IoxSyYvuPVL/8dnkNeGERfWwCa7ukvpf9Unl/aPlzwujrbFYlJLEsQs6MNiHlhJjLEVh/B6tJc+dpZVSEqX8i7bOc6p8ufjVgElzTDdHZobQGEIMkhyhM2yRYYocCo0sJKGOiXWdWI8RmjrKVoEYS4ihJO4YRghcWBc3azjzW6zRFEWK1rlbpvtdhDwz5JnBaomwEYoKgagQkCBthC0ChA6JZY2KapCoGsoqbJ5jixR0RiAMsRIoaxCFgRxkEXkCr1GNqiQqRGpLkWb0DjqYLHeKwlyjswyd5dhcI7zPvFtqlxrzUd4JwgqnPLSeyE3gvwu3QLECZQMCEpRJkDoiJCGWCREKZQUBEGIJrPZEnqNshjAZ6BxrcoTVLqOpl8ZKPZE1LlhnoAKi0MeLCwIX4dZLamW8OccYIAwCQs8wToLjRP66mH0S4Vr/ffRzcM2R70el1lclx6MEbgf/BsTtlGuvWNuJ8Kfc+0fA26crFVCr1QjCwMfUdi8cnA271tpFGU1TikITBCFSusCAgyAMfjaXwllZ5f2UfreDzlOMybEix4qUgi65PSDTexTsg+qggi5h2CeJ+8RxTqAypMwQokD49agDNzUNFSHlUQNojC18LuzciesIikKTpjm9Tp/Cxz4Lg5A4CglCgZAFeXGI1h3CyFCpCqo1QRRpLB20PiDP95CyRxTlCLpofYDRh2C7hIEmiSSVOCRUCmEtWa/Pwd4uOssIpcQWBVkvJe9n6My5wA7szb3IWip5joJ1Sw00QuQIkSJkD0QX5CHIA4TaB7mHYZcw6lGpasIoR6mUIChQyi9RvOhf5ijTReGSF+K2j1yYZkfEjktbhJREUUSlUqFarRJF0YgYLrBefHfWd8LVEbnYcS/H2pLFDMtRYix/l1RcXncCHDk8/HF8JEdpk/LKY1WWzGL08JDArSvWi6/OQ2qIgkNO8yJ4vtPPteBPguP1Dou1Bq0LsKCUc/YQUqJ8cbeLQfZK6ycG63NgKaUIg4AoCFDejrySxNSrCVEokUqDzCHMURVNVDfETU3czInrfaJal6iyj1DbWLaR8oBA9QmDgiA0SGUQwrj0uKX4Z/1yYZBZxMUBC5RECvya0aJEgEBhLQi/JLEYCt1Hmx6WLsgeVnYpzC6F2cOKA1TUJ6lqoiQniPpEcUZSKYgrOXGSkyQ5SaWgWjEolZP2D8nS1IVAFsJFRxVOdFVCEqmAUPrxsaWvq4VBWGu3gSlKJIIRjXqOIcXQxYouIugQRB2C+AAV7REmu8TVQ1R0gAgOkGEXFaZY0UObHtqkaJ1htFtH21K8Fg4rrfXc2HgpQrixEsK7BXvpTAifUUUp5yuglOundJJUOXE8J597cNh8jM0OYAQnRfnbjcjRa14Vjl5bekA6ScXhaHlVWU6CoxzcMxqXwtVpUt14jSgjXhte9vhXgZfc75tljCHLMsfNg8APgET6OGXler0MSDAQxz2nD4KAMAiJwtB5gAmoVRKajTpxHKACi1U5IioIa5a4Yam2IWkVJM2MpNYjTA4QchNjtxDygCBICaOCMDAEys2eRrvMHm4ydYjiRC/tNM/SEoYKpaRbN2qDUiFKhoCLWhqEAdZosrxHobsYukjVR8guud4l1zsYDgjCPtW6dUQe5yRJQaVqqPoy/G5RMqfb3aff64IxBFKShBFKCPAWe3EYEwUhgVRI6xRJrgyJ/Bjf8hdoEAXW9jF0QXaQYYcg6RIkHYJ4j6i6R1LvEsQHoPZRUQ8VpVh6aNNF6z7aZBTaKU9LP34npeEmeKPR5fj6c6VupgxMCRAGLiCF9O6sYRgSKMexy7W7tS44x/ECo8T9/NlRBepJv5//Pgpl3cP6SrBekTwk8KHS8SjrHf4S/p/TouM8rShg6/p9/uY//BV3P7/FwcNd1IELVYR0Gt6T4aSOvCq87N5yNE+cMmFgDjni/eO1l9YOB9iRl4PysyR6YzS60G5YrbtCYlDKEgaCpCKpNBWNsZhaK6DeSJDKAhoVWEIRoTNDkWr6nYxOJ+dwP6PbKUj7giwP0DqmKGJs6RdqBcIKrEyxMgWZYkXh163+JVm3xLA46y+3LSfcLkHep9B9VGBRyiCkoVqJGGs3qNcTKpWApBKQVBRSuR0Ql8NbkRearG/pdnI6hxmdw5z9/T57u320dohvrcFY7zTjlxMgcJgyfF/l6DqzVDs8VyoOhZu4QGNFQRRBrR7RbFVotROqNUgSiwz6CCKwAVYH5LkgTwX9nqVzqDnY63Nw0KdzmKELNyZKKceE/Hq6hBdgygj4Vr/wQj/+JyH7QON1wrkT8fgo1h3VpjsdhRtb67lraQnozjv8FW6fw2iq1YSFc0uc/vFl3v/f/ZzKmRbFES269eEqnH0FgNCewIUn8N2bD/nVX/4dtz+5yebtNcS+cc8VPv3Oc0M42qGTOv7H4KSBKeE4WR6D70Tg7pjj3MprWx33t9oNllRdojilWjO0xhPGZ9rMLEzRnh5jfGIMISxa56hAEIkAm2tMVpB2Uvb3+jx9vMnG+h67O326HUWeJxhdRdgIqwVGC4RVWJF5Is9AFAMllHvxApBY3HaRVMZxQ6kpdB9DDxUUBJEhiqE93mBpaZb2eJ1qPaFeq1KrV0C6MXLLLldvnmm2tnZZW9vg8cNNttb6HGxrijR2SwGP3wLrjHI8IpZLi3IcxeAduC0qN/IlWNc/kYLMCUJDraGYmKwxPdNgZnacVqtKvVFBBQYpIqxVWCMpckGWWTqHBbu7HdaebbG+ts3G2jb9Xo4uFEomhKrqlJYj7/nFUJ71177w4lchcF6Ar6O4fBx33dJh0Arr3q/7xBO2W6pR+iy4kXX4bDS1epVTV85w+seXefvfvk9yqkUu9QhxP0/gA0s2/37Q+z02H6+xu7bD7toO9Fzg+lIx4Ro/Wko4qcOvAqOD8pog3Osovx/5fA6OtrsUdUpNqjsmiOKAWrNgdiFi8VTM0pkas8st2nM1oqZEq5TUdOjrA4wqkGGBCnKCsCAIc8LYktQkScVlSNFY8lyT5YZ+2sca47fxBMhikEWlnKycZduQaw6LJjd9sqKDkBkyTBFhj9oYnDk/w6lz08ws1GhMSCp1CCoGwhyrCozKISiwqkDLFC172KBPVNM021UqcZU8A6ETsIIyjRrCOgS0bvwcMrpSjrsjhvJ6htOpMCAzZJgT12FiJmF2sc7CSp3JuZBGWxFVQPpAj1ZarNBoXCx6LQpkZIkqilorptaMqNQVBBnd9NA9WQZHCPzoeJXHShi95mXwEgKHV7p/CMeI3E+abuyGI+imy+OSUNmGYX3VaoX5lUVmzswzsTKDbEQuhjxDQcbhzvD9qP/Dv/t3/w6GBG4P+mw/3WD36TabjzewPaeccOU40o2W7wrlvd+hjtclcD9r4kM+OYWbptB+6ywIqdZiWuOahdWIxdOS6UXF2EyFyngIFUshU7RMMSpHVSCuWKJIE0cFQZARRIakqogSi6XAGMhyQ5pp+r0+AkEgQ/ciRAFSY0vb7RHT1aHm1YvHoqAwPQrTJYgLompOXNdMTIecuTTLwmqL2pglrmeoSoGMNAQaEVlkZBCRgVCjZYZRPWScEtU1rbEaoaqSdSVkFXThlGUWtw4t21ESd/lXvneBk+7cpSUiW6wwiCAlqhsa44rphRqzixVmFmNaE5q4ZgliUKFAhgoVCISyEFisdG2XkSWsCupjMdWmIq5BYTscdA6wVmJ1ADYZtsdPRKPK4ecR4vjv4/DHCJxXquM54saNS3l+OIbl/yGRD9rtCVz4e6vVKkunl5k6NUdzfgLRCLDSRdEta3shgUv3DOxhn531LbaebLB2/ym2X7iIJEc4+J8Tyvpet16vLS3vG61mOGEOoSRuPwBSKYLAZb60tiCKFEklYGy8wuS8ZH41YnxWIysddAg6EohqQqVVp95u0ppsUx9v0WhWiWKJDCzGZuQmJzcpRuTESUIYV5AywhhFnuaeeyu3D16aJpazMK6N5WcpormOFgiVo0JNUhPUxyRLq20WT41Rb0tEmJHTRcs+BKAqMXG9TtxoUmnVCSoxMgmwgUXLDC16FHQx1iB07AxlbMWl7zUFRZ4dfee2FCtdcUTg2yz8aAu8qaVbf6skZ2quxsxSnfZ05KSLpiWo5shYEFXr1MfGSepjxI2698uuEFZjRByQmpycHBGBCDQqKkCmCKEwJqB7aBCm4kRap+sbWBk+jwGegw3gCHaMwFHiGzl8MgwufdEz3edw5PyYMdS3lMJ4SeRuLIdXu0yqhqRRYencMpOnZqnNNBH1EOFDbz1Xt69R/e9HCVwAaUFn/5CdtQ2ePniASfvey89zcS/bPw9Hu/Dq5Y/BCTNhCSO4NTh0/MDglyNuxyHdfrcbBIsQOXHFUKkbpudiZpYSJhYSquOKPLCYqEnUnCEZm6cxPketPUNjYoakOUFSaxPETWTUQIQNjIroFy7lbVypEUZVAhWjC0230wMj/Ro8dGFXBwTBoG0DBBOuWCGwMgeVI4KCeitmfLrC0qkpZhZahBWBCEJkWCFMWkS1KZLmPJX2AmFznrgxhayOISotiOvIKMHKAAuYXKCIqFUqKFFgTI8s79PpdLDGbc8N9BkD98WyfY57S6WcWah2NgjOAxCShmHhVIv51Rq1cUnSjAkbVYJ6k7A5RbU1T6U9T9iYJqy3CepjqPoYQW0MVWmgVYRVCSIIkMqiQo0M+kQqJkslh3s56MpgyxPjpEy3heQ5usAzA79sGKDGcTx0ZUggw6NH4dg95bOO1Ft+e742gZsoB7Kwe/WeewPeCGhYoAg0eagJJyusvH2WqbNzRO0qohogQ+UtKspJZPgfxJDAlW+DJMDmBftb2zy5fw/T74J1UTKl8JkLPeL945fhOJ50bjCU/svgNwzExvKMW16UBO5S8BZ5AQjCSBNVMpJaxuJqnflTLapthahaMimJWzPMLl9ibOYMtbFZKs0JgkabsD6GqrYJ6pOEzRmS9iz1eoNO2qWf9xBKEqiYaqWGzgoO9zvoHIoUp3AbeF05xCuJW4x0bjC9iZzC9tGkTM62mF0cY3KuTmsiJKpKKvUxWuOzjE0u054+TXN6lWRqlag5h6q1CeptwvoE1fY09dYYUZwghCDrZ6A1UWCJg4xKJaLb7bK+vkNRBOSF9sTtlWx+PPG8RgUBURxT6IJev4cQzo4iroQ0JyWr58eZW00I65qgnhA0WlSn5plYOEd1chk5NouoTyMabUR9HNlso5rjRK1xmmOTJLUWhTUUpoflkEB1SKIaeV/SO7DoLCFNM5fNBeGCZpS2D4Nx9MSN2yoDL5GOTKiDcR8QxxCGv4/ilKt/qAw7inPl1cM6h8TsiHzYglEO79boygoX989CHmqyqiGZb3Lpx28xf34ZEgmhC5BZErh7WvlUV1spmZdb4BAqGhMtWlNNqmMxYdVCkGNl4dZVw66NlOHQvP7faMeOl9FnPH9uMH7H4Piho+0sX6pzbJBIhNRUazA+JRmb0tTbAlER6CgibE1QHZ+jMr5APLaAqs9CfRriKYgmIZmG+jyMLcPEaZhapjI1RzTexCQCGxuiOrTGA2bmGjSakXcsOC4ulgV/bnjeApSOJHFAq91kcmaCSj1CxpawGlJptmhNLNKYPEM4cQbap6G1im0uoWsL6NoCpj6Pai0ix5epTSzTHF+kMTZBXA8Q0QFxY4ex6YJGG+KK88Mv953t6E7F4M/jjgUrJEgJQiGkotFsMjndpjkRU2kZgnqGrAWEY23C9gLB+BKMLUBzDpoz0JiG5rT7PjYD7VmYXqYys0xlfJqg9v9v7ryaJEmOA/1FpCzZcqZnZndnVmKxC2ABHtXdw5md2f0x/Du+ELw7I2g00kgCK0b2tCiZKsQ9eERWVnXPgAAPR3hbdGZlRmaGcI/w8HAxwuggWJwrjk4KTs9mjMcFSfAjoZQKMdTFYTVEXX8GW1BR3sHdSSPgI/fg0D7s7g578bBH+/OwvIlf6AMrgOgPRAYjXNPBB3/qIPVeOL2xwp8kqAc5yUkOpUQW3C/x8KtC1XsEbjrZ/8znU+anR4znY9JxikujlHPwfA//vib5j8GwRQ7SAfSlEaoYZNmvfJpqRqOCNFM4VzM/zvjw6TFHxwqdGazvIEk5Pn3E8dkT0nyOp8RS4HwBlDjkCCNgLCmfcfLwA04fPkHnOca3dG7DeOZ5+vFDTs4mgcBjSUJF+vWtXN1LYZbPS838KOf8YsKDR8dkhejeJ1kh69iTCzh+BJMzKOaQZOJzPUnpVEpLQqcySEcwPWV09oTTJ0+ZnZ6K5JoNWWEZTzOOT+cUpczye03Xn8uJtY6mbfEoRqOSrNAkmeX0fMyTD8+YzHJILA6HynIm83PK6UOcmkl7qRGoEvQIdCkp/s4mMD7m6OQho+lM4pvZFp14JtOSBxcnzI5K8kKRpookUaSZyFZ2AuEodwkxs9lt+8mINUgHyDWcft6Zhs/d845dChDx8oCoFYHYdzl3A2oC6TinmJeocYIqEtIi681694eWfeiX3gpItHhOoUwZz6ccPzynPJ7h0wSnhSV7Z8H/ZCGUs28DYdeUdiSpbOVYv2E80Tx4MGE8BZ0YkkSTZyOO5ufMZ2fobIxShaydfSaeSYbJhy0bNSIdn3E0v2AyPqYsBQFHU8f8JJPtM2RbbpeiffigjP2wGwtuyEee6ZFiMneMJuI9VemEsjxiNDuD2RlMTqCYQJqDlpgNWSZBSwhhkdEaihHMTihOLyhmx1iV4EMkmfFkwsnpCeWo7Af13XATZAIAKJxHVER9nHoaSDbMjj3nD6fkhcZ50ElJWcyZTR8wLs9I9CQMjoWEnOnbMt1PSYmaHjObnFBkEzQ5xjjKMufi4pTJRMteu2rxdGEfObSZ10IdPg0pGPsMif2+5Adp794h7kfcOhyg90kutts+vYThY0Dow/xWSWDMLgGfpZycn3Hx+DHT6ZQ8E1Ng0cA7fO8+9FilQZwKhHYeTSecP75genqMTzVeB9cxh5X7HR/4z4PDxo8QCEcZUB2eBmM3lCPPyVlJOXJobUizhLKcMpmcCtGkY1AFijy4Fx6m4GfXI7NPeUQ2kYFhNp8xnmaUE0cxsiRZZBWDZpiPxB2l5qHXiT0fzw156ZgeKfJxS5J1MkjpnPHkmGx2BtMTKI8gy8UmM7RCAiSpCpplwaGAKqCYwfycdDLH6V1Uk/FkzNnZGWVZ9pFM7nax4INHLLfEzr7F+QrUmunccXJWolOw1pOmY0ajY/LJGZSnoAYEHuQje8TlEgn3ojIYHVHMTphMjkmTkrbpKIqMi0enlBOFcVusq3G+xXsTnD8Oah89xg7NdYNCyJ10SNS/D6G/K/Vr8901xT5xD4ncx0AYITimylMePLrg6bOnHM2PSJOMNBG7gOGX7oMQVesAFEyP5nz24y94+NEHkKdhBr83958wHDZ2JBgHGDwtSrdkuUWnrVg66QqdGCaTMfPZsbCJ5EIQPsMajTUJngSP2JgPpreAsGNIZ4zKOVmWicEEK5SuUbobsOihXH64JRYJOs7eOwIvSpgeKZJ8g/EbVOLJipLx5ATGx6GM0Fro3E6kBOICIM8TtJaVmSfBUUI+RpUTstGEJE1x3pHnuXi5mY4pihydBDfCw6Sk/EppdFAZNbbFU0NS4dUC6ze0psJYx2g0Yzo5hWwOahqWNFLedyYb4kd7DdmYs5OHzKenJDojSTRpBjrpgBZUB8rQmYaua4NBSiTOwF3t2ePfw6K/j8U+zHdv3tinAsOqDO9HBkPF4SL8jhCDUcYZnDzl4ZPHfPzJJ8xms/3MsPfNQ9AcFC9CenLMp19/xcWzD6HIhMAPM92Bwwr/zgf+yHDQcgMQ/V4n2mt5htZIdM4Q2mg2nTI5OoYkDa8RQjZG3Bj1gQvvgBLeOc3IS7FRb7tWkC52dzgMJQT/nrYqipzZbEKSiGsirRVlUcJkCmUJ1tG0jqb1NK2j7RwSdAk0ipyCJEztMe4IaNIsZzQey2BkLWmWMj+aM51MKMuStF/rDZA4IINSO2caxgqHoDUY21E3FU1dY61jNJpQTmeydJB91/Cud4BH4qEZA8ZCllGenXF0fBz6K+7/SmPGSbIzHW0nqscCQ2IMv5G2P8TUvRx9H+2u/e4eeneOIbHv0dEeey6TaJy92wSaBCiEwJ99/DGTyX0ETqiRHIegY8HvoKsWifrk/ISnn3/K0dkpxolljgmxuqJTBWtd8HUWdMDvSX882Gu60GKh0xH2KAqK+m0MpXBWLNCsdWJ1ppPevFQpJTG927bPjxH3TdFxgPeBSOJnhxDimTkj1k2yJSNWT9H2/F4Y3ro3m0REdcFMU2uxmJPCeNBiKqujU4MBWCwtDQYjAq+ICE5MJKM5orXiTrppZCa0TjyhKHbqyvE8zA/BiUbCaDQiy3KUUqRpSp7n5EVOlomJLsZK2/SIMei2d4FSIjMAaVMrxjNi6pmK9WAaAiAOuGFPeP898G4y3BF3n+dgffy+Z7mLibsixAcDwxczK3arMOc9xliqtqXxDpslHH9wwbMffc787ETkY7v9rj2Q1w//C/TD6F5beLnjMs3k/ISPf/wFxw/OsEGZIRK4UqrX5faHHXanhn8MeM/LIy3HnwMiV0o8uXRd28/Y4nNOB4MaiWHdNk18GKxsbek8eIPx4i4oRDTegfcy84R2cs4FX2vSVgRJ6SGixGuxw/uOH4CLAf68wwNJdIRpA+FoTZIIA9ErewQwXkIpizJKIFjE7twEpwexL9uupaoq2raVe97320gQNcWkTj5EFdVaixQ9hGdOkkSIPJMB0TkrYZx7r5fv6bshKBUMXjw0Uh4dAjxGe4Ik2HRL3h2V7zbyBq87OD9Mkej28v6eRH4IPSkMVnMMvxlyee/prKXuWlocNk84++gJn3z9JfOzE9Civ7EvfN1B6JW9t/Yz+F6hlcS80vMpjz95xi/+6i949tmnjKcT8rxAay2I0HbB1jbOTO+q+p0v/D+GwWgSh0O4SyGxDF7WjolOcdZTV42kuqVrLcYETiUQNamGsoA831VFEZwJBK+G/cAaPd15jOkw1oT1taz5fHT0EPP2Z4dlvQtV1XB7u8AaT5YV+BAO12zWUFUQNMhGGRQ5ZJnU1+BJVLDpTjLS4A7S43C2o+vawM1YtNYYY1iv11R1FWbxw1kjtuPuivcSF9w5j3dQbRtWS3lHXTesVis22w1E3+nOCrG/D7QKGOqhbVmtllTVFu8dTdOwWCypqwbnxMeaqB0fviTiQbwhx7gPsAf3XPr9sDbi3T0p3I2rhSEKKAIT5jw6ScjHI7LxiGw+5skXn/DVL76RuHl3OLNYr7jgulvafg1+B4JsYvbkAR/99CueffYJZw8eMB6PIYTvtb23zXta5j8dQrl6SXS8pIPIKUPrEmczmhqqrWez9rR1gjOJELmtwVUShDwNoU6VF71wHaXwLY7gxAFANUANfkPbRfe7Oc6O6NoMa6MUNipdBDNQFZwWxsEgph4jUqqtZ3Ft6eoSzRjvxDZ8u73Bb2/B1X3tQ/cBMsFrUlIKEoqg+dSR2A2qWuHrDa4Nlm6Jpus6VqsldVX1s/tdGGCNEqcV1oIzKdaM2KwSFrctdWXouobN9pbt9gbsGtiIJxpV79RHD4hBrNGs2DDbGpo1q80tdbPG42iajtubNdXW42yKtQnOhm0xksGLXNg660DthHG7UXmQ1EAZ5vD64e97r/m7wtGQpG93CkJ90xGzyPJLJ5qsyJkczzl9dMFHn3/KRz9+xORkJIPdHrEKFxm55/smiX4GH4IJ7mV7GMOHHz/jL//6r3n48AJjTFhnZRRFQZ7JrP6nBz50QGzoQDxe9gMV4vHUmoz10nB1uaXaKpxLMcZS1xua1RWsr8BuhHBpgQ6NRSuLTowgjjeS7Ba217Trt2zrpfgP9xlNlXJ9VbPdmDDI7JDE98gSu0iFPEOsT2lrzXrp2SwTqo2j6xzGNGzWN2yWl7C6gm5z2Ajignh4wXfQrDHLa+rbS9rNAuUMWosZbV1X4i+92vZrWoHwYw+PhD9xXqKnmC7BtAWrW8X12wrTCYfddhvW22uq5Wvc9i2OjQyGqt0njjjgYcA20Gxgec1mdUPTrLGuQWuo64bLy1s2K4PtEmynsUbjo7dalBRU+d6rTE/gBDPdewixf6Z/9h337r12P3HH5NUw7VpUTmXpiFJ4rXj22af89//5P/joi09hGlQFes21Xaf4wNr3S+QDuEOVUkyHBJUJWy05PHjyhG+++TlPnz7laH5MWY7E1VGWkWbZvyPqyf9viLWNDc+OwBFXvnHrRPmSzcrx9s2WeqvCdpijbjbcLi5ZLy6hWoDZgm+ADkWHwqD1AHlowGyoV29ZLF9TVQu6zuBdTr1NeXu5Yb1uQzniyB89nkTkYLfvGoncAz7Fdil1lbJeapYLQ9s4jG2pqlu2y7dw+waWV1CvRegWqu8HDIbDY5sGs1nSLt5SX7+mXd2C6fp1eFVVXN9c07aNuAfa20yNCBaSYjeDG4c1KbYrWS81i5sG03nZmvMNVb3g5vYly9VrOrMMe+ZhRo2EhwkzbAe2pqtXLG8vWa6uMKYCZdAamrrl+mrJdmOxNg3blwrvpH97AscFLD6cwYMP8mE6nJGHv++7due5u0QdU5y5fdjjHlJjoGtQimJUcnx2xrPPP+Unf/Zzzj/I9tQt7tDT7jX3gnRdEHq4IKUVh4Vp1JWQl5xkHH3xET/6xZf85C9/ysnjUyTMVAhXq3cjkwgTJGKmCD3iS/7AdO8YcX/N9q/uvyduqUCQ9jthXbNkzHbjuXy9pdnkJH6MN5puW7G4esXNm+esr1/hNnEmr4CKlBpNjVbyG7eBdsnq5hWLq1c02w2+8yhXsF1rXr1YsVq0eJ8NIpsIgSjCLNZr2u8UYITYU5TPUW7EemG5frOirSxYhW076tWC1eULePs9LN9AdSv+1SzkvkXbMJDUK9zmlm55RX3zms3VG6rbFab2tHVGtYHN2rBe1XgPRVGSJoIJh/YA0qZKZkynxfrMpnibU29hveywXUKqSvKkAGO4uXzJzeV3NOtLfHsLfhPSFtgC4bfb4Nsl9fotN29fsr69RZOQ6hGakrZRLG8bmhpwGc4mOCucz946Nc7CcSAaYEbIMBis5LgTgw50P3ZjGSoYgcTUv75/p0CPbf3rdu92SrbDRGPNY7THJp6zxw/45i++4dkXz5idpejRwUv3cHiA7fcVAEh+GazJPCIoIUbYGBiGKh/wrIRCAYVnYzasm5V44PBdL9lVSgg7ErjQtyCwIrqXec+o13fIoOUGsKvSoHLxSsh7907swHgm35YQOx6VWBTiQnk2O6IclyGiSIvrajCOxDpU25B1W1S9hGYJ9QLqFaxvYH0Ny0uamxcsL3+gXlzhK4vbprSrhMvvN/zwm1uqVYJrS/DjECjAQXCtLAYJsoTYI26l+3U6WHQiJq7jcUZRJHhnZVpwDmxL5hqU2YLZSPnqG1RzC9UN3eIV7e0L2sVr2sUl7XKF3TpcnVMtUm4uFc+/W/Hy+QrlxyQ6F19ynh3Dt8N5sW0nBZeK/AxBGKUdOms5OR0znRVi5UWOaQzKGhLXkpiavKugWUO7gPoW6hvYXOGXVzSLt9Q3V1Q3b/H1ltTJcrxa5Lz6ruH5txvqVUbX+X7mThNxiU3YLdnfTJCBMoRe2M30dzTVJO36QCT5ErhBk3hNEsw5FUM/enFvYjBY9EQtjjwkAISoBYtCi8ekHjXNGT2Y8fFPPuPrv/6GR58/oXhUirJfP9NGYhRa7YcrxWDrch+UF5CsgcCH7LaXyVm4HANcb9m+vOZ//c2v+Me/+wdeffuS5dUa3WkSl5GoDOcU1gAksk71HRqDRvxY7xo8wu7CXeLcwd69WJlw8d3EzWBEDp2F1LVvIN2QpB1Zbrl4MufiWcaTT8acPvbo0qKSAk9Oko8pihF5kZOXuSARiq4xdE1LU9d0zRZvGpypsU3C6irh+qXj1Xc1z3+7oF4ntFWOshO8roNPthqURbkYFCELcgIps0fhdY1TG7zeMJrC0Rl89tVDnjydUE4gH+XkZUZWZuSjCVk5JStnkJbiilmLe+nNekmzvcV3WzBbfKcxm5JmlfH6uy3f/uYNL3645tXzG1I9IUkydAgfFElaQIUyiuqucynON6Bb0C1p1jI+rvnip2d89NmYo/OMbJzjtMUlHnRCUY4Zj6eU5YRyVIhjAy9LhLYyuA68UWAl+IJrW26vrrl8XvP9v2z49l+W2PoIazzehUALOrh77sGHiSNOJgOfd76fwoYP3AOCJ4mHxPlgxincqox9XsbXwL32x4CXXimxWozyAQeODh987PnUc/r4lI++eMpP/vxn/Oy//gLOp3AsFmN9sysZQeO6u6fvA5odgszgcWYbKDHsdaUKEs3UQmnJRik6U2RFijEtTdvSNh2uc+AV1imcVzifgA/CKGIQgH1WWWB37O/1gosDCI23+72TLN7JHSqxG9j8YP3kZdYMTgPxKd5lOJvibMWodIyKlly3ZM5Cu0W3G1SzQjUrdL3Crq7plle0i0u65SVmcwP1mtR2+LajXnQs3hjePG+4fQObpcK0Oc6GSCfKiURedShlBxLgOLuE5BMJ5ucM3nXo8Jx3Bmc7skSRp5DoDs0Gb9b4bh24jCWqucVvr7HrK5rbN5j1W2hXMsu3iu0i5eql5+V38PKHDeulxbRaVEJ1GsxqI05EFh0xufU5yhcoJ5ZnKqxLvTJAi9YOrLhizjUU2pH6LTQrErMl6TaodgXNAre9wm6u6NaXmPUCs15itxtU5zBby+bG8Pr5hu9/s+T6dcd6CdiRRGcNZqoxNNGuvwmIcE+73jNr358UIP7gU6/JnCJ10UHmjmYGlBg4WElOK0D826tg7GK1xySOZJozvzjmwx8/48v/8hUffPkRkw9OYKzEDifpwgwrA9Qe7sfaRWWueyD55S9/+cueqO9kjCuQ8AEfHASmGfPzh3x0cYGxjm1Vc3OzYL3Z0jmH6TXaFB6JsxWJadgAw8Y7bByhyvvv790bSJsPG3mY3v8nAi3vNNZ4nNuQ554s9RRZTqYnpIxIKdA2A5PgG02zsVTLlm5rsQ1klOR6gnYlzQauXje8fdVy9bpldQvV2mJtCOODlsgnyqAwodbBnVPvkGBQgyBZVsqRZQlKeZbLW9brNZPxlMl4SpmPxN+bS6WMncK2Fltb2m1Lu23pti229Sib4rqEdptz9dLyb/90w6sfGhY3FbaDJMnJs4I8zXvHi4etJjHHMklkMliqXV97b6g2G7abLVol5EnBZDShSHMSn5FRkJKBga62mNpiaicWFm1Gs/E0W+gqzerG8PbVluff3vDdv12xXXqwpQwuxLaKx+EgNCj3Xh2G+ePxEGP2r+mwU6q90ITMzoHo3pHUHjVpnFa4FEzq6BLD5HzGx199yo//7Cd881c/Z/7wCKs7tBiDQ6JFwhYDK/bLzAFhBxb9PujX4HdhOLuGcwVYD05DVqDygjLNSLMC4+VW3bagFXlRkGgF3u7WQii8SmSNPkxhvSMGHIejZxxp3zfi7u6JQ4c/IHkl7/DgfYtzHXXdsF11bFbQVimuK9FM8XaCNyO8GYEd47qSrilotinLW8eblxtefL/k5fMNV286NgtPUym61g8kLgRpbtyyYcCW39dZsnerlIQXFgU2K+tjUrpG0VRQbaDeKkyb4l2B9gWJGmPbRPJsoVp7ljeW6zcNr5/XvPhuy8sf1qxvHab1aJWQJRmJSklUIt5SHPe0WYL2KYoQXFAF/9xRdhKVX4zHtJ66slSbju3K0GwVtsvBlShXkjBFuRHejmjrlGqtWd04bq86ri8bXj/f8PKHJW9fb1ndGrxJ0RRShp4ADwnb30uod9Kd5+Kzg3O1yxcJ22lwvWA5LPkC56nYBYPQ4k0Koxwm8fhSU56MePTJYz75+nO++NmXPP3yY46ePoCxuPJSZQpFOqC/uJeOlGpI1O8hcOX3RHFD2L14R+wK2gY6DzoXlscp2pdL/v5Xv+bv//bX/PpXv8ZuOubZDF9Zmm0l4V69Rw8+tStOPJNZ4i7s7vfP9PkGz945+8PAewvJEpIVSbYmLzzzoyMePbrg4kJSUci+f1STrKqK7XbL4nbB1fUtL1+84vr6lmpjsaZAM8GZEmviujWssfstoqh4MTRNjNyJDtpvgY3XlixTJLkN7FsLuqMoM+bHU+bzMbP5iOPTGadnM+bzEdPplKauqauazXrDclHx9vKW67cLbq4qljeezRKUn5GnJVkq4YelLX2IshLjZQ8hspw5ymd4JQEOvDJ4bUSRRddA8OOeWUbThJPTMQ8ennB2fsL5+THzowmz+RwA6yzL5YrF7Zbr6zXXVyuu3i65udqyuKkxXYImJ9UFqS7CdqeU9N19P7jT87iHxwiHv+lpQAnByHEwAcqZDGq7qwHCtTZRVMrRZZr8aMLFhw/55s+/4fOvPufJx4+ZPBjDUeh656DQ4QUNjenQiSxD4ksV0dOtfOP3JPAD4vaErTSgNdFHD+hUvAlsPJffv+HFb1/y4l9/4Pr7NyxeXLN8ecP15VUv34hua6AXBt5p6Hh9v8vCce/e8Pq9uf9A8KAr0DVKV+jEkhcFk/GY6XQqBve5hEBSsfOahqZpZMbf1qxWG1GhtBL4XpFjOuhai9IpiU5DT0bJeBQAMSj9gMi9wuNIU02aarF6k/CgOGVw3pCmCaPJmLIsKErNaKIZTRKKEvIsw3QdbdvRNh1tBfXWUW89deXDuSNRI4pctsWSEJzRWgk06A+8jfRl9Gmwj5eYaT44lfBYvBKlIE8r59qgE0s5SpnOCqazgsm0ZDTOGI1GEIJFVlVNVRnqylBtOzabju3GUG06nJXlTaqTIJnfyYwgNqN6Dxa8D0v28Sn8CJd3pCu3Y3sIXewIfvCFAWXVhUKfTCgenvD482d8/MXHfPblZzx88oBilqLHwTw+G6K7xdCJwZJWaIToA3nvvNz+YQQej8EwQFx3SPLBggxNVo6lQEa2Md3S8K9//8/877/5FT/807c8/813KOPRBpJ+uyW222Fjhys+/gsViHffRfwHhH+3qoMr99S2h7i1ojtU0gYvIWLBZOwucGCeZxRFKYY3VmJPW2uh9/EWrNMS0U5wVtG2hqZpSZKULJW45DtBYkzDkg/rp0B5yqIgL3KqakPdVDglgQudNygNabD3li01WbN7DN5J6BtnQ3hklZGnJWlSkqgC22ma2pHqEUVRiptsoG3EzDXREqzvLuhebgBJWCMKq+qQOOfRy4pOPd53tKbC06G0bPfpxIcQTGJy6lFBnz1BqUy24HyKtbIzI4OmBEQU6z+1iybalyuc7RHqEPbxah8OsWhA2IK0AeXCzB1Z8/C52JO714g+vSkTTp895vEXn/Dz//YXfPn1jygfJeLtKxgtkgQHNwGqbiuGQ9Kp4ZU9ef9HZnBChRxIprD2dr2GlAesUiSphGTFBSKvYfNqweX3r7n64TVX37/m9W9fcPndS+rbNdtt1UeIFJteCRQI0nHSQjKoyJdiZ8lh1/yRsPc7RA3yvhvubwwQwUXPNgeNJ+9EAUhoUIIm6BAVpTew8L4PtRyFfXHrQhGs7oJlmYQQOoT3F9p7IYIk6IobK9ZjHrFj9yrsj2vZSomt4UP/+dCucSaOUTU1Cc4mWAOagjRJe+u3OHDtXEyz3xFx316FpUVEcCWmjyD24Up5dAIeQ2tqvO8gCuO03NNa5CgehbUe77Ws7REpPj4QvlfgPVr53hZFZnC/K9sdNjyCcJ67lo44NGz7w2fjPZm5daLFAUYYd613GG8xzuK1QmcpBkdrDOPphNnRnA+efsiDZx9w/vQJZx894vyDC47PJzAJM3b04KV3BgQeT+e7sMszJN9I3nIer7wL3k/g4otWCNyF5GNhFFbLNoD2so0CgdsUzgyuGqrXC/757/6Bf/0//8jt80uur25o6qZ3WSwgDe29xzv5rhzDx3zIc9hl/fX9Kg5Zo314V0McdqqwmDvWeXdf6+g+OIallfsK8eipQshaSbIdJ+ab0cdBRMT43piGsEMqlKjcyfgibeEceDQ6yUAlwkX4RgYkbWSt5oNPMy8B7eNQ470VFdvEh605L4o1Lihh9G6AVCAIKcmuTYcsa8wpR49IU31QJQoNhVKKJNV4b2lNg/NB5hCWJ1ojYYhQeK+x1ov+fAgSIRPBoD1wItfBoZVck/KJUOuwP+VWnDBCtfzuPoQBsIfYJ4N+QARpaZ5JhFcFTnvhkbylcQaVpxSTMUZDYztOH5xz8eQxX//8p3z5s685++AR+oHuV1/3pTg2iV5pxJNdSXfn+2T/LvgdBC4fEE4yzq4y0kQ1Ox/YA4UoEITAm5IqYNXBmyX16wXbN7e8vbzm5YuXXL65ZLFYslquWG82Esx9EMvZOyF2gUFFIn711we/3lETgZjvHY1yOOoPESJcl9lZ2EHvCbrbPjwT7MkD+4b3OC8aaloHza5I4L3SxcBa7E65dgTgEdZahG0xikeKTgqRoFsTlExkXS4scwEuQxG2kUI/eW9lfzox4j7KW5l9XWS345pWZkof+38Pdojfr38VYSdEyTEOSCgUmiRN8N7RmQbr4+Ap79A6xhmT3RRrRY0YAoenxbW1yCyiNqS8QwdX3vK1iKCHfRn6JH4xZotP3iGB2B+7eoIQuE4TdJrglMdphc5TkjIjKQvm5yc8+OAx09NjxkczTh6ec/bwnMnxnMnxjPHRRAxHht19cB6+NCDuQyyU//H4u+D/AivYG7TRltc8AAAAAElFTkSuQmCC;" vertex="1" parent="1">
          <mxGeometry x="1200" y="400" width="248" height="354" as="geometry" />
        </mxCell>
        <mxCell id="cTqye1R8xtgrSsg4DlFA-3" value="" style="shape=image;verticalLabelPosition=bottom;labelBackgroundColor=default;verticalAlign=top;aspect=fixed;imageAspect=0;image=https://mischianti.org/wp-content/uploads/2024/02/ESP32-NODEMCU-ESP-32S-Kit-pinout-low-res-mischianti-1024x599.jpg;" vertex="1" parent="1">
          <mxGeometry x="-1800" y="540" width="1834" height="1072.82" as="geometry" />
        </mxCell>
        <mxCell id="cTqye1R8xtgrSsg4DlFA-4" value="" style="shape=image;verticalLabelPosition=bottom;labelBackgroundColor=default;verticalAlign=top;aspect=fixed;imageAspect=0;image=https://lastminuteengineers.com/wp-content/uploads/arduino/Passive-Infrared-PIR-Sensor-Pinout-Diagram.png;" vertex="1" parent="1">
          <mxGeometry x="1160" y="1010" width="385" height="371" as="geometry" />
        </mxCell>
        <mxCell id="cTqye1R8xtgrSsg4DlFA-5" value="" style="shape=image;verticalLabelPosition=bottom;labelBackgroundColor=default;verticalAlign=top;aspect=fixed;imageAspect=0;image=https://id.szks-kuongshun.com/Content/File_Img/S_Product/2016-08-27/201608271118164632167.jpg;clipPath=inset(34% 4.33% 34.67% 9.33%);rotation=90;" vertex="1" parent="1">
          <mxGeometry x="-466" y="160" width="500" height="181.46718146718146" as="geometry" />
        </mxCell>
        <mxCell id="cTqye1R8xtgrSsg4DlFA-7" value="" style="endArrow=none;html=1;rounded=0;shape=flexArrow;strokeColor=#000000;fillColor=#000000;" edge="1" parent="1">
          <mxGeometry width="50" height="50" relative="1" as="geometry">
            <mxPoint x="786" y="910" as="sourcePoint" />
            <mxPoint x="1327" y="1255" as="targetPoint" />
            <Array as="points">
              <mxPoint x="1050" y="910" />
              <mxPoint x="1050" y="1250" />
            </Array>
          </mxGeometry>
        </mxCell>
        <mxCell id="cTqye1R8xtgrSsg4DlFA-8" value="" style="endArrow=none;html=1;rounded=0;shape=flexArrow;strokeColor=#000000;fillColor=#FF0000;" edge="1" parent="1">
          <mxGeometry width="50" height="50" relative="1" as="geometry">
            <mxPoint x="376" y="1071" as="sourcePoint" />
            <mxPoint x="1374" y="1256" as="targetPoint" />
            <Array as="points">
              <mxPoint x="260" y="1070" />
              <mxPoint x="350" y="1320" />
              <mxPoint x="590" y="1540" />
              <mxPoint x="1370" y="1540" />
            </Array>
          </mxGeometry>
        </mxCell>
        <mxCell id="cTqye1R8xtgrSsg4DlFA-9" value="" style="endArrow=none;html=1;rounded=0;shape=flexArrow;strokeColor=#000000;fillColor=#FF0000;" edge="1" parent="1">
          <mxGeometry width="50" height="50" relative="1" as="geometry">
            <mxPoint x="374" y="1033" as="sourcePoint" />
            <mxPoint x="1367" y="729" as="targetPoint" />
            <Array as="points">
              <mxPoint x="210" y="1035" />
              <mxPoint x="300" y="1340" />
              <mxPoint x="560" y="1570" />
              <mxPoint x="1580" y="1610" />
              <mxPoint x="1570" y="990" />
            </Array>
          </mxGeometry>
        </mxCell>
        <mxCell id="cTqye1R8xtgrSsg4DlFA-10" value="" style="endArrow=none;html=1;rounded=0;shape=flexArrow;strokeColor=#000000;fillColor=#000000;" edge="1" parent="1">
          <mxGeometry width="50" height="50" relative="1" as="geometry">
            <mxPoint x="790" y="590" as="sourcePoint" />
            <mxPoint x="1322" y="737" as="targetPoint" />
            <Array as="points">
              <mxPoint x="1150" y="590" />
              <mxPoint x="1150" y="810" />
              <mxPoint x="1322" y="820" />
            </Array>
          </mxGeometry>
        </mxCell>
        <mxCell id="cTqye1R8xtgrSsg4DlFA-12" value="" style="endArrow=none;html=1;rounded=0;entryX=1;entryY=0.5;entryDx=0;entryDy=0;shape=flexArrow;fillColor=#FF1010;" edge="1" parent="1">
          <mxGeometry width="50" height="50" relative="1" as="geometry">
            <mxPoint x="-1230" y="774" as="sourcePoint" />
            <mxPoint x="-250" y="500" as="targetPoint" />
            <Array as="points">
              <mxPoint x="-1350" y="770" />
              <mxPoint x="-1350" y="700" />
            </Array>
          </mxGeometry>
        </mxCell>
        <mxCell id="cTqye1R8xtgrSsg4DlFA-13" value="" style="endArrow=none;html=1;rounded=0;entryX=1;entryY=0.5;entryDx=0;entryDy=0;shape=flexArrow;fillColor=#000000;" edge="1" parent="1">
          <mxGeometry width="50" height="50" relative="1" as="geometry">
            <mxPoint x="-560" y="775" as="sourcePoint" />
            <mxPoint x="-180" y="500" as="targetPoint" />
            <Array as="points">
              <mxPoint x="-400" y="770" />
            </Array>
          </mxGeometry>
        </mxCell>
        <mxCell id="cTqye1R8xtgrSsg4DlFA-14" value="" style="endArrow=none;html=1;rounded=0;shape=flexArrow;fillColor=#9933FF;" edge="1" parent="1">
          <mxGeometry width="50" height="50" relative="1" as="geometry">
            <mxPoint x="-438" y="1109" as="sourcePoint" />
            <mxPoint x="373" y="911" as="targetPoint" />
          </mxGeometry>
        </mxCell>
        <mxCell id="cTqye1R8xtgrSsg4DlFA-15" value="" style="endArrow=none;html=1;rounded=0;shape=flexArrow;fillColor=#FFFF00;" edge="1" parent="1">
          <mxGeometry width="50" height="50" relative="1" as="geometry">
            <mxPoint x="-438" y="1140" as="sourcePoint" />
            <mxPoint x="371" y="950" as="targetPoint" />
          </mxGeometry>
        </mxCell>
        <mxCell id="cTqye1R8xtgrSsg4DlFA-16" value="" style="endArrow=none;html=1;rounded=0;shape=flexArrow;strokeColor=#000000;fillColor=#FF8000;" edge="1" parent="1">
          <mxGeometry width="50" height="50" relative="1" as="geometry">
            <mxPoint x="791" y="831" as="sourcePoint" />
            <mxPoint x="1282" y="727" as="targetPoint" />
            <Array as="points">
              <mxPoint x="1282" y="850" />
            </Array>
          </mxGeometry>
        </mxCell>
        <mxCell id="cTqye1R8xtgrSsg4DlFA-17" value="" style="endArrow=none;html=1;rounded=0;shape=flexArrow;strokeColor=#000000;fillColor=#FF66B3;" edge="1" parent="1">
          <mxGeometry width="50" height="50" relative="1" as="geometry">
            <mxPoint x="800" y="871" as="sourcePoint" />
            <mxPoint x="1351" y="1250" as="targetPoint" />
            <Array as="points">
              <mxPoint x="1110" y="880" />
              <mxPoint x="1110" y="1400" />
              <mxPoint x="1351" y="1400" />
            </Array>
          </mxGeometry>
        </mxCell>
        <mxCell id="cTqye1R8xtgrSsg4DlFA-18" value="" style="shape=flexArrow;endArrow=classic;html=1;rounded=0;endWidth=149.52380952380952;endSize=42.80952380952381;width=90.47619047619047;fillColor=#000000;" edge="1" parent="1">
          <mxGeometry width="50" height="50" relative="1" as="geometry">
            <mxPoint x="200" y="1260" as="sourcePoint" />
            <mxPoint x="200" y="1540" as="targetPoint" />
          </mxGeometry>
        </mxCell>
        <mxCell id="cTqye1R8xtgrSsg4DlFA-19" value="&lt;font style=&quot;color: rgb(255, 255, 255); font-size: 48px;&quot;&gt;PORTS&lt;/font&gt;" style="text;html=1;align=center;verticalAlign=middle;resizable=0;points=[];autosize=1;strokeColor=none;fillColor=none;rotation=90;" vertex="1" parent="1">
          <mxGeometry x="104" y="1342" width="190" height="70" as="geometry" />
        </mxCell>
        <mxCell id="cTqye1R8xtgrSsg4DlFA-11" value="" style="endArrow=none;html=1;rounded=0;entryX=1;entryY=0.5;entryDx=0;entryDy=0;shape=flexArrow;fillColor=#00FF00;" edge="1" parent="1" target="cTqye1R8xtgrSsg4DlFA-5">
          <mxGeometry width="50" height="50" relative="1" as="geometry">
            <mxPoint x="-78" y="1177" as="sourcePoint" />
            <mxPoint x="-210" y="510" as="targetPoint" />
            <Array as="points">
              <mxPoint x="-10" y="1177" />
              <mxPoint x="-10" y="1020" />
              <mxPoint x="-200" y="940" />
            </Array>
          </mxGeometry>
        </mxCell>
      </root>
    </mxGraphModel>
  </diagram>
</mxfile>
